<svg width="1550.0000000000002" height="900" xmlns="http://www.w3.org/2000/svg" style="vector-effect: non-scaling-stroke;" stroke="null">
 <metadata stroke="null">image/svg+xmlOpenclipartHonda S2000 Outline2007-02-01T13:28:39https://openclipart.org/detail/3003/honda-s2000-outline-by-ivakivakblack and whitecarconvertibleline artoutlinetransportation</metadata>

 <g stroke="null">
  <title stroke="null">background</title>
  <rect stroke="null" x="-1" y="-1" width="1602" height="1202" id="canvas_background" fill="none"/>
 </g>
 <g stroke="null">
  <title stroke="null">Layer 1</title>
  <g stroke="null" id="layer1">
   <g stroke="null" id="g7369" transform="matrix(2.0497 0 0 2.0497 -243.46 -278.62)">
    <path stroke="#000000" id="path1933" d="m571.05145,477.67021c-3.34,22.9 -16.66,41.64 -28.73,41.64c-12.78,0 -19.9,-18.74 -16.57,-41.64c3.34,-22.91 17.19,-40.43 27.83,-41.18c13.3,-0.95 20.8,18.27 17.47,41.18z" fill="none" stroke-width="0.625"/>
    <path stroke="#000000" id="path4593" d="m572.81145,477.81021c-3.58,24.07 -17.52,43.61 -31.27,43.61c-13.33,0 -22,-19.68 -18.41,-43.75s18.23,-43.33 31.27,-43.47c13.75,-0.15 22,19.54 18.41,43.61z" fill="none" stroke-width="0.625"/>
    <path stroke="#000000" id="path1875" d="m766.84145,400.06021c-1.91,17.53 -10.53,31.95 -16.85,31.75c-7.09,-0.22 -12.13,-12.56 -10.08,-31.78c1.87,-17.53 10.98,-31.62 16.93,-31.72c7.32,-0.12 11.91,14.22 10,31.75z" fill="none" stroke-width="0.625"/>
    <path stroke="#000000" id="path1877" d="m768.26145,400.03021c-2.17,18.4 -10.58,33.32 -18.89,33.32c-8.05,0 -13.29,-15.03 -11.12,-33.43c2.17,-18.39 11.01,-33.11 18.89,-33.21c8.31,-0.12 13.29,14.93 11.12,33.32z" fill="none" stroke-width="0.625"/>
    <path stroke="#000000" id="path1876" d="m771.85145,400.96021c1.01,-5.51 1.49,-9.06 2.41,-14.56c1.7,-23.99 0.1,-42 -11.04,-41.32c-18.02,1.09 -30.68,43.34 -32.65,54.99c-1.97,11.68 -1.3,15.49 -1.89,21.67c-0.18,2.22 -0.94,4.43 -2.83,5.61l-48.16,20.2l-94.96,38.19l-2.04,0.87" fill="none" stroke-width="0.625"/>
    <path stroke="#000000" id="path1878" d="m750.32145,442.99021c-1.18,0.47 -2.38,0.71 -3.57,0.71c-10.37,0 -17.11,-19.62 -14.32,-43.62s14.18,-43.2 24.33,-43.34c1.86,-0.03 3.59,0.54 5.16,1.63" fill="none" stroke-width="0.625"/>
    <path stroke="#000000" id="path1879" d="m711.07145,433.61021c2.65,4.81 6.19,8.04 10.37,9.33c9.58,3.03 17.66,3.8 22.42,3.65c14.89,-0.34 24.88,-20.95 28.04,-46.87s-3.52,-44.92 -15.99,-47.09c-1.53,-0.27 -3.22,-0.57 -4.74,-0.62" fill="none" stroke-width="0.625"/>
    <path stroke="#000000" id="path1880" d="m539.97145,537.44021c-0.66,0.07 -1.33,0.11 -1.99,0.11c-18.07,0 -29.82,-27.37 -24.96,-60.84c4.87,-33.48 26.11,-60.45 42.39,-60.45c0.68,0 1.35,0.04 2.01,0.11" fill="none" stroke-width="0.625"/>
    <path stroke="#000000" id="path1882" d="m544.39145,412.05021c4.83,0.69 11.99,2.24 16.58,4.23c15.74,7.31 23.68,31.77 19.33,60.84c-5.12,34.13 -25,61.83 -44.62,61.83c-13.1,0.88 -32.01,-5.03 -36.17,-7.45c-5.39,-3.04 -9.19,-7.14 -11.71,-12.32" fill="none" stroke-width="0.625"/>
    <path stroke="#000000" id="path1893" d="m433.81145,320.34021c-2.17,0.43 -1.89,0.21 -3.79,0.9c-24.52,7.6 -47.89,16.01 -71.09,25.46l-24.94,13.19c-9.3,6.16 -19.12,11.76 -26.65,19.44c-8.38,7.08 -12.06,12.83 -16.95,18.92c-5.5,8.38 -8.8,14.85 -10.31,19.5c-2.62,7.12 -0.12,11.21 5.79,13.27c5.97,2.08 12.12,3.82 18.36,5.37c11.25,2.54 22.9,5.03 34.16,7.3c10.21,2.02 21.47,4.03 30.22,4.38c4.96,0.26 9.38,-0.38 12.74,-2.78c4.68,-2.66 8,-5.21 10.31,-7.06c3.53,-2.69 7.06,-5.21 10.6,-7.63c5.45,-3.4 10.68,-6.46 16.8,-9.32c5.97,-3.26 12,-6.3 18.22,-8.76c10.29,-4.87 21.11,-9.59 32.21,-13.84c9.9,-3.96 22.32,-8.31 33.31,-12.13l32.37,-10.9c18.34,-6.36 35.47,-11.9 51.41,-16.66l22.52,-6.56c7.39,-2.1 13.85,-4.4 19.43,-6.3c11.36,-3.86 99.28,-36.25 99.28,-36.25c4.38,-1.98 6.54,-3.97 5.04,-7.64c-0.76,-1.66 -2.66,-2.08 -3.82,-2.68" fill="none" stroke-width="0.625"/>
    <path stroke="#000000" id="path1883" d="m577.95145,489.26021c1.44,-1.22 2.77,-2.55 3.86,-4.48c3.54,-7.06 4.99,-14.64 5.74,-22.45c3.02,-31.79 -6.21,-57.58 -26.22,-56.62c-16.68,0.79 -34.99,17.4 -44.19,40.39c-11.8,29.56 -13.52,42.87 -15.09,55.41c-0.36,2.94 -0.94,8.24 -1.42,11.3c-0.37,3.26 -3.52,7.16 -9.81,6.49c-18.37,-1.93 -31.09,0.38 -43.86,1.41c-17.68,1.33 -35.31,2.27 -52.61,0.99c-5.43,-0.34 -11.62,-0.93 -20.42,-2.4c-8.25,-1.31 -17.26,-3.47 -25.33,-5.34c-20.66,-4.61 -41.38,-9.89 -62.31,-17.93c-6.8,-2.58 -9.91,-4.9 -12.88,-8.39c-2.91,-2.68 -4.94,-11.28 -5,-12.99c-0.49,-2.17 -0.13,-3.31 0.7,-3.89c0.41,-1.6 -0.15,-3.2 -0.5,-4.8l-1.79,-8.78c-0.53,-2.21 -1.21,-3.99 -2,-5.4c-1.45,-8.14 -1.44,-17.04 -0.9,-25.37c1.92,-19.21 8.3,-29.99 16.9,-42.8c3.13,-4.66 8.5,-9.88 14.1,-13.55c4.54,-3.2 9.78,-5.92 15.44,-8.37c5.58,-2.47 11.65,-4.7 17.98,-6.79c7.54,-2.4 18.19,-5.23 30.89,-8.3" fill="none" stroke-width="0.625"/>
    <path stroke="#000000" id="path1884" d="m272.87145,447.69021c29.93,11.23 79.47,20.37 108.06,25.28c2.12,0.43 4.44,0.5 6.64,4.38c0.84,1.89 0.98,4.37 0.7,7.21c-0.7,6.31 -1.67,12.92 -3.81,18.08c-1.48,2.78 -4.86,5.42 -8.05,6.21c-5.61,0.49 -11.21,-0.28 -16.81,-1.27c-23.86,-3.98 -51.48,-11.46 -68.65,-17.8c-4,-1.56 -7.91,-3.92 -11.33,-7.63c-3.14,-3.4 -5.41,-7.63 -7.17,-11.86c-1.31,-3.96 -2.17,-8.23 -2.54,-12.85c-0.25,-2.92 -0.42,-5.04 -0.5,-7.56c0.16,-2.91 1.74,-2.71 3.46,-2.19z" fill="none" stroke-width="0.625"/>
    <path stroke="#000000" id="path2772" d="m386.23145,497.09021c-1.47,1.2 -3.3,2.05 -5.05,2.34c-4.63,0.4 -10.6,0.4 -15.83,-0.52c-22.26,-3.64 -48.03,-10.5 -64.06,-16.3c-4.01,-1.64 -7.87,-3.59 -11.07,-6.99c-2.93,-3.12 -4.62,-6.72 -6.19,-10.87c-1.28,-4.24 -1.78,-7.35 -1.84,-11.01c0.08,-1.47 0.57,-2.17 1.26,-2.36" fill="none" stroke-width="0.625"/>
    <path stroke="#000000" id="path2774" d="m387.70145,489.67021c-1.52,1.12 -2.66,2.08 -4.94,2.37c-5.91,0.5 -11.81,-0.27 -17.71,-1.27c-25.14,-3.98 -53.97,-11.43 -72.19,-17.79c-2.03,-0.71 -4.72,-2.03 -6.65,-3.2" fill="none" stroke-width="0.625"/>
    <path stroke="#000000" id="path2776" d="m388.34145,483.54021c-6.45,0.05 -11.9,-0.54 -17.85,-1.53c-29.16,-4.31 -60.76,-12.68 -81.03,-19.69c-2.26,-0.83 -4.67,-2.03 -6.83,-3.33" fill="none" stroke-width="0.625"/>
    <g stroke="#000000" id="g2778" stroke-width="0.625">
     <path stroke="#000000" id="path2768" d="m341.52145,480.62021l1.83,-1.28c0.6,-0.55 0.55,-1.56 0.45,-2.51l-1.06,-27.11c-0.09,-2.42 -1.54,-3.18 -3.18,-3.61c-14.26,-2.82 -29.15,-5.02 -42.58,-8.68c-1.11,-0.2 -1.9,-0.19 -2.45,-0.03l-2.24,1.36" fill="#ffffff" stroke-width="0.625" fill-rule="evenodd"/>
     <path stroke="#000000" id="path1881" d="m295.26145,438.58021c13.43,3.66 28.32,5.86 42.59,8.69c1.72,0.39 3.08,1.19 3.17,3.6l1.06,27.12c0.17,1.65 0.21,3.48 -3.1,2.75c-13.67,-2.86 -28.36,-6.82 -42.52,-11.23c-1.19,-0.39 -2.76,-1.2 -2.97,-3.74c-0.96,-8.83 -1.13,-15.49 -1.9,-24.51c-0.11,-1.76 0.07,-3.33 3.67,-2.68z" fill="#ffffff" stroke-width="0.625" fill-rule="evenodd"/>
    </g>
    <path stroke="#000000" id="path1888" d="m479.85145,447.49021c3.66,0.01 7.17,0.13 11.59,-0.5c3.9,-0.78 7.24,-0.67 10.49,-0.4c2.35,0.16 4.56,0.54 6.39,1.5c0.84,0.93 1.38,1.86 -0.4,2.79c-1.96,1.26 -3.93,1.36 -5.89,1.74c-5.05,0.59 -9.48,0.5 -13.44,0.49c-7.94,-0.02 -21.98,1.56 -31.13,2.62c-19.02,2.88 -36.92,3.25 -53.15,3.67c-6.7,-0.06 -18.3,0.99 -20.27,-4.1c-0.69,-2.01 0.63,-5.29 4.2,-8.27c6.61,-5.44 14.9,-11.29 23.4,-16.02c4.71,-2.86 10.26,-5.34 15.48,-7.89c5.71,-2.79 14.58,-3.87 19.97,-5c8.19,-1.71 21.13,-3.59 26.07,-4.19c7.61,-0.93 15.26,-1.85 23.77,-1.5c2.79,-0.11 3.61,1.45 3.65,2.7c-0.39,3.27 -0.88,4.74 -2.05,6.69c-4.85,7.12 -10.37,13.82 -16.28,20.27c-3.38,3.16 -5.53,4.9 -10.98,5.7c-22.6,2.46 -45.98,3.95 -68.02,3.79c-2.56,-0.23 -5.82,-0.04 -5.69,-3.29c0.31,-3.06 2.04,-5.02 3.49,-7.19c2.12,-2.89 4.23,-5.17 6.34,-7.55" fill="none" stroke-width="0.625"/>
    <path stroke="#000000" id="path1889" d="m404.45145,489.94021c4.16,-1.36 7.38,-1.46 10.78,-1.8c15.98,0.54 31.62,0.1 47.35,-0.1c4.16,-0.04 4.92,1.22 4.59,3.59c-1.4,6.56 -3.98,10.12 -6.99,14.39c-2.13,2.22 -5,3.35 -8.19,3.99c-16.47,1.33 -33.95,2.59 -49.24,1.2" fill="none" stroke-width="0.625"/>
    <path stroke="#000000" id="path2777" d="m443.22145,488.30021c-2.07,1.8 -2.47,6.61 -3.68,9.96c-1.58,3.85 0.74,4.41 2.83,4.59c7.09,0.45 15.88,-0.01 20.69,-1.27" fill="none" stroke-width="0.625"/>
    <path stroke="#000000" id="path1892" d="m603.75145,344.96021c-3.66,3.65 -8.81,6.79 -15.93,9.24c-7.17,2.79 -17.63,6.24 -29.16,10.19c-13.39,4.55 -27.01,9.2 -40.93,14.02c-12.22,4.23 -25.33,8.46 -36.11,12.7c-13.14,5.21 -26.13,10.12 -38.72,15.73c-10.06,4.4 -21.04,9.71 -31.86,14.88c-4.64,2.41 -10.33,4.35 -18.38,3.1c-4.36,-0.56 -6.34,-0.69 -13.88,-2c-15.36,-2.22 -30.21,-4.59 -43.75,-7.49c-11.93,-2.52 -28.22,-5.64 -36.75,-8.19c-2.97,-1.54 -3.31,-3.97 -2.2,-6.4c2.88,-3.9 5.87,-7.82 10.59,-11.98c4.12,-3.5 7.95,-6.91 14.38,-11.19c5.26,-3.79 10.76,-7.35 16.28,-10.88c5.09,-3.38 10.19,-6.11 15.28,-8.69c7.83,-4.23 14.94,-7.75 21.97,-11.19c8.95,-4.48 18.28,-8.19 27.47,-12.18c11.35,-4.14 25.41,-8.77 28.91,-11.6c2.94,1.74 7.47,2.28 11.14,2.61l60.63,8.09l48.64,5.99c14.98,1.99 28.43,3.06 42.15,4.29c6.02,0.74 12.18,1.06 18.47,1c4.86,-0.01 9.72,-0.48 14.58,-1.3c8.02,-1.82 94.93,-34.33 98.67,-36.13c4.47,-2.28 8.8,-6.55 0.19,-10.18c-10.52,-3.52 -27.68,-6.99 -48.87,-9.04" fill="none" stroke-width="0.625"/>
    <path stroke="#000000" id="path2784" d="m587.77145,354.15021c0.02,-0.01 0.04,-0.03 0,0z" fill="none" stroke-width="0.625"/>
    <path stroke="#000000" id="path1894" d="m285.58145,397.41021c2.77,0.27 6.19,1.37 10.46,3.53" fill="none" stroke-width="0.625"/>
    <path stroke="#000000" id="path1896" d="m275.56145,421.42021c-0.99,-2.57 -1.8,-5.63 -2.41,-9.32c-0.37,-4.85 0.44,-9.48 1.84,-15.4c0.71,-2.92 2.6,-5.84 4.8,-8.76c3.89,-4.2 6.85,-6.53 10.03,-9.32c2.89,-2.53 2.55,-0.76 2.12,1.13c-1.76,5.37 -3.71,11.02 -6.21,17.51c-4.52,9.19 -8.67,19.49 -12.43,30.94c-2.51,4.55 -4.68,3.23 -5.37,0.7c-1.7,-3.79 -1.91,-11.74 -1.48,-16.17" fill="none" stroke-width="0.625"/>
    <path stroke="#000000" id="path2783" d="m725.68145,423.22021c-2.08,-0.07 -5.73,1.81 -9.81,3.16l-111.07,45.38c-6.7,2.14 -7.72,0.03 -5.39,-4.6c3.13,-6.05 6.55,-11.06 10.19,-14.18c3.69,-3.33 8.39,-5.47 12.58,-7.19c31.57,-14.09 63.33,-26.44 95.28,-39.78c4.14,-1.7 7.23,-2.97 9.79,-3.12" fill="none" stroke-width="0.625"/>
    <path stroke="#000000" id="path1899" d="m430.93145,323.04021c4.38,-3.16 13.37,-16.92 27.4,-31.71c7.68,-8.51 15.37,-16.93 23.31,-23.87c4.06,-3.71 9.11,-7.29 15.82,-7.91c7.85,-0.73 17.24,-0.27 26.44,-0.02c31.57,1.36 61.84,3.57 90.09,7.28c7.86,0.85 13.84,1.95 21.17,3.99c4.01,1.03 9.14,4.15 10.39,9.69c1.51,9.09 -0.48,19.04 -2,28.37c-0.68,6.76 -0.07,18.18 0.64,23.93c0.07,0.63 0.37,0.99 1.29,0.68l2.18,-0.79l52.85,-19.22c1.74,-0.48 4.39,-1.55 6.37,-1.91c3.28,-0.41 5.36,-0.14 6.79,0.5" fill="none" stroke-width="0.625"/>
    <path stroke="#000000" id="path1898" d="m432.48145,320.43021c0.92,-3.2 0.34,-6.17 0,-9.19c-2.3,-1.66 -2.95,-4.51 -2.54,-7.34c0.81,-4.34 3.44,-7.64 6.5,-10.1c1.48,-1.12 2.9,-1.84 4.73,-2.12c4.4,-0.07 6.93,0.04 8.83,2.33c0.56,1.08 0.7,3.02 0.14,6.36" fill="none" stroke-width="0.625"/>
    <path stroke="#000000" id="path2787" d="m432.91145,315.13021c1.1,0.88 3.01,0.72 4.52,0.63" fill="none" stroke-width="0.625"/>
    <path stroke="#000000" id="path1900" d="m434.14145,324.24021c4.24,-4.63 12.12,-15.97 23.48,-28.21c7.09,-8.04 14.19,-16 21.53,-22.55c4.04,-3.54 8.17,-7.95 14.76,-8.25c8.65,-0.4 15.64,-0.29 24.13,0.11c29.67,1.37 57.9,2.97 83.99,6.52c7.31,1 13.08,2.15 19.91,3.78c5.48,1.3 9.66,3.78 9.59,9.95c-0.05,8.7 -1.98,18.34 -3.29,27.14c-1.6,9.85 -3,16.04 -4.77,24.99c-0.97,4.73 -2.4,5.56 -4.89,7" fill="none" stroke-width="0.625"/>
    <path stroke="#000000" id="path1901" d="m493.25145,262.67021c10.79,-0.81 21.75,-0.09 32.55,0.41c29.67,1.37 56.07,3.25 82.16,6.81c7.31,1 13.28,1.79 19.91,4.07c5.43,1.87 8.93,6.29 8.8,11.55c-0.22,8.69 -1.82,16.35 -3.19,25.14c-2.34,11.29 -4.67,23.82 -7.01,33.06c1.04,1.13 1.51,1.39 2.3,2.5c8.9,15.21 7.02,35.02 6.29,51.94c-0.58,12.01 -3.13,35.89 -4.49,47.04c-0.18,1.85 1.33,4.2 3.8,3.34c27.38,-11.39 52.46,-21.15 75.52,-32.26c2.62,-1.26 3.72,-3.11 4.59,-4.79c6.69,-12.96 9.05,-29.02 11.97,-43.2c2.17,-12.36 3.65,-29.7 0.2,-37.75c-3.58,-8.37 -10.99,-13.38 -14.38,-15.18c-0.54,-0.68 -0.97,-1.46 -1.25,-2.41" fill="none" stroke-width="0.625"/>
    <path stroke="#000000" id="path1902" d="m641.25145,346.70021c-0.69,2.32 1.44,2.87 2.54,4.52c3.09,4.3 5.78,4.41 8.19,3.95c1.95,-0.93 3.81,-1.17 4.8,-5.22c1.15,-3.29 2.2,-6.96 2.97,-10.46c11.25,-0.31 17.34,-2.54 23.31,-5.08c4.02,-1.72 5.96,-5.47 2.26,-11.3c-4.3,-6.78 -9.13,-7.26 -13.28,-7.35c-6.94,-0.08 -16.28,-1.74 -18.79,2.69c-6.34,10.67 -6.55,19.72 -7.91,22.6c-1.81,2.81 -3.13,3.67 -4.09,5.65z" fill="#ffffff" stroke-width="0.625" fill-rule="evenodd"/>
    <path stroke="#000000" id="path2791" d="m645.48145,340.62021c1.02,2.06 11.7,3.88 13.71,1.63" fill="none" stroke-width="0.625"/>
    <path stroke="#000000" id="path1912" d="m765.69145,345.14021c6.02,-2.51 10.07,-5.34 12.43,-7.62c1.87,-1.13 3.5,-0.02 3.53,1.55c-0.01,19.18 -4.95,42.24 -7.35,45.62" fill="none" stroke-width="0.625"/>
    <path stroke="#000000" id="path2801" d="m780.13145,337.12021c-1.07,-12.64 -2.57,-29.82 -11.48,-36.47c-3.44,-2.57 -7.65,-2.16 -11.72,-0.99c-6.41,1.84 -12.82,4.16 -19.21,5.93c-1.86,0.41 -3.41,0.39 -4.8,0.15" fill="none" stroke-width="0.625"/>
    <path stroke="#000000" id="path1906" d="m645.85145,284.49021c24.98,1.17 43.79,1.99 61.63,4.79c17.83,2.8 34.86,6.54 51.33,9.89" fill="none" stroke-width="0.625"/>
    <path stroke="#000000" id="path2795" d="m753.65145,298.04021c-6.38,0.21 -11.71,1.62 -16.95,2.82c-1.86,0.41 -3.35,0.44 -4.74,0.19" fill="none" stroke-width="0.625"/>
    <path stroke="#000000" id="path2797" d="m763.98145,320.09021c0.98,2.23 1.89,5.23 3.97,4.49c1.32,-0.46 3,-1.02 3.63,-1.68c2.01,-2.13 1.36,-5.56 -0.09,-10.36c-0.81,-2.7 -2.5,-5.46 -4.55,-7.92c-1.81,-2.28 -3.99,-2.66 -6.14,-2.26c-1.3,0.25 -2.25,0.65 -3.89,1.25c-1.01,0.38 -2.42,1.23 0.26,4.55c2.57,3.19 4.92,7.67 6.81,11.93z" fill="none" stroke-width="0.625"/>
    <path stroke="#000000" id="path2809" d="m694.64145,315.48021c-0.16,-1.65 -0.05,-3.03 1.41,-5.37c1.27,-3.27 1.54,-6.65 0.78,-9.81c-1.88,-7.82 -1.7,-19.23 -12.23,-25.9c-8.98,-5.7 -22.53,-2.59 -26.56,2.4m21.07,28.36c2.05,-0.78 3.27,-3.24 3.34,-4.99c0.21,-5.89 -0.34,-11.53 -3.31,-16.34c-1.92,-3.1 -3.75,-3.16 -6.07,-2.82m-5.95,21.66c-5.29,-0.69 -3.49,-9.64 -1.28,-13.85c2.56,-4.9 4.92,-6.6 7.23,-7.81" fill="#ffffff" stroke-width="0.625" fill-rule="evenodd"/>
    <path stroke="#000000" id="path2802" d="m658.41145,288.26021c-2.8,3.53 -3.48,7.67 -3.67,10.12c-0.42,5.38 1.89,5.95 4,6.38c6.86,1.42 8.02,-0.8 8.68,-2.69c1.93,-5.45 0.69,-10.56 -1.34,-13.71c-1.81,-2.81 -5.27,-2.31 -7.67,-0.1zm-12.91,8.92c1.73,-5.69 2.88,-10.57 8,-16.76c2.85,-3.15 6.26,-5.2 11.23,-4.12c2.68,0.62 5.35,1.21 8.29,4.69c2.55,2.34 4.68,10.62 5.09,12.99c0.86,4.9 1.33,10.07 5.29,13.18c3.75,2.3 4.02,6.59 4.1,10.99" fill="#ffffff" stroke-width="0.625" fill-rule="evenodd"/>
    <path stroke="#000000" id="path2813" d="m708.47145,344.81021c-0.11,-2.75 -0.95,-5.48 3.1,-8.29c4.39,-3.04 7.46,-4.46 9.09,-1.99c3.81,5.78 1.44,7.06 0.4,7.89c-2.57,2.02 -4.7,3.85 -8.79,4.99c-2.7,0.75 -3.71,-0.37 -3.8,-2.6z" fill="none" stroke-width="0.625"/>
    <path stroke="#000000" id="path3700" d="m710.58145,343.55021c-0.08,-2.08 -0.69,-4.14 2.26,-6.27c3.19,-2.31 5.43,-3.38 6.62,-1.51c2.77,4.37 1.05,5.35 0.29,5.97c-1.87,1.53 -3.42,2.91 -6.4,3.78c-1.97,0.57 -2.7,-0.29 -2.77,-1.97z" fill="none" stroke-width="0.625"/>
    <path stroke="#000000" id="path3704" d="m710.47145,343.32021c2.66,-1.13 5.78,-3.81 7.89,-3.1c0.97,0.33 1,0.9 1.2,1.6" fill="none" stroke-width="0.625"/>
    <path stroke="#000000" id="path1914" d="m408.69145,422.81021c5.32,0.76 10.38,-0.09 14.28,2.31" fill="none" stroke-width="0.625"/>
    <g stroke="#000000" id="g6480" transform="matrix(0.98421 -0.04257 -0.073418 1.11 25.485 -25.597)" stroke-width="0.38324">
     <path stroke="#000000" id="path4700" d="m330.95601,415.60698c0.58,-1 1.36,-1.11 2.2,-1.06c2.5,0.4 5.64,1.07 8.04,1.82c1.04,0.4 1.44,0.94 1.34,1.92c-0.25,1.61 -0.82,3.08 -1.39,4.69c-0.52,1.09 -1.06,1.5 -2.15,1.4c-2.82,-0.51 -5.45,-1.12 -7.54,-1.67c-1.4,-0.43 -1.43,-1.05 -1.48,-1.8c0.12,-1.72 0.48,-3.67 0.98,-5.3z" fill="none" stroke-width="0.38324"/>
    </g>
   </g>
  </g>
  <line stroke="#000" fill="none" opacity="undefined" x1="718.23735" y1="443.40782" x2="161.7821" y2="721.81287" id="svg_1" stroke-linejoin="undefined" stroke-linecap="undefined" stroke-width="3" stroke-dasharray="5,5"/>
  <line stroke="#000" fill="none" stroke-width="3" stroke-dasharray="5,5" stroke-opacity="null" fill-opacity="null" opacity="undefined" x1="721.59861" y1="430.36142" x2="232.29113" y2="373.80584" id="svg_4" stroke-linejoin="undefined" stroke-linecap="undefined"/>
  <line stroke="#000" fill="none" stroke-width="3" stroke-dasharray="5,5" stroke-opacity="null" fill-opacity="null" opacity="undefined" x1="723.72624" y1="428.23378" x2="723.72624" y2="813.9395" id="svg_5" stroke-linejoin="undefined" stroke-linecap="undefined"/>
  <text stroke="#000" fill="#000000" stroke-width="0" stroke-dasharray="2,2" stroke-opacity="null" fill-opacity="null" opacity="undefined" x="608.6318" y="840.1288" id="svg_12" font-size="24" font-family="sans-serif" text-anchor="start" xml:space="preserve">Yaw (α)</text>
  <text stroke="#000" fill="#000000" stroke-width="0" stroke-dasharray="2,2" stroke-opacity="null" fill-opacity="null" opacity="undefined" x="179.27452" y="759.09285" id="svg_13" font-size="24" font-family="sans-serif" text-anchor="start" xml:space="preserve">Roll (γ)</text>
  <text stroke="#000" fill="#000000" stroke-width="0" stroke-dasharray="2,2" stroke-opacity="null" fill-opacity="null" opacity="undefined" x="203.70293" y="427.49273" id="svg_14" font-size="24" font-family="sans-serif" text-anchor="start" xml:space="preserve">Pitch (β)</text>
  <text stroke="#000" fill="#000000" stroke-width="0" stroke-dasharray="2,2" stroke-opacity="null" fill-opacity="null" opacity="undefined" x="717.01527" y="838.50978" id="svg_16" font-size="24" font-family="sans-serif" text-anchor="start" xml:space="preserve">y</text>
  <text stroke="#000" fill="#000000" stroke-width="0" stroke-dasharray="2,2" stroke-opacity="null" fill-opacity="null" opacity="undefined" x="142.70897" y="721.94968" id="svg_17" font-size="24" font-family="sans-serif" text-anchor="start" xml:space="preserve">z</text>
  <text stroke="#000" fill="#000000" stroke-width="0" stroke-dasharray="2,2" stroke-opacity="null" fill-opacity="null" opacity="undefined" x="201.6668" y="373.28707" id="svg_18" font-size="24" font-family="sans-serif" text-anchor="start" xml:space="preserve">x</text>
  <path stroke="#000000" fill="#722525" stroke-width="0" stroke-dasharray="2,2" fill-opacity="0" opacity="NaN" d="m-219.76286,1207.43915" id="svg_21"/>
  <path stroke="#000000" fill="#722525" stroke-width="0" stroke-dasharray="2,2" fill-opacity="0" opacity="NaN" d="m115.11936,1016.74233" id="svg_22"/>
  <path id="svg_6" d="m-37.12992,308.93683" opacity="NaN" fill-opacity="null" stroke-opacity="null" stroke-dasharray="2,2" stroke-width="0" stroke="#000" fill="#000000"/>
  <path id="svg_7" d="m65.53722,192.9363" opacity="NaN" fill-opacity="null" stroke-opacity="null" stroke-dasharray="2,2" stroke-width="0" stroke="#000" fill="#000000"/>
  <path id="svg_8" d="m70.87057,196.93631l214.46407,-64.93571" opacity="NaN" fill-opacity="null" stroke-opacity="null" stroke-dasharray="2,2" stroke-width="0" stroke="#000" fill="#000000"/>
  <path transform="rotate(-89.1284 337.042 385.304)" opacity="0.7" id="svg_23" d="m367.70925,389.57419c0,-10.92402 -27.46,-19.7797 -61.33361,-19.7797l0,-15.82376l0,0c33.87361,0 61.33361,8.85567 61.33361,19.7797l0,15.82376c0,9.01951 -18.92029,16.89674 -46.00021,19.15161l0,7.91188l-15.3334,-15.19567l15.3334,-16.45185l0,7.91188l0,0c18.2602,-1.52048 33.33616,-5.66556 40.87979,-11.23973" fill-opacity="null" stroke-opacity="null" stroke-dasharray="2,2" stroke-width="0" stroke="#000" fill="#000000"/>
  <path transform="rotate(-88.7252 227.612 695.745)" opacity="0.7" stroke-width="0" stroke="#000" id="svg_24" d="m258.27862,690.93458c0,12.30674 -27.46,22.28334 -61.33361,22.28334l0,17.82667l0,0c33.87361,0 61.33361,-9.97659 61.33361,-22.28334l0,-17.82667c0,-10.16117 -18.92029,-19.03546 -46.00021,-21.57575l0,-8.91334l-15.3334,17.11908l15.3334,18.53427l0,-8.91334l0,0c18.2602,1.71294 33.33616,6.38269 40.87979,12.66241" fill-opacity="null" stroke-opacity="null" stroke-dasharray="2,2" fill="#000000"/>
  <path transform="rotate(177.49 725.044 694.639)" opacity="0.7" id="svg_25" d="m755.71105,698.90895c0,-10.92402 -27.46,-19.7797 -61.33361,-19.7797l0,-15.82376l0,0c33.87361,0 61.33361,8.85567 61.33361,19.7797l0,15.82376c0,9.01951 -18.92029,16.89673 -46.00021,19.15161l0,7.91188l-15.3334,-15.19567l15.3334,-16.45185l0,7.91188l0,0c18.2602,-1.52048 33.33616,-5.66556 40.87979,-11.23973" fill-opacity="null" stroke-opacity="null" stroke-dasharray="2,2" stroke-width="0" stroke="#000" fill="#000000"/>
  <path id="svg_27" d="m-110.00829,154.87189c0,-0.25716 -0.6671,-0.46562 -1.49,-0.46562l0,-0.3725l0,0c0.8229,0 1.49,0.20847 1.49,0.46562l0,0.3725c0,0.21232 -0.45964,0.39776 -1.1175,0.45084l0,0.18625l-0.3725,-0.35771l0.3725,-0.38729l0,0.18625l0,0c0.4436,-0.03579 0.80985,-0.13337 0.99311,-0.26459" fill-opacity="null" stroke-opacity="null" stroke-dasharray="2,2" stroke-width="0" stroke="#000" fill="#000000"/>
 </g>
</svg>