<?xml version="1.0" encoding="UTF-8"?>
<svg xmlns="http://www.w3.org/2000/svg" xmlns:xlink="http://www.w3.org/1999/xlink" width="225.404pt" height="164.414pt" viewBox="0 0 225.404 164.414" version="1.2">
<defs>
<clipPath id="clip1">
  <path d="M 0.101562 0 L 224.707031 0 L 224.707031 163.832031 L 0.101562 163.832031 Z M 0.101562 0 "/>
</clipPath>
</defs>
<g id="surface1">
<path style=" stroke:none;fill-rule:nonzero;fill:rgb(84.999084%,84.999084%,84.999084%);fill-opacity:1;" d="M 188.878906 160.851562 L 3.082031 93.222656 L 35.929688 2.980469 L 221.726562 70.605469 Z M 188.878906 160.851562 "/>
<g clip-path="url(#clip1)" clip-rule="nonzero">
<path style="fill:none;stroke-width:4.98138;stroke-linecap:butt;stroke-linejoin:miter;stroke:rgb(50%,50%,50%);stroke-opacity:1;stroke-miterlimit:10;" d="M 23.472414 -31.480865 L -162.986673 36.389082 L -130.021942 126.952908 L 56.437145 59.086881 Z M 23.472414 -31.480865 " transform="matrix(0.996448,0,0,-0.996448,165.489855,129.482502)"/>
</g>
<path style=" stroke:none;fill-rule:nonzero;fill:rgb(50%,50%,50%);fill-opacity:0.5;" d="M 163.074219 110.105469 L 152.914062 106.40625 C 149.246094 105.074219 147.359375 101.019531 148.691406 97.355469 C 150.027344 93.691406 154.078125 91.800781 157.742188 93.136719 L 178.066406 100.53125 C 181.730469 101.867188 183.621094 105.917969 182.289062 109.585938 C 180.953125 113.25 176.902344 115.136719 173.238281 113.804688 Z M 163.074219 110.105469 "/>
<path style="fill-rule:nonzero;fill:rgb(100%,100%,100%);fill-opacity:1;stroke-width:0.79701;stroke-linecap:butt;stroke-linejoin:miter;stroke:rgb(0%,0%,100%);stroke-opacity:1;stroke-miterlimit:10;" d="M -2.424246 21.688435 L -12.620615 25.400838 C -16.301657 26.737617 -18.1951 30.802836 -16.858321 34.483878 C -15.517622 38.161 -11.452403 40.058364 -7.775281 38.717665 L 12.621376 31.292858 C 16.298498 29.956079 18.195862 25.89086 16.859083 22.209818 C 15.518384 18.532696 11.453165 16.635333 7.776043 17.976032 Z M -2.424246 21.688435 " transform="matrix(0.996448,0,0,-0.996448,165.489855,129.482502)"/>
<path style=" stroke:none;fill-rule:nonzero;fill:rgb(50%,50%,50%);fill-opacity:0.5;" d="M 58.703125 57.792969 L 69.476562 56.847656 C 73.359375 56.507812 76.785156 59.382812 77.125 63.269531 C 77.464844 67.152344 74.59375 70.578125 70.707031 70.917969 L 49.160156 72.804688 C 45.277344 73.144531 41.851562 70.269531 41.511719 66.382812 C 41.171875 62.5 44.046875 59.074219 47.929688 58.734375 Z M 58.703125 57.792969 "/>
<path style="fill-rule:nonzero;fill:rgb(100%,100%,100%);fill-opacity:1;stroke-width:0.79701;stroke-linecap:butt;stroke-linejoin:miter;stroke:rgb(0%,0%,100%);stroke-opacity:1;stroke-miterlimit:10;" d="M -107.167336 74.187386 L -96.3555 75.132147 C -92.458849 75.473202 -89.020858 72.591876 -88.679803 68.691304 C -88.338748 64.794652 -91.220074 61.356661 -95.120646 61.015606 L -116.744318 59.122163 C -120.640969 58.781108 -124.078961 61.666355 -124.420016 65.563006 C -124.761071 69.463578 -121.875824 72.901569 -117.979172 73.242624 Z M -107.167336 74.187386 " transform="matrix(0.996448,0,0,-0.996448,165.489855,129.482502)"/>
<path style=" stroke:none;fill-rule:nonzero;fill:rgb(50%,50%,50%);fill-opacity:0.5;" d="M 151.480469 141.957031 L 141.320312 138.257812 C 137.65625 136.925781 135.765625 132.871094 137.097656 129.207031 C 138.433594 125.542969 142.484375 123.652344 146.148438 124.988281 L 166.472656 132.382812 C 170.140625 133.71875 172.027344 137.769531 170.695312 141.433594 C 169.359375 145.101562 165.308594 146.988281 161.644531 145.65625 Z M 151.480469 141.957031 "/>
<path style="fill-rule:nonzero;fill:rgb(100%,100%,100%);fill-opacity:1;stroke-width:0.79701;stroke-linecap:butt;stroke-linejoin:miter;stroke:rgb(50%,50%,50%);stroke-opacity:1;stroke-miterlimit:10;" d="M -14.059318 -10.276652 L -24.255687 -6.564249 C -27.932809 -5.22747 -29.830172 -1.158331 -28.493393 2.518791 C -27.152694 6.195913 -23.087475 8.093277 -19.410354 6.752578 L 0.986304 -0.672229 C 4.667346 -2.009008 6.56079 -6.074227 5.224011 -9.755269 C 3.883312 -13.432391 -0.181907 -15.329754 -3.859029 -13.989055 Z M -14.059318 -10.276652 " transform="matrix(0.996448,0,0,-0.996448,165.489855,129.482502)"/>
<path style=" stroke:none;fill-rule:nonzero;fill:rgb(50%,50%,50%);fill-opacity:0.5;" d="M 47.109375 89.644531 L 57.882812 88.699219 C 61.769531 88.359375 65.191406 91.234375 65.53125 95.121094 C 65.875 99.003906 63 102.429688 59.113281 102.769531 L 37.566406 104.65625 C 33.683594 104.996094 30.257812 102.121094 29.917969 98.234375 C 29.578125 94.351562 32.453125 90.925781 36.335938 90.585938 Z M 47.109375 89.644531 "/>
<path style="fill-rule:nonzero;fill:rgb(100%,100%,100%);fill-opacity:1;stroke-width:0.79701;stroke-linecap:butt;stroke-linejoin:miter;stroke:rgb(50%,50%,50%);stroke-opacity:1;stroke-miterlimit:10;" d="M -118.802408 42.222299 L -107.990573 43.16706 C -104.090001 43.508115 -100.65593 40.626789 -100.314875 36.726217 C -99.9699 32.829565 -102.855147 29.391574 -106.755718 29.050519 L -128.37939 27.157076 C -132.276042 26.816021 -135.714033 29.701268 -136.055088 33.597919 C -136.396143 37.498491 -133.510896 40.936482 -129.614244 41.277537 Z M -118.802408 42.222299 " transform="matrix(0.996448,0,0,-0.996448,165.489855,129.482502)"/>
<path style=" stroke:none;fill-rule:nonzero;fill:rgb(50%,50%,50%);fill-opacity:0.5;" d="M 174.667969 78.253906 L 164.503906 74.554688 C 160.839844 73.222656 158.949219 69.167969 160.285156 65.503906 C 161.617188 61.839844 165.671875 59.949219 169.335938 61.285156 L 189.660156 68.683594 C 193.324219 70.015625 195.214844 74.066406 193.878906 77.734375 C 192.546875 81.398438 188.496094 83.285156 184.828125 81.953125 Z M 174.667969 78.253906 "/>
<path style="fill-rule:nonzero;fill:rgb(100%,100%,100%);fill-opacity:1;stroke-width:0.79701;stroke-linecap:butt;stroke-linejoin:miter;stroke:rgb(50%,50%,50%);stroke-opacity:1;stroke-miterlimit:10;" d="M 9.210826 53.653522 L -0.989463 57.365925 C -4.666585 58.702704 -6.563948 62.767923 -5.223249 66.448965 C -3.88647 70.126087 0.182669 72.023451 3.859791 70.682752 L 24.256448 63.257945 C 27.93357 61.921166 29.830934 57.852027 28.490235 54.174905 C 27.153456 50.497783 23.088237 48.60042 19.407195 49.941119 Z M 9.210826 53.653522 " transform="matrix(0.996448,0,0,-0.996448,165.489855,129.482502)"/>
<path style=" stroke:none;fill-rule:nonzero;fill:rgb(50%,50%,50%);fill-opacity:0.5;" d="M 70.296875 25.941406 L 81.070312 24.996094 C 84.953125 24.65625 88.378906 27.53125 88.71875 31.417969 C 89.058594 35.300781 86.183594 38.726562 82.300781 39.066406 L 60.753906 40.953125 C 56.867188 41.292969 53.445312 38.417969 53.105469 34.53125 C 52.765625 30.648438 55.636719 27.222656 59.523438 26.882812 Z M 70.296875 25.941406 "/>
<path style="fill-rule:nonzero;fill:rgb(100%,100%,100%);fill-opacity:1;stroke-width:0.79701;stroke-linecap:butt;stroke-linejoin:miter;stroke:rgb(50%,50%,50%);stroke-opacity:1;stroke-miterlimit:10;" d="M -95.532264 106.152473 L -84.720428 107.097234 C -80.823777 107.438289 -77.385785 104.556963 -77.04473 100.656391 C -76.703675 96.755819 -79.588922 93.321748 -83.485574 92.980693 L -105.109246 91.08725 C -109.009817 90.746195 -112.443889 93.631442 -112.784944 97.528093 C -113.125999 101.428665 -110.244672 104.866656 -106.3441 105.207711 Z M -95.532264 106.152473 " transform="matrix(0.996448,0,0,-0.996448,165.489855,129.482502)"/>
<path style="fill:none;stroke-width:1.99255;stroke-linecap:butt;stroke-linejoin:miter;stroke:rgb(0%,0%,100%);stroke-opacity:1;stroke-miterlimit:10;" d="M -0.00157929 28.344888 L -106.551869 67.127155 " transform="matrix(0.996448,0,0,-0.996448,165.489855,129.482502)"/>
</g>
</svg>
