<?xml version="1.0" encoding="UTF-8" standalone="no"?>
<svg
   xmlns:dc="http://purl.org/dc/elements/1.1/"
   xmlns:cc="http://creativecommons.org/ns#"
   xmlns:rdf="http://www.w3.org/1999/02/22-rdf-syntax-ns#"
   xmlns:svg="http://www.w3.org/2000/svg"
   xmlns="http://www.w3.org/2000/svg"
   xmlns:sodipodi="http://sodipodi.sourceforge.net/DTD/sodipodi-0.dtd"
   xmlns:inkscape="http://www.inkscape.org/namespaces/inkscape"
   width="210mm"
   height="297mm"
   viewBox="0 0 210 297"
   version="1.1"
   id="svg8"
   inkscape:version="1.0.1 (3bc2e813f5, 2020-09-07)"
   sodipodi:docname="car_pixabay.svg">
  <defs
     id="defs2" />
  <sodipodi:namedview
     id="base"
     pagecolor="#ffffff"
     bordercolor="#666666"
     borderopacity="1.0"
     inkscape:pageopacity="0.0"
     inkscape:pageshadow="2"
     inkscape:zoom="0.49497475"
     inkscape:cx="256.24821"
     inkscape:cy="695.69802"
     inkscape:document-units="mm"
     inkscape:current-layer="layer1"
     inkscape:document-rotation="0"
     showgrid="false"
     inkscape:window-width="1267"
     inkscape:window-height="1040"
     inkscape:window-x="122"
     inkscape:window-y="0"
     inkscape:window-maximized="0" />
  <metadata
     id="metadata5">
    <rdf:RDF>
      <cc:Work
         rdf:about="">
        <dc:format>image/svg+xml</dc:format>
        <dc:type
           rdf:resource="http://purl.org/dc/dcmitype/StillImage" />
        <dc:title />
      </cc:Work>
    </rdf:RDF>
  </metadata>
  <g
     inkscape:label="Layer 1"
     inkscape:groupmode="layer"
     id="layer1">
    <path
       style="fill:#000000;fill-opacity:1;stroke-width:0.264583"
       d="m 31.625083,105.6756 c 1.004149,-1.13343 3.892126,-2.84696 7.160835,-4.24878 l 2.518385,-1.08004 0.02516,-1.963231 c 0.01382,-1.079779 0.0678,-3.987126 0.119938,-6.460773 0.06506,-3.084247 -0.0053,-4.747413 -0.223859,-5.292719 -0.707409,-1.765054 -0.697222,-22.802648 0.01436,-29.64157 0.798313,-7.672401 1.279893,-10.028512 2.828636,-13.839014 0.62047,-1.526611 1.361811,-4.128663 1.858027,-6.521599 1.128817,-5.44352 2.423916,-8.782911 3.951728,-10.189411 1.535073,-1.413191 6.162726,-4.273651 9.50941,-5.877992 3.710165,-1.778585 9.398172,-3.640506 13.902041,-4.550714 1.524379,-0.30807 2.901815,-0.667212 3.060962,-0.798092 0.645947,-0.531242 5.206354,-1.080366 9.392221,-1.130931 2.401253,-0.02897 3.532289,-0.01433 2.513429,0.0326 -5.617351,0.25877 -11.02939,0.909615 -11.671601,1.40361 -0.159017,0.12232 -1.23188,0.411838 -2.384145,0.643375 -4.139102,0.831716 -10.364477,2.75478 -13.488931,4.166829 -5.529248,2.498863 -10.253375,5.637768 -11.533339,7.663224 -0.905715,1.433241 -2.789777,6.907381 -2.6298,7.640895 0.08163,0.374376 0.201073,0.273215 0.516046,-0.437118 0.494736,-1.115745 1.885881,-2.637442 2.409036,-2.635107 0.208068,9.15e-4 0.528759,-0.276453 0.712658,-0.616403 0.18389,-0.339952 1.010908,-1.061407 1.837814,-1.603234 2.171512,-1.42287 12.061384,-6.186598 16.058594,-7.735065 1.968684,-0.762643 3.880325,-1.697403 4.507794,-2.204244 1.522183,-1.229526 1.842874,-1.359021 4.533375,-1.830561 9.251559,-1.621438 20.20121,-1.836773 29.371613,-0.577617 5.92569,0.813635 6.55566,0.987379 8.53133,2.35296 0.96734,0.66863 3.23209,1.808027 5.03276,2.531996 1.80069,0.723968 3.46731,1.43049 3.70362,1.570049 0.2363,0.139559 1.32615,0.642386 2.42191,1.117394 4.0584,1.759313 10.10443,5.119508 11.18847,6.218214 0.58873,0.596704 1.34565,1.233633 1.68203,1.415396 0.33639,0.181764 0.95833,0.882659 1.38213,1.557545 0.93248,1.484995 0.99141,1.017585 0.22346,-1.772549 -0.72967,-2.651073 -2.07532,-5.307255 -3.18818,-6.293195 -2.31361,-2.049742 -7.39681,-5.023326 -11.67108,-6.827386 -2.73016,-1.152332 -8.14368,-2.816976 -11.53727,-3.547689 -1.79333,-0.38614 -3.91469,-0.872618 -4.71413,-1.081062 -1.29738,-0.338271 -5.74549,-0.819336 -9.784955,-1.058243 -0.800157,-0.04732 -0.145075,-0.0999 1.455745,-0.116831 2.55132,-0.02702 8.26103,0.539329 8.79872,0.872697 0.10602,0.06573 1.9214,0.496292 4.03418,0.95679 4.07284,0.887718 10.00024,2.730656 12.49273,3.884224 4.13732,1.914828 5.55614,2.682733 7.97462,4.316096 3.50464,2.366918 3.9439,2.819857 5.14114,5.301355 0.95361,1.976544 2.07878,5.681153 2.07367,6.827538 -0.003,0.772298 1.64996,6.115352 2.80654,9.069402 1.43508,3.665403 1.93838,7.856782 2.40128,19.997556 0.31262,8.199173 -0.0538,18.403222 -0.76798,21.386343 -0.32574,1.360639 -0.37893,2.88737 -0.275,7.893691 l 0.12887,6.206791 1.30606,0.70995 c 4.13785,2.24926 5.57187,4.04076 5.40359,6.7506 -0.0828,1.3346 -0.11319,1.38366 -0.82255,1.33131 -0.40507,-0.0299 -1.78294,-0.54206 -3.06193,-1.13815 -1.279,-0.59609 -2.40965,-1.08418 -2.51259,-1.08464 -0.10294,-8.7e-4 -0.14881,9.61372 -0.10196,21.36485 0.0783,19.62949 -0.31554,47.1527 -0.93441,65.30502 -0.10955,3.21343 -0.085,8.45235 0.0546,11.64203 0.24318,5.55907 0.1889,7.08804 -0.20104,5.66244 -0.0992,-0.36278 -0.20198,1.5132 -0.22835,4.16887 -0.0304,3.06019 0.049,4.82893 0.21666,4.82968 0.31659,0.002 0.30151,0.18529 0.33625,-4.09959 0.0269,-3.31294 0.0359,-3.36644 0.24671,-1.45412 0.12033,1.09194 0.26747,7.88243 0.32696,15.08996 0.10541,12.76755 0.0937,13.15536 -0.45547,15.07937 -0.5359,1.87769 -0.74794,3.8747 -1.41726,13.34816 -0.30031,4.25066 -0.39014,4.6625 -1.75842,8.06202 -1.17371,2.91613 -2.12534,4.38717 -3.98414,6.15877 -4.54617,4.33289 -11.84339,7.60783 -20.23125,9.07962 -2.43602,0.42742 -5.02497,0.88782 -5.75319,1.02311 -4.73396,0.87931 -25.723837,1.13653 -33.868848,0.41505 -6.311826,-0.55912 -13.042299,-1.9046 -18.444217,-3.68714 -3.924258,-1.29499 -5.48449,-2.00829 -7.274647,-3.32584 -1.666513,-1.22656 -5.231928,-4.72617 -5.858812,-5.75068 -1.339135,-2.18854 -2.969422,-7.46016 -3.515025,-11.36599 -0.203413,-1.45613 -0.483124,-3.18381 -0.62158,-3.83927 -0.138456,-0.65546 -0.42699,-3.22934 -0.641187,-5.71971 -0.293692,-3.41474 -0.556186,-5.00961 -1.067697,-6.48712 l -0.678262,-1.95917 -0.05368,-17.7275 c -0.04203,-13.88298 0.02314,-18.15751 0.300636,-19.71031 0.478015,-2.67503 0.45285,-10.95025 -0.123904,-40.74682 -0.201487,-10.40979 -0.01872,-34.03112 0.383347,-49.542 0.144187,-5.56236 0.112927,-6.54799 -0.20805,-6.54943 -0.207776,-7.2e-4 -2.03035,0.52634 -4.05016,1.17172 -5.746723,1.83619 -5.911818,1.83019 -5.91112,-0.21478 2.02e-4,-0.71913 0.215,-1.22528 0.800074,-1.88568 z m -0.32643,2.93643 c 0.161059,0.25617 0.714748,0.17917 2.444882,-0.34 1.23017,-0.36914 3.548111,-1.06103 5.150984,-1.53752 3.817223,-1.13477 3.743795,-1.0996 4.108347,-1.9687 0.173165,-0.41286 0.662472,-0.89281 1.087322,-1.06658 0.655754,-0.26819 0.773136,-0.46336 0.776832,-1.29158 0.0043,-0.96576 -0.253198,-1.464 -1.080361,-2.09034 -0.86637,-0.656025 -9.253848,3.17408 -11.567872,5.28241 -1.132807,1.03213 -1.470353,2.1372 -0.920134,3.01231 z m 9.850194,-24.270108 c 0.0895,0.89488 0.251669,1.627452 0.360378,1.627937 0.108709,5.06e-4 0.282687,-1.457269 0.386632,-3.239452 0.103955,-1.782184 0.369089,-4.323238 0.589219,-5.646784 0.673008,-4.046492 1.489149,-10.130102 1.770099,-13.194436 0.310184,-3.383308 0.566031,-21.034818 0.302538,-20.873234 -0.365364,0.22405 -1.809836,5.062887 -2.082021,6.974528 -0.467737,3.285139 -0.92477,7.891141 -1.220242,12.297801 -0.178428,2.661116 -0.264536,20.474468 -0.106433,22.053641 z m 0.9453,72.772758 c 0.645787,0.16568 1.470704,0.30256 1.833141,0.30418 l 0.658994,0.003 0.198399,-25.69768 c 0.109185,-14.1337 0.159589,-26.21072 0.111786,-26.83779 -0.08244,-1.08853 -0.114358,-1.12749 -0.705883,-0.86116 -0.340748,0.15342 -0.75835,0.60987 -0.927996,1.01431 -0.169647,0.40445 -0.65425,0.8768 -1.076905,1.04966 l -0.768461,0.3143 -0.108215,7.57593 c -0.0595,4.16675 -0.171464,15.50899 -0.248801,25.205 l -0.140586,17.62906 z m -0.863533,23.04654 c 0.129613,10.47346 0.180131,12.49281 0.539498,21.56617 0.144112,3.63871 0.352133,9.52897 0.462252,13.0895 l 0.200238,6.47368 1.069448,1.00654 c 2.072565,1.95064 1.985077,2.42257 1.836024,-9.90421 -0.395958,-32.74442 -0.509207,-41.18245 -0.637151,-47.47473 -0.159479,-7.84315 0.134768,-6.98956 -2.547166,-7.38897 l -1.275754,-0.18998 0.119824,6.84664 c 0.0659,3.76564 0.170648,10.95457 0.232787,15.97536 z m -0.03843,39.06118 c 0.300719,0.49147 0.614816,0.89389 0.698005,0.89425 0.0832,9e-5 0.08203,-2.47021 -0.0025,-5.49017 -0.250768,-8.95845 -0.445012,-12.54062 -0.667956,-12.31829 -0.296141,0.29532 -0.406331,2.45035 -0.496119,9.70216 -0.07412,5.98649 -0.04951,6.36543 0.468535,7.21205 z m 0.31542,23.25006 c 0.424765,1.40028 0.761424,3.51179 0.992068,6.2222 0.192011,2.25645 0.476899,4.75805 0.633074,5.55914 0.156177,0.80106 0.501988,2.94575 0.768466,4.76596 0.476401,3.25405 1.863906,8.07748 2.933306,10.19716 1.174343,2.32768 6.033343,6.73658 8.932623,8.10517 5.282992,2.49382 15.512215,4.78101 24.278632,5.42861 5.935242,0.43845 20.064027,0.51647 25.531917,0.14096 4.20473,-0.28874 8.57425,-0.87731 13.88901,-1.87083 6.95047,-1.2993 14.67528,-4.92805 18.96777,-8.91019 1.43244,-1.32887 2.66752,-3.41549 3.86332,-6.52696 1.20291,-3.12997 1.53788,-4.922 1.76161,-9.42421 0.25612,-5.15428 0.70504,-9.62574 1.11519,-11.10763 0.74558,-2.69391 0.93632,-24.47003 0.21436,-24.47325 -0.37284,-0.002 -0.44114,0.72097 -0.96236,10.18227 -0.27252,4.94654 -0.59176,10.36251 -0.70945,12.03548 -0.1177,1.67299 -0.36506,5.42239 -0.54971,8.33201 -0.60535,9.539 -1.85896,13.40429 -5.47028,16.86671 -1.9342,1.85446 -2.79788,2.40417 -5.78943,3.68482 -1.25902,0.53896 -1.51898,0.76509 -1.5937,1.38621 -0.10303,0.85614 -0.38946,1.02873 -3.87242,2.3332 -2.50972,0.93996 -8.46352,2.49939 -11.31861,2.96459 -1.52164,0.24793 -4.40517,0.47691 -12.87574,1.02244 -2.132,0.13733 -7.969332,0.2314 -12.971842,0.20907 -8.146129,-0.0364 -9.646843,-0.11266 -14.377921,-0.73089 -6.596428,-0.86198 -9.306135,-1.54104 -16.080074,-4.02974 -3.394008,-1.24694 -3.601267,-1.37086 -3.597785,-2.15096 0.0024,-0.53607 -0.249641,-0.76894 -1.383379,-1.27819 -3.302312,-1.48334 -5.613169,-3.46986 -6.510117,-5.59641 -1.241029,-2.94233 -2.737515,-8.9287 -3.25138,-13.00646 -0.981023,-7.78491 -1.275603,-11.74889 -1.734975,-23.34616 -0.304484,-7.68689 -0.366923,-8.32353 -0.902234,-9.1984 -0.316316,-0.51695 -0.632089,-0.94015 -0.701719,-0.94047 -0.0696,-2.3e-4 -0.06912,4.73248 0.0012,10.5173 0.123575,10.17688 0.148556,10.58657 0.770662,12.63742 z M 42.716299,99.87367 c 0.752389,-0.123664 1.101519,-0.05988 1.354219,0.24737 0.187266,0.2277 0.444965,0.41447 0.572664,0.41504 0.273187,0.001 0.30935,-2.412256 0.08247,-5.505025 l -0.161286,-2.198781 -1.005097,-0.518431 c -1.846337,-0.952339 -1.817747,-1.008349 -1.838325,3.602192 l -0.01841,4.124255 z m 0.808246,-7.908489 c 0.889802,0.449833 1.752068,1.124678 2.083702,1.630793 l 0.565752,0.863404 0.68221,-1.152278 c 0.645533,-1.090332 2.165128,-2.629655 2.80262,-2.838995 0.204271,-0.06708 0.139163,-0.972784 -0.216236,-3.008151 -0.489454,-2.803079 -1.108107,-16.242328 -0.84055,-18.259646 0.05785,-0.436309 0.264687,-7.638739 0.459592,-16.0054 0.194905,-8.366661 0.423442,-15.449931 0.50786,-15.740599 0.137424,-0.473179 0.07875,-0.460068 -0.560274,0.125278 -1.467655,1.344291 -2.435831,3.640047 -3.064635,7.26695 -0.176475,1.017868 -0.449403,2.560484 -0.606517,3.428034 -0.157104,0.867551 -0.341732,4.617232 -0.410285,8.332627 -0.134087,7.267276 -0.270609,8.837823 -1.368672,15.745633 -1.157534,7.282001 -1.370954,9.506418 -1.487568,15.504782 l -0.06491,3.340176 z M 42.821291,233.35012 c 0.195966,3.85721 0.415733,7.60869 0.488375,8.33663 0.07265,0.72793 0.195319,2.09771 0.272626,3.04396 0.558467,6.83556 1.347363,11.95097 2.47039,16.01847 1.552085,5.62155 2.215421,6.80226 4.793039,8.5314 1.733248,1.16273 4.074855,2.36955 4.23096,2.18057 0.03991,-0.0483 0.338083,-1.93815 0.66251,-4.19952 0.550966,-3.84049 1.064391,-6.42803 1.649664,-8.31395 0.135288,-0.43598 0.684779,-2.85241 1.22109,-5.36987 0.536302,-2.51747 1.089354,-4.87375 1.229013,-5.23619 0.139649,-0.36245 0.625763,-2.58487 1.080254,-4.93872 1.53937,-7.97266 1.614036,-9.77079 1.784199,-42.96602 0.08519,-16.62274 0.09961,-30.315 0.03203,-30.42725 -0.0676,-0.11227 -0.189185,-2.76429 -0.270199,-5.89338 -0.759723,-29.34238 -1.211554,-33.04227 -6.19098,-50.69584 -1.047524,-3.7138 -2.900853,-10.35218 -3.624057,-12.98089 -0.360761,-1.31131 -0.894364,-3.218711 -1.185774,-4.238668 -0.29141,-1.019957 -0.715805,-2.599445 -0.943103,-3.509974 -0.445686,-1.78538 -0.782749,-2.00712 -1.813214,-1.192845 -0.316399,0.250016 -0.951532,1.093873 -1.411404,1.87524 l -0.836149,1.420665 0.653849,1.885846 c 0.597406,1.723039 1.520562,4.712466 3.936839,12.748526 1.668686,5.54971 2.958452,10.08166 3.769745,13.24612 0.448222,1.74826 0.922805,3.53634 1.054636,3.9735 0.318381,1.05574 1.179834,6.29064 1.525042,9.26732 1.189983,10.26112 1.585651,26.46774 1.259755,51.59988 -0.449855,34.69182 -0.665921,38.0286 -3.297037,50.91809 -1.015689,4.97571 -1.306055,6.0094 -2.932178,10.43806 -1.779368,4.84604 -2.50087,5.824 -3.840975,5.20616 -1.45483,-0.67072 -1.674176,-1.6289 -2.348956,-10.26092 -0.424657,-5.43244 -0.889306,-15.22917 -0.869201,-18.32646 0.01173,-1.7318 -0.03804,-1.91842 -0.507503,-1.92051 -0.285973,-8.6e-4 -0.939161,-0.37372 -1.451531,-0.82765 l -0.931575,-0.82532 -0.0079,2.21021 c -0.0046,1.21561 0.152087,5.3661 0.348066,9.22332 z M 45.159765,47.224309 c 0.901773,-4.685786 1.11746,-5.614322 1.599204,-6.884603 0.295086,-0.778101 1.049985,-1.983749 1.677545,-2.679216 1.039914,-1.15245 1.156202,-1.422665 1.312365,-3.049679 0.09428,-0.981856 0.07277,-1.785631 -0.04763,-1.786169 -0.539723,-0.0024 -1.593642,1.144257 -2.345925,2.55238 -1.285371,2.405927 -2.037134,5.364626 -2.237068,8.804362 -0.248635,4.277534 -0.245163,4.532367 0.04152,3.042925 z m -0.07788,77.298351 -0.205111,27.29103 0.874066,0.6727 c 2.226823,1.71384 8.193771,4.13609 11.331472,4.59997 l 1.213641,0.17943 -0.0819,-4.19129 c -0.113332,-5.79936 -0.975933,-16.39561 -1.709529,-20.99975 -0.633141,-3.97373 -2.370125,-10.98501 -4.429443,-17.87933 -0.652881,-2.18574 -1.519313,-5.10667 -1.925389,-6.49095 -2.103033,-7.16888 -3.41885,-11.1717 -4.16124,-12.658831 -0.453322,-0.908081 -0.894129,-1.651371 -0.979568,-1.651753 -0.0854,-3.62e-4 -0.05776,0.862954 0.06144,1.918522 0.1192,1.05557 0.124417,14.200172 0.01161,29.210252 z m 1.652985,33.63429 c 1.510591,0.57462 4.874211,1.46714 9.863487,2.61723 1.802673,0.41553 1.834687,0.38339 1.72322,-1.73022 l -0.07487,-1.41914 -1.718494,-0.29412 c -0.945178,-0.16176 -2.372375,-0.51265 -3.171551,-0.77976 -1.64714,-0.55051 -6.950886,-3.10166 -7.864605,-3.78294 l -0.603357,-0.44988 0.06463,2.59286 0.06463,2.59287 z m -1.503166,5.08862 c 0.0589,2.6e-4 1.695208,0.17894 3.636283,0.39708 1.941076,0.21813 4.868306,0.48464 6.504951,0.59224 l 2.975717,0.19565 0.0066,-1.4682 c 0.0065,-1.44605 -0.0065,-1.47078 -0.852599,-1.63786 -3.641158,-0.71894 -9.95505,-2.44191 -12.024014,-3.28118 -0.251019,-0.10183 -0.332989,0.5054 -0.342044,2.53394 -0.0065,1.46731 0.0363,2.66807 0.09515,2.66833 z m 0.08498,23.68082 c 0.133096,8.14986 0.319775,14.90774 0.414835,15.01754 0.261127,0.30158 5.546815,0.95903 9.188372,1.14286 l 3.225404,0.16283 0.0348,-19.24544 0.0348,-19.24544 -1.454888,-0.0751 c -2.225781,-0.11484 -10.370181,-0.91272 -11.041633,-1.0817 l -0.594657,-0.14967 -0.02432,4.3281 c -0.01362,2.38045 0.08438,10.99614 0.217466,19.14599 z m 0.995362,36.32212 c 0.407147,0.0552 0.895659,-0.49058 2.122757,-2.3718 1.150454,-1.7637 2.700863,-3.53893 5.572625,-6.38074 l 3.978712,-3.9372 0.02761,-3.451 0.0276,-3.45099 -4.628771,-0.33275 c -2.545828,-0.18302 -5.31424,-0.44651 -6.152048,-0.58553 l -1.523277,-0.25278 0.02302,10.34552 c 0.02253,10.11973 0.03452,10.34709 0.55186,10.41727 z m -0.295911,9.58669 c 0.206051,7.93803 1.093068,18.85642 1.611444,19.8355 0.159021,0.30035 0.586161,0.74261 0.949183,0.98281 0.625438,0.41379 0.692582,0.4064 1.280611,-0.14112 0.728857,-0.67862 1.060312,-1.4095 2.649211,-5.84182 1.586833,-4.42652 2.739324,-9.54359 4.224368,-18.75634 0.699711,-4.34076 1.440897,-17.45624 0.986612,-17.45827 -0.160334,-2.4e-4 -1.954443,1.69232 -3.986892,3.76228 -2.451861,2.49714 -4.188512,4.53468 -5.160827,6.05505 -1.066484,1.66759 -1.61553,2.29279 -2.01669,2.29639 -0.866216,0.008 -0.963093,0.27645 -0.812312,2.25276 0.07775,1.01901 0.201628,4.17474 0.275292,7.01276 z m 3.328816,-148.896371 0.160032,1.207586 4.811353,-3.169245 c 5.61015,-3.695409 9.346789,-5.535166 14.029381,-6.907456 l 3.370902,-0.987881 0.0061,-1.198515 c 0.0091,-1.814414 0.541896,-12.056049 0.860336,-16.540687 0.311569,-4.388014 1.04235,-18.329253 1.298289,-24.767732 0.163974,-4.125123 0.16293,-4.13548 -0.432322,-4.297839 -1.098842,-0.299718 -1.938341,-0.180926 -4.188486,0.592691 -6.646675,2.285178 -16.278779,6.704908 -18.741029,8.599398 -0.589811,0.45381 -0.600903,0.575228 -0.911992,9.982172 -0.549142,16.605679 -0.67366,34.385157 -0.262523,37.487508 z m 0.644819,4.516302 c 0.176184,0.983062 0.419815,1.787829 0.541394,1.788372 0.121589,5.65e-4 1.441797,-0.578673 2.933794,-1.287141 8.668428,-4.116156 16.443776,-6.067805 28.567389,-7.170548 3.706321,-0.337121 6.557413,-0.391522 13.891951,-0.265065 9.630602,0.166041 13.835792,0.547637 20.862582,1.893153 5.09425,0.975467 13.40528,3.778708 17.70633,5.972197 0.72911,0.371832 1.6465,0.799692 2.03865,0.950792 0.67717,0.260928 0.72561,0.225406 0.96393,-0.706889 0.138,-0.539892 0.32675,-1.590716 0.41944,-2.335173 l 0.16855,-1.353555 -3.49962,-2.387586 c -5.99966,-4.093229 -11.4745,-6.78084 -16.9788,-8.334919 -6.4597,-1.823828 -11.33126,-2.30584 -23.922612,-2.367001 -11.699822,-0.05682 -16.268508,0.303958 -22.233057,1.755738 -6.423042,1.563377 -10.364989,3.350614 -17.041376,7.726381 -4.120896,2.700872 -4.934414,3.33714 -4.845613,3.78983 0.05867,0.299215 0.250874,1.348352 0.427068,2.331414 z m 0.07801,-52.189234 c 0.0786,3.37e-4 0.466586,-0.21758 0.86207,-0.484291 1.732071,-1.168093 4.125383,-2.462561 6.083286,-3.290258 1.162516,-0.491448 2.340465,-1.026431 2.617663,-1.188851 0.611334,-0.358197 4.78566,-2.032741 8.622634,-3.459005 2.787112,-1.036012 2.81925,-1.057769 2.982694,-2.01958 0.189571,-1.115496 0.240831,-4.014687 0.07102,-4.015445 -0.182228,-7.99e-4 -5.182089,1.944131 -6.777365,2.636392 -3.013637,1.307752 -10.844096,5.257853 -12.411509,6.26103 -1.583088,1.013213 -1.732458,1.230283 -2.005417,2.914348 -0.173067,1.067705 -0.199927,2.644968 -0.04501,2.64566 z m 0.952166,57.068019 0.261282,0.840417 1.774425,-0.485633 c 0.975931,-0.2671 3.324424,-0.974793 5.218881,-1.572649 12.998919,-4.102236 23.017207,-5.694922 35.612084,-5.661536 6.757662,0.01791 16.848112,1.063284 21.553792,2.232971 1.16289,0.289058 3.36321,0.816564 4.88961,1.172231 1.5264,0.355669 4.79655,1.272001 7.26703,2.036293 2.47047,0.764293 5.39103,1.663056 6.49014,1.997253 l 1.99839,0.607632 0.55454,-1.67459 c 0.39795,-1.201751 0.4703,-1.728856 0.2562,-1.86678 -0.48434,-0.312042 -4.57327,-2.152703 -7.5601,-3.403241 -2.63138,-1.10172 -8.62939,-2.971483 -11.4935,-3.582871 -11.87418,-2.534744 -30.689032,-2.915625 -43.737093,-0.885402 -8.10542,1.26117 -12.317013,2.542918 -21.050044,6.406329 l -2.589899,1.145749 0.146485,0.926705 c 0.08052,0.509687 0.264068,1.304892 0.407777,1.767122 z m 3.479864,12.405574 c 0.468071,1.74836 1.155451,4.19224 1.527506,5.43084 0.590778,1.9667 1.067006,3.70899 2.642919,9.66918 0.192621,0.72846 0.605857,2.49801 0.918308,3.93232 0.524597,2.40819 0.611592,2.59773 1.136451,2.47594 0.815232,-0.18918 1.389411,-0.34209 3.523644,-0.93843 3.377245,-0.94365 8.884327,-2.04761 12.272983,-2.46028 10.302992,-1.25467 26.745809,-1.07977 35.585119,0.3785 4.73331,0.78088 11.84666,2.47625 13.72624,3.27147 0.50251,0.2126 0.96736,0.29854 1.03301,0.19099 0.0657,-0.10754 0.61805,-2.15786 1.22756,-4.55626 0.60951,-2.3984 1.71385,-6.44163 2.4541,-8.98496 0.74024,-2.54333 1.90104,-6.52679 2.57956,-8.85212 2.14314,-7.344696 2.79268,-9.766113 2.72467,-10.157186 -0.0364,-0.208981 -0.60104,-0.530276 -1.25491,-0.713987 -3.18574,-0.895091 -8.73053,-2.594536 -9.9081,-3.036774 -0.7264,-0.272799 -2.80757,-0.820053 -4.62483,-1.216119 -1.81726,-0.396065 -3.60127,-0.833308 -3.96445,-0.97165 -1.83526,-0.699074 -11.73043,-1.953525 -18.378333,-2.3299 -6.663942,-0.377282 -20.281436,0.673106 -25.916351,1.999061 -0.88616,0.208523 -2.922245,0.680251 -4.524634,1.048285 -1.602388,0.368034 -4.165395,1.0696 -5.695555,1.559035 -4.886775,1.563075 -8.58739,2.685122 -9.420283,2.856277 l -0.809229,0.166292 1.146792,4.030326 c 0.630733,2.21668 1.529752,5.4608 1.997813,7.20915 z m 3.169876,166.76476 c 3.157582,1.25442 8.36063,2.63317 12.930175,3.42634 7.328525,1.27206 26.457532,1.8936 35.003809,1.13733 9.77589,-0.86509 18.2755,-2.51111 22.77408,-4.4104 l 1.8556,-0.78342 0.0869,-1.63735 c 0.0788,-1.48385 0.0422,-1.62042 -0.38962,-1.4569 -1.60831,0.60896 -7.02105,2.09867 -9.55999,2.63115 -8.73688,1.83235 -15.59764,2.41694 -27.849379,2.37297 -10.990696,-0.0391 -13.758563,-0.23827 -22.085839,-1.58651 -4.82628,-0.78139 -11.33388,-2.57492 -13.669541,-3.76738 -0.672464,-0.34334 -0.728623,-0.32809 -0.850629,0.23084 -0.65944,3.02095 -0.735586,2.85413 1.754374,3.84333 z m 0.982053,1.85881 c 5.278562,2.03008 11.901686,3.90132 12.324651,3.48211 0.08457,-0.0838 -0.08581,-0.49201 -0.378616,-0.90712 -0.453017,-0.64227 -0.841059,-0.81079 -2.603528,-1.13071 -2.318485,-0.42084 -9.980171,-2.63906 -11.536837,-3.34016 -1.007086,-0.45358 -1.009878,-0.45317 -0.926668,0.13637 0.06902,0.48912 0.608456,0.79321 3.120998,1.75951 z m -1.49392,-6.15124 c 2.628287,1.08654 7.534091,2.55962 10.172658,3.05457 2.675326,0.50184 3.613052,0.65281 8.527038,1.37268 5.799835,0.84964 19.333638,1.17045 27.671385,0.65593 4.16428,-0.25698 11.22951,-1.14444 15.3295,-1.92551 2.34671,-0.44706 10.45331,-2.63959 11.00286,-2.97584 0.28593,-0.17496 0.26385,-0.73387 -0.12175,-3.08191 -0.25906,-1.57751 -0.63239,-3.40471 -0.82962,-4.06045 -0.81649,-2.71453 -2.49817,-10.5189 -3.25283,-15.09592 -0.44422,-2.69414 -0.8424,-4.94534 -0.88485,-5.00268 -0.0424,-0.0573 -0.94458,0.19577 -2.00474,0.56246 -5.59812,1.93629 -15.26197,2.83808 -30.247904,2.82259 -11.773532,-0.0121 -23.810385,-1.24837 -28.889194,-2.96693 -0.906191,-0.30664 -1.709322,-0.49636 -1.784747,-0.4216 -0.07543,0.0747 -0.449937,1.67213 -0.832252,3.54971 -0.382314,1.8776 -0.924501,4.24623 -1.204855,5.26363 -0.280344,1.01741 -0.826947,3.39624 -1.214657,5.2863 -0.38772,1.89006 -0.954148,4.32834 -1.258747,5.4184 -0.610334,2.18417 -1.230725,5.29503 -1.272716,6.3818 -0.0225,0.58233 0.160008,0.77606 1.095421,1.16277 z m 3.579037,-137.83799 c 0.898133,4.43518 1.55629,13.4485 1.88436,25.80554 0.133298,5.02111 0.31394,10.02259 0.401407,11.1144 0.08743,1.09181 0.07888,15.94496 -0.01907,33.00702 l -0.178063,31.02192 0.721193,0.003 c 0.396654,0.002 2.208375,0.25448 4.026034,0.56151 6.211838,1.04928 11.337355,1.34799 24.203315,1.41052 11.838378,0.0578 20.720298,-0.20165 23.683538,-0.69115 0.80096,-0.1323 3.04611,-0.433 4.98924,-0.6682 l 3.53294,-0.42762 -0.16313,-4.9194 c -1.05128,-31.70558 -0.41358,-69.39972 1.48641,-87.85975 0.38166,-3.70826 0.9679,-7.95755 1.35704,-9.83644 0.1446,-0.69813 0.091,-0.73156 -2.4675,-1.53897 -2.68287,-0.84665 -8.49471,-2.16411 -12.48597,-2.83041 -8.80358,-1.46966 -27.366868,-1.54336 -36.471572,-0.1448 -4.588671,0.70485 -10.502352,2.00705 -13.018154,2.86661 -0.655857,0.22408 -1.341479,0.44942 -1.52361,0.50076 -0.420263,0.11848 -0.416376,0.36333 0.04168,2.6252 z m 5.071809,111.41484 c 1.308187,0.33748 4.81783,0.95179 7.799185,1.36512 5.315174,0.7369 5.688397,0.75289 19.178823,0.82176 9.134197,0.0468 14.736787,-0.0341 16.669977,-0.24018 6.86073,-0.73134 9.26456,-1.15672 12.92515,-2.2872 2.32708,-0.71867 2.33427,-0.72362 2.20252,-1.51538 -0.0727,-0.43689 -0.2681,-2.44466 -0.4342,-4.46173 l -0.30203,-3.6674 -0.95204,0.16452 c -0.52363,0.0905 -3.15598,0.44092 -5.84964,0.77878 -11.87229,1.48911 -40.354434,1.23082 -49.475579,-0.44865 -2.371534,-0.43666 -4.543711,-0.74924 -4.627774,-0.66593 -0.05424,0.0538 -0.16949,0.86903 -0.256038,1.81165 -0.283746,3.09013 -0.754001,6.73569 -0.886068,6.86901 -0.20597,0.20794 1.432863,0.81134 4.007714,1.47561 z M 74.398557,26.764114 c 1.188046,-0.07042 3.589632,-0.301609 5.336846,-0.513762 1.747214,-0.212154 5.756566,-0.524027 8.909662,-0.693052 6.197105,-0.332202 12.981925,-0.04527 19.421485,0.821342 4.47808,0.602647 7.50818,0.768454 7.85011,0.429561 0.299,-0.296336 0.54856,-4.313361 0.30754,-4.949956 -0.14452,-0.381707 -3.13854,-2.509166 -3.53368,-2.51093 -0.12151,-5.65e-4 -0.0503,0.412674 0.15835,0.91826 0.2086,0.505585 0.37608,1.633248 0.37219,2.505919 -0.01,2.120102 -0.18739,2.192104 -3.84345,1.555317 -1.5995,-0.278592 -4.81236,-0.694685 -7.13969,-0.924652 L 98.006413,22.984039 97.2826,22.131869 c -0.469139,-0.552337 -0.72445,-0.707204 -0.725643,-0.440155 -0.0025,0.561924 -0.819862,1.251079 -1.817407,1.532359 -1.24554,0.351207 -2.615336,-0.134477 -3.224239,-1.143206 -0.280847,-0.465271 -0.514262,-0.7269 -0.518691,-0.581397 -0.0046,0.145501 -0.214943,0.526733 -0.467796,0.84718 -0.398709,0.505275 -0.863876,0.61789 -3.503671,0.848216 -4.281569,0.373574 -7.21123,0.736898 -9.617829,1.19276 -1.957614,0.370815 -2.103373,0.36556 -2.606606,-0.09397 -0.724196,-0.661293 -0.551553,-2.928894 0.310994,-4.084723 0.329866,-0.442028 0.539683,-0.8643 0.466253,-0.938385 -0.209807,-0.211686 -1.823756,0.624489 -2.896266,1.500536 l -0.975707,0.796974 -0.08677,2.435831 c -0.06459,1.812156 0.0036,2.493752 0.266241,2.662041 0.194167,0.124414 1.32507,0.168596 2.513127,0.09818 z m -0.09712,251.685046 c 5.930964,0.78754 8.556779,0.90885 17.533989,0.81011 9.010214,-0.0991 20.837564,-0.71875 21.993174,-1.1522 0.31505,-0.11818 0.8477,-0.59729 1.18368,-1.06471 l 0.61088,-0.84983 -0.64284,0.15713 c -0.99687,0.24366 -7.35089,0.90307 -11.89251,1.23418 -7.155904,0.5217 -20.696812,0.12604 -28.92742,-0.84523 -1.868265,-0.22047 -3.451114,-0.40109 -3.517433,-0.40139 -0.0663,-2.7e-4 0.183826,0.40228 0.555882,0.89462 0.638674,0.84514 0.812093,0.91317 3.102598,1.21732 z M 73.106868,73.819856 c 4.475859,-0.726633 6.668306,-0.954176 12.507489,-1.298081 5.521207,-0.325179 7.711027,-0.336027 13.229585,-0.06554 5.670298,0.277928 12.874638,0.988169 15.957498,1.573173 l 0.88237,0.167439 -0.15167,-1.423191 c -0.17786,-1.669016 -0.7366,-13.539157 -1.10711,-23.520388 -0.34445,-9.27881 -0.96287,-21.48824 -1.09976,-21.711945 -0.1173,-0.191709 -0.42872,-0.235294 -7.66143,-1.072256 -6.610646,-0.764981 -16.635199,-0.8137 -23.559118,-0.114454 -7.338331,0.741053 -7.656326,0.799711 -7.71538,1.423203 -0.02739,0.289618 -0.201812,4.097811 -0.387505,8.462652 -0.185704,4.36484 -0.517925,10.971392 -0.738275,14.681226 -0.394195,6.636644 -0.92636,16.201206 -1.089108,19.574501 -0.04562,0.94569 -0.10767,2.121502 -0.137924,2.612914 l -0.05499,0.893475 z m 1.991614,-49.791123 c 0.118452,0.120952 1.510686,0.04265 3.093838,-0.174001 3.075759,-0.420912 6.783177,-0.828822 9.708685,-1.068203 1.632972,-0.133618 1.879921,-0.233671 2.65065,-1.073917 1.132551,-1.234694 2.034564,-1.66127 3.49903,-1.654733 1.496785,0.0067 2.535232,0.524974 3.433565,1.713712 0.649223,0.859094 0.796482,0.917686 2.72086,1.082583 3.23734,0.277404 6.5903,0.686302 9.38075,1.143995 1.42238,0.233302 2.76129,0.357873 2.97537,0.276824 0.80347,-0.304214 0.34169,-3.894773 -0.61304,-4.766564 -0.50031,-0.456859 -2.82212,-0.885174 -8.36307,-1.542783 -4.305094,-0.510933 -15.060711,-0.506406 -19.711696,0.0083 -6.195501,0.685625 -6.963756,0.866418 -7.944843,1.869653 -1.144797,1.170624 -1.589007,3.41023 -0.830099,4.18514 z m 17.473895,-1.337657 c 1.524145,0.82447 4.110014,-0.334409 3.464916,-1.552831 -0.505792,-0.955322 -3.189228,-1.036153 -4.109758,-0.123797 -0.46444,0.460303 -0.16514,1.238476 0.644842,1.676628 z m 21.528203,10.421005 c 0.0758,1.964889 0.23859,5.894717 0.36193,8.732953 0.12337,2.838235 0.3894,9.387926 0.59124,14.554867 0.20182,5.166942 0.47847,10.560076 0.61477,11.984741 0.13631,1.424669 0.24452,3.333825 0.24046,4.242575 l -0.007,1.652272 3.23662,1.019679 c 5.19674,1.6372 13.57778,6.100614 17.9154,9.541032 l 0.95494,0.757422 0.16804,-0.986851 c 0.60716,-3.565462 0.51707,-42.327749 -0.10832,-46.60983 l -0.17119,-1.172065 -2.90355,-1.544264 c -7.64938,-4.068354 -17.26328,-7.977221 -19.64621,-7.987857 -0.69548,-0.0031 -1.35034,0.07943 -1.45526,0.183417 -0.10491,0.103983 -0.1319,0.609884 -0.06,1.124224 0.0718,0.514338 0.19273,2.542797 0.26844,4.507685 z m 1.88461,244.735759 c 3.86203,-0.79247 7.98848,-1.89027 10.0086,-2.66267 1.30721,-0.49983 2.63423,-0.9859 2.94893,-1.08016 0.72419,-0.2169 1.22155,-0.80196 1.10992,-1.30562 -0.071,-0.32082 -0.35893,-0.27511 -1.63866,0.26019 -1.5167,0.63443 -7.75109,2.32893 -10.87988,2.95714 -0.99083,0.19894 -1.74512,0.52336 -2.04567,0.87987 -0.76699,0.90974 -0.6251,1.18146 0.49676,0.95125 z m 2.44012,-250.299889 c 2.85923,1.022335 8.70759,3.452849 11.38297,4.73062 1.35795,0.648574 2.5256,1.179478 2.59477,1.179787 0.0692,3.4e-4 1.30557,0.660677 2.7476,1.467486 1.44203,0.806809 2.6801,1.467185 2.75128,1.467502 0.22935,9.82e-4 0.14461,-2.218667 -0.12199,-3.195223 -0.14216,-0.520768 -0.52545,-1.194795 -0.85174,-1.497837 -1.19487,-1.109728 -14.41822,-7.675467 -17.09446,-8.487844 -0.36332,-0.110285 -1.22484,-0.487282 -1.91451,-0.837772 l -1.25394,-0.637253 -0.0115,2.586485 -0.0116,2.586485 z m 5.6621,196.242899 c 0.19364,6.40385 0.45811,12.59634 0.58771,13.7611 0.31789,2.85725 1.49452,10.21551 1.94757,12.17965 0.20161,0.87402 0.66881,3.01926 1.0382,4.76718 0.36938,1.74792 0.97182,4.31047 1.33873,5.69457 0.69711,2.62967 1.8985,9.39027 1.89715,10.67588 -0.001,0.89183 0.24348,0.85074 2.9681,-0.49894 2.68438,-1.32975 5.03818,-3.65695 6.33006,-6.25853 1.52148,-3.06393 2.06673,-5.58028 2.41254,-11.13379 0.16306,-2.61867 0.42585,-6.36801 0.58398,-8.33185 0.49487,-6.14593 0.80889,-11.07626 1.27848,-20.07374 l 0.15725,-3.01296 -1.03485,0.92657 c -0.56916,0.5096 -1.46776,1.0673 -1.99687,1.2393 l -0.96204,0.31275 -0.007,2.02999 c -0.0171,5.17378 -0.90482,19.57108 -1.47297,23.88742 -0.50083,3.80477 -2.17706,6.07134 -3.25244,4.39787 -0.74294,-1.1561 -5.04194,-13.33935 -5.54616,-15.71768 -0.83005,-3.91508 -1.67181,-10.78505 -1.88136,-15.35438 -0.12018,-2.61993 -0.31982,-14.58673 -0.44374,-26.59286 -0.17398,-16.86206 -0.14039,-25.08016 0.1478,-36.11536 0.42548,-16.29375 0.81254,-21.51392 2.16187,-29.15633 0.69479,-3.93522 2.68672,-11.31723 5.11766,-18.96581 0.69279,-2.17974 1.61957,-5.21173 2.0595,-6.73775 0.43994,-1.52602 1.37572,-4.49041 2.07951,-6.587531 1.23436,-3.678083 1.26585,-3.846399 0.89038,-4.758573 -0.57129,-1.387924 -1.32426,-2.362234 -2.16542,-2.801987 l -0.74321,-0.388546 -0.41913,1.262265 c -0.23051,0.694248 -0.7752,2.623154 -1.21044,4.286462 -0.43523,1.663306 -1.21808,4.45105 -1.73966,6.19499 -1.69389,5.66365 -2.64536,8.92418 -3.54709,12.15512 -0.48674,1.7441 -1.12373,4.00347 -1.4155,5.02082 -0.56733,1.97811 -2.00135,7.86331 -2.44724,10.04334 -1.35025,6.60177 -2.48933,23.58961 -2.97962,44.43715 -0.22037,9.37036 -0.0631,38.26848 0.26794,49.2142 z m 4.56509,-65.99383 c 0.0874,4e-5 1.41784,-0.35992 2.95645,-0.80069 3.53373,-1.01231 7.07963,-2.51658 8.96688,-3.80398 l 1.46461,-0.99912 0.0503,-25.21867 c 0.0501,-25.1106 0.0527,-25.22176 0.59918,-25.93927 0.4678,-0.61416 0.73459,-0.717 1.80599,-0.69619 l 1.25713,0.0244 -0.1583,-1.977683 c -0.0871,-1.087732 -0.15385,-2.969427 -0.14844,-4.181548 l 0.01,-2.203859 -1.39176,0.601902 -1.39177,0.601902 -0.15991,3.553243 -0.15992,3.553243 -0.0462,-3.175236 c -0.046,-3.170263 -0.047,-3.174222 -0.54839,-2.527643 -0.48826,0.629504 -2.14427,5.438249 -4.18893,12.163899 -0.55225,1.81656 -1.53913,5.02687 -2.19304,7.13403 -4.18168,13.47473 -5.54271,20.26206 -6.28155,31.3254 -0.17489,2.61862 -0.35597,5.23721 -0.40242,5.81909 -0.16777,2.1014 -0.19519,6.74608 -0.0401,6.74677 z m 0.24919,3.44072 c 0.79475,0.004 7.38274,-1.5833 10.03845,-2.41795 l 2.64956,-0.83274 0.2463,-2.45351 c 0.13546,-1.34943 0.17829,-2.52214 0.0951,-2.60601 -0.0831,-0.0839 -0.55564,0.15319 -1.05002,0.5268 -1.40322,1.0604 -5.21812,2.69977 -8.62267,3.70537 -1.70758,0.5044 -3.25377,0.96928 -3.43595,1.03311 -0.21089,0.0738 -0.33363,0.64782 -0.33778,1.57955 -0.005,1.16537 0.0798,1.46389 0.41695,1.46538 z m 2.00931,3.27174 c 2.95605,-0.12006 10.26236,-0.80819 10.56803,-0.99522 0.22434,-0.13727 0.33984,-5.12931 0.1187,-5.13029 -0.0674,-2.6e-4 -0.69344,0.22 -1.39126,0.48953 -0.69783,0.26955 -3.47367,0.9863 -6.16853,1.5928 -2.69487,0.6065 -5.04877,1.14308 -5.23089,1.19242 -0.21282,0.0576 -0.33341,0.60075 -0.33752,1.51998 l -0.006,1.43027 z m -2.42368,39.14345 c 0.10886,0.0635 1.03179,0.0196 2.05098,-0.0974 1.01917,-0.11702 3.63908,-0.39712 5.82202,-0.62246 2.18293,-0.22534 4.01463,-0.45495 4.07041,-0.51024 0.29759,-0.29495 1.49698,-38.07058 1.2177,-38.35236 -0.0793,-0.0799 -1.61987,0.0258 -3.42366,0.23421 -1.80378,0.20875 -4.73847,0.45396 -6.52153,0.54491 l -3.2419,0.16536 -0.086,19.2613 c -0.0473,10.59373 0.003,19.31322 0.11195,19.37668 z m 3.62477,10.49581 c 2.31018,2.33325 4.11687,4.4463 5.22313,6.10879 2.07522,3.11867 2.35231,3.47067 2.73344,3.47236 0.2206,5.8e-4 0.3141,-2.80884 0.34828,-10.46742 0.0439,-9.84295 0.019,-10.46118 -0.41687,-10.34198 -0.25497,0.0698 -1.29735,0.19884 -2.3164,0.2869 -3.12926,0.27044 -8.96502,0.92137 -9.12212,1.0175 -0.0818,0.05 -0.11097,1.50074 -0.065,3.22382 l 0.0836,3.1329 z m -3.37136,6.88474 c 0.25176,7.50642 1.52356,17.32177 2.60155,20.07793 0.15164,0.3877 0.78048,2.13593 1.3974,3.88495 3.25221,9.21995 3.6496,10.07164 4.40844,9.44755 1.62777,-1.3387 2.37359,-7.73499 3.04906,-26.14934 0.12546,-3.42012 0.0874,-4.29912 -0.18597,-4.30035 -0.48838,-0.003 -1.2208,-0.86393 -2.9768,-3.50242 -1.61467,-2.42613 -5.66841,-7.01847 -7.45798,-8.44888 l -1.05665,-0.84458 0.002,1.67589 c 0.001,0.92176 0.0996,4.59341 0.21918,8.15925 z m 9.97422,-178.154148 c 0.10186,3.49299 0.14543,13.970796 0.0979,23.284003 -0.0822,15.941139 -0.19258,18.776565 -0.91735,23.556735 -0.15459,1.019584 -0.11294,1.103259 0.87881,1.765954 0.68838,0.459979 1.25908,1.162404 1.68456,2.07335 l 0.64346,1.377693 0.70193,-1.050466 c 0.50913,-0.761948 1.09649,-1.211941 2.13848,-1.638384 l 1.43655,-0.587917 0.17856,-3.237143 c 0.1979,-3.587948 0.11862,-4.508881 -1.20762,-14.032942 -1.10387,-7.926943 -1.51194,-13.827584 -1.29042,-18.65907 0.17969,-3.918889 -0.19167,-6.879379 -1.61463,-12.872205 -0.64652,-2.722848 -0.84034,-3.183002 -1.72612,-4.098266 -0.95397,-0.98572 -1.1999,-1.610998 -0.37072,-0.94257 1.49611,1.206059 2.33992,3.438948 3.24965,8.599192 l 0.35918,2.037277 0.0377,-3.135836 c 0.034,-2.828141 -0.04,-3.372373 -0.75793,-5.546442 -1.22688,-3.716992 -2.91782,-6.547654 -3.91399,-6.552101 -0.0992,-4.11e-4 -0.0932,0.743733 0.0132,1.653722 0.1065,0.90999 0.27691,4.512427 0.37874,8.005417 z m 2.33104,180.590338 c 0.65766,0.003 1.77501,-0.67101 2.70766,-1.63315 l 0.86538,-0.89277 0.20711,-15.33092 c 0.11393,-8.43199 0.34414,-20.27145 0.51165,-26.30987 0.16751,-6.03844 0.31589,-13.40269 0.32974,-16.36502 0.0218,-4.65962 -0.0279,-5.36594 -0.36913,-5.23676 -0.21688,0.0821 -0.97823,0.2241 -1.69192,0.31554 l -1.2976,0.16624 -0.20092,7.17888 c -0.52523,18.76713 -0.90915,30.77313 -1.08817,34.03039 -0.10796,1.96406 -0.23846,8.18456 -0.29004,13.82332 -0.0832,9.10344 -0.0478,10.2525 0.31624,10.25412 z m 2.10764,-119.4755 c 0.36273,0.23999 0.65848,0.66898 0.65721,0.95331 -0.003,0.66106 0.49635,0.9779 4.35334,2.76255 4.11944,1.90611 4.20221,1.9177 4.31548,0.60438 0.19846,-2.30087 -1.39748,-4.43023 -4.55564,-6.07833 -0.72592,-0.37882 -1.67594,-0.93377 -2.11119,-1.23321 -0.43522,-0.29945 -1.0813,-0.54653 -1.43571,-0.54907 -1.69835,-0.0122 -2.6092,2.62355 -1.22349,3.54037 z m -0.17387,53.76457 c 0.40053,-0.0776 1.17505,-0.21587 1.72118,-0.30737 l 0.99293,-0.16635 0.11203,-25.10034 0.11203,-25.10035 -1.06877,-0.55127 c -0.58782,-0.3032 -1.13019,-0.75453 -1.20524,-1.00295 -0.23076,-0.76373 -0.51543,-1.21092 -0.84093,-1.32103 -0.23767,-0.0804 -0.33978,6.26148 -0.43142,26.79267 l -0.12006,26.89801 z m 0.63278,-92.764619 c 0.19653,2.401994 0.47057,5.082151 0.609,5.955903 0.13841,0.873751 0.54525,3.852158 0.90408,6.618684 0.35881,2.766524 0.72822,5.447106 0.82089,5.956847 l 0.1685,0.926804 0.19928,-1.32204 c 0.30455,-2.02046 0.36142,-19.413214 0.0748,-22.872344 -0.13935,-1.681832 -0.37197,-4.546704 -0.51691,-6.36638 -0.37173,-4.666817 -0.65836,-6.128736 -1.64609,-8.395785 l -0.8666,-1.989044 -0.0521,8.560047 c -0.0327,5.307923 0.0836,10.21925 0.3052,12.927308 z"
       id="path903" />
  </g>
</svg>
