<?xml version="1.0" encoding="utf-8" standalone="no"?>
<!DOCTYPE svg PUBLIC "-//W3C//DTD SVG 1.1//EN"
  "http://www.w3.org/Graphics/SVG/1.1/DTD/svg11.dtd">
<svg xmlns:xlink="http://www.w3.org/1999/xlink" width="453.26125pt" height="337.59625pt" viewBox="0 0 453.26125 337.59625" xmlns="http://www.w3.org/2000/svg" version="1.1">
 <metadata>
  <rdf:RDF xmlns:dc="http://purl.org/dc/elements/1.1/" xmlns:cc="http://creativecommons.org/ns#" xmlns:rdf="http://www.w3.org/1999/02/22-rdf-syntax-ns#">
   <cc:Work>
    <dc:type rdf:resource="http://purl.org/dc/dcmitype/StillImage"/>
    <dc:date>2023-03-04T10:52:28.750938</dc:date>
    <dc:format>image/svg+xml</dc:format>
    <dc:creator>
     <cc:Agent>
      <dc:title>Matplotlib v3.7.1, https://matplotlib.org/</dc:title>
     </cc:Agent>
    </dc:creator>
   </cc:Work>
  </rdf:RDF>
 </metadata>
 <defs>
  <style type="text/css">*{stroke-linejoin: round; stroke-linecap: butt}</style>
 </defs>
 <g id="figure_1">
  <g id="patch_1">
   <path d="M 0 337.59625 
L 453.26125 337.59625 
L 453.26125 0 
L 0 0 
z
" style="fill: #ffffff"/>
  </g>
  <g id="axes_1">
   <g id="patch_2">
    <path d="M 43.78125 300.04 
L 446.06125 300.04 
L 446.06125 7.2 
L 43.78125 7.2 
z
" style="fill: #ffffff"/>
   </g>
   <g id="matplotlib.axis_1">
    <g id="xtick_1">
     <g id="line2d_1">
      <defs>
       <path id="mf438960775" d="M 0 0 
L 0 3.5 
" style="stroke: #000000; stroke-width: 0.8"/>
      </defs>
      <g>
       <use xlink:href="#mf438960775" x="43.78125" y="300.04" style="stroke: #000000; stroke-width: 0.8"/>
      </g>
     </g>
     <g id="text_1">
      <!-- 0 -->
      <g transform="translate(40.6 314.638437) scale(0.1 -0.1)">
       <defs>
        <path id="DejaVuSans-30" d="M 2034 4250 
Q 1547 4250 1301 3770 
Q 1056 3291 1056 2328 
Q 1056 1369 1301 889 
Q 1547 409 2034 409 
Q 2525 409 2770 889 
Q 3016 1369 3016 2328 
Q 3016 3291 2770 3770 
Q 2525 4250 2034 4250 
z
M 2034 4750 
Q 2819 4750 3233 4129 
Q 3647 3509 3647 2328 
Q 3647 1150 3233 529 
Q 2819 -91 2034 -91 
Q 1250 -91 836 529 
Q 422 1150 422 2328 
Q 422 3509 836 4129 
Q 1250 4750 2034 4750 
z
" transform="scale(0.015625)"/>
       </defs>
       <use xlink:href="#DejaVuSans-30"/>
      </g>
     </g>
    </g>
    <g id="xtick_2">
     <g id="line2d_2">
      <g>
       <use xlink:href="#mf438960775" x="120.406012" y="300.04" style="stroke: #000000; stroke-width: 0.8"/>
      </g>
     </g>
     <g id="text_2">
      <!-- 2 -->
      <g transform="translate(117.224762 314.638437) scale(0.1 -0.1)">
       <defs>
        <path id="DejaVuSans-32" d="M 1228 531 
L 3431 531 
L 3431 0 
L 469 0 
L 469 531 
Q 828 903 1448 1529 
Q 2069 2156 2228 2338 
Q 2531 2678 2651 2914 
Q 2772 3150 2772 3378 
Q 2772 3750 2511 3984 
Q 2250 4219 1831 4219 
Q 1534 4219 1204 4116 
Q 875 4013 500 3803 
L 500 4441 
Q 881 4594 1212 4672 
Q 1544 4750 1819 4750 
Q 2544 4750 2975 4387 
Q 3406 4025 3406 3419 
Q 3406 3131 3298 2873 
Q 3191 2616 2906 2266 
Q 2828 2175 2409 1742 
Q 1991 1309 1228 531 
z
" transform="scale(0.015625)"/>
       </defs>
       <use xlink:href="#DejaVuSans-32"/>
      </g>
     </g>
    </g>
    <g id="xtick_3">
     <g id="line2d_3">
      <g>
       <use xlink:href="#mf438960775" x="197.030774" y="300.04" style="stroke: #000000; stroke-width: 0.8"/>
      </g>
     </g>
     <g id="text_3">
      <!-- 4 -->
      <g transform="translate(193.849524 314.638437) scale(0.1 -0.1)">
       <defs>
        <path id="DejaVuSans-34" d="M 2419 4116 
L 825 1625 
L 2419 1625 
L 2419 4116 
z
M 2253 4666 
L 3047 4666 
L 3047 1625 
L 3713 1625 
L 3713 1100 
L 3047 1100 
L 3047 0 
L 2419 0 
L 2419 1100 
L 313 1100 
L 313 1709 
L 2253 4666 
z
" transform="scale(0.015625)"/>
       </defs>
       <use xlink:href="#DejaVuSans-34"/>
      </g>
     </g>
    </g>
    <g id="xtick_4">
     <g id="line2d_4">
      <g>
       <use xlink:href="#mf438960775" x="273.655536" y="300.04" style="stroke: #000000; stroke-width: 0.8"/>
      </g>
     </g>
     <g id="text_4">
      <!-- 6 -->
      <g transform="translate(270.474286 314.638437) scale(0.1 -0.1)">
       <defs>
        <path id="DejaVuSans-36" d="M 2113 2584 
Q 1688 2584 1439 2293 
Q 1191 2003 1191 1497 
Q 1191 994 1439 701 
Q 1688 409 2113 409 
Q 2538 409 2786 701 
Q 3034 994 3034 1497 
Q 3034 2003 2786 2293 
Q 2538 2584 2113 2584 
z
M 3366 4563 
L 3366 3988 
Q 3128 4100 2886 4159 
Q 2644 4219 2406 4219 
Q 1781 4219 1451 3797 
Q 1122 3375 1075 2522 
Q 1259 2794 1537 2939 
Q 1816 3084 2150 3084 
Q 2853 3084 3261 2657 
Q 3669 2231 3669 1497 
Q 3669 778 3244 343 
Q 2819 -91 2113 -91 
Q 1303 -91 875 529 
Q 447 1150 447 2328 
Q 447 3434 972 4092 
Q 1497 4750 2381 4750 
Q 2619 4750 2861 4703 
Q 3103 4656 3366 4563 
z
" transform="scale(0.015625)"/>
       </defs>
       <use xlink:href="#DejaVuSans-36"/>
      </g>
     </g>
    </g>
    <g id="xtick_5">
     <g id="line2d_5">
      <g>
       <use xlink:href="#mf438960775" x="350.280298" y="300.04" style="stroke: #000000; stroke-width: 0.8"/>
      </g>
     </g>
     <g id="text_5">
      <!-- 8 -->
      <g transform="translate(347.099048 314.638437) scale(0.1 -0.1)">
       <defs>
        <path id="DejaVuSans-38" d="M 2034 2216 
Q 1584 2216 1326 1975 
Q 1069 1734 1069 1313 
Q 1069 891 1326 650 
Q 1584 409 2034 409 
Q 2484 409 2743 651 
Q 3003 894 3003 1313 
Q 3003 1734 2745 1975 
Q 2488 2216 2034 2216 
z
M 1403 2484 
Q 997 2584 770 2862 
Q 544 3141 544 3541 
Q 544 4100 942 4425 
Q 1341 4750 2034 4750 
Q 2731 4750 3128 4425 
Q 3525 4100 3525 3541 
Q 3525 3141 3298 2862 
Q 3072 2584 2669 2484 
Q 3125 2378 3379 2068 
Q 3634 1759 3634 1313 
Q 3634 634 3220 271 
Q 2806 -91 2034 -91 
Q 1263 -91 848 271 
Q 434 634 434 1313 
Q 434 1759 690 2068 
Q 947 2378 1403 2484 
z
M 1172 3481 
Q 1172 3119 1398 2916 
Q 1625 2713 2034 2713 
Q 2441 2713 2670 2916 
Q 2900 3119 2900 3481 
Q 2900 3844 2670 4047 
Q 2441 4250 2034 4250 
Q 1625 4250 1398 4047 
Q 1172 3844 1172 3481 
z
" transform="scale(0.015625)"/>
       </defs>
       <use xlink:href="#DejaVuSans-38"/>
      </g>
     </g>
    </g>
    <g id="xtick_6">
     <g id="line2d_6">
      <g>
       <use xlink:href="#mf438960775" x="426.90506" y="300.04" style="stroke: #000000; stroke-width: 0.8"/>
      </g>
     </g>
     <g id="text_6">
      <!-- 10 -->
      <g transform="translate(420.54256 314.638437) scale(0.1 -0.1)">
       <defs>
        <path id="DejaVuSans-31" d="M 794 531 
L 1825 531 
L 1825 4091 
L 703 3866 
L 703 4441 
L 1819 4666 
L 2450 4666 
L 2450 531 
L 3481 531 
L 3481 0 
L 794 0 
L 794 531 
z
" transform="scale(0.015625)"/>
       </defs>
       <use xlink:href="#DejaVuSans-31"/>
       <use xlink:href="#DejaVuSans-30" x="63.623047"/>
      </g>
     </g>
    </g>
    <g id="text_7">
     <!-- Time (seconds) -->
     <g transform="translate(206.759531 328.316562) scale(0.1 -0.1)">
      <defs>
       <path id="DejaVuSans-54" d="M -19 4666 
L 3928 4666 
L 3928 4134 
L 2272 4134 
L 2272 0 
L 1638 0 
L 1638 4134 
L -19 4134 
L -19 4666 
z
" transform="scale(0.015625)"/>
       <path id="DejaVuSans-69" d="M 603 3500 
L 1178 3500 
L 1178 0 
L 603 0 
L 603 3500 
z
M 603 4863 
L 1178 4863 
L 1178 4134 
L 603 4134 
L 603 4863 
z
" transform="scale(0.015625)"/>
       <path id="DejaVuSans-6d" d="M 3328 2828 
Q 3544 3216 3844 3400 
Q 4144 3584 4550 3584 
Q 5097 3584 5394 3201 
Q 5691 2819 5691 2113 
L 5691 0 
L 5113 0 
L 5113 2094 
Q 5113 2597 4934 2840 
Q 4756 3084 4391 3084 
Q 3944 3084 3684 2787 
Q 3425 2491 3425 1978 
L 3425 0 
L 2847 0 
L 2847 2094 
Q 2847 2600 2669 2842 
Q 2491 3084 2119 3084 
Q 1678 3084 1418 2786 
Q 1159 2488 1159 1978 
L 1159 0 
L 581 0 
L 581 3500 
L 1159 3500 
L 1159 2956 
Q 1356 3278 1631 3431 
Q 1906 3584 2284 3584 
Q 2666 3584 2933 3390 
Q 3200 3197 3328 2828 
z
" transform="scale(0.015625)"/>
       <path id="DejaVuSans-65" d="M 3597 1894 
L 3597 1613 
L 953 1613 
Q 991 1019 1311 708 
Q 1631 397 2203 397 
Q 2534 397 2845 478 
Q 3156 559 3463 722 
L 3463 178 
Q 3153 47 2828 -22 
Q 2503 -91 2169 -91 
Q 1331 -91 842 396 
Q 353 884 353 1716 
Q 353 2575 817 3079 
Q 1281 3584 2069 3584 
Q 2775 3584 3186 3129 
Q 3597 2675 3597 1894 
z
M 3022 2063 
Q 3016 2534 2758 2815 
Q 2500 3097 2075 3097 
Q 1594 3097 1305 2825 
Q 1016 2553 972 2059 
L 3022 2063 
z
" transform="scale(0.015625)"/>
       <path id="DejaVuSans-20" transform="scale(0.015625)"/>
       <path id="DejaVuSans-28" d="M 1984 4856 
Q 1566 4138 1362 3434 
Q 1159 2731 1159 2009 
Q 1159 1288 1364 580 
Q 1569 -128 1984 -844 
L 1484 -844 
Q 1016 -109 783 600 
Q 550 1309 550 2009 
Q 550 2706 781 3412 
Q 1013 4119 1484 4856 
L 1984 4856 
z
" transform="scale(0.015625)"/>
       <path id="DejaVuSans-73" d="M 2834 3397 
L 2834 2853 
Q 2591 2978 2328 3040 
Q 2066 3103 1784 3103 
Q 1356 3103 1142 2972 
Q 928 2841 928 2578 
Q 928 2378 1081 2264 
Q 1234 2150 1697 2047 
L 1894 2003 
Q 2506 1872 2764 1633 
Q 3022 1394 3022 966 
Q 3022 478 2636 193 
Q 2250 -91 1575 -91 
Q 1294 -91 989 -36 
Q 684 19 347 128 
L 347 722 
Q 666 556 975 473 
Q 1284 391 1588 391 
Q 1994 391 2212 530 
Q 2431 669 2431 922 
Q 2431 1156 2273 1281 
Q 2116 1406 1581 1522 
L 1381 1569 
Q 847 1681 609 1914 
Q 372 2147 372 2553 
Q 372 3047 722 3315 
Q 1072 3584 1716 3584 
Q 2034 3584 2315 3537 
Q 2597 3491 2834 3397 
z
" transform="scale(0.015625)"/>
       <path id="DejaVuSans-63" d="M 3122 3366 
L 3122 2828 
Q 2878 2963 2633 3030 
Q 2388 3097 2138 3097 
Q 1578 3097 1268 2742 
Q 959 2388 959 1747 
Q 959 1106 1268 751 
Q 1578 397 2138 397 
Q 2388 397 2633 464 
Q 2878 531 3122 666 
L 3122 134 
Q 2881 22 2623 -34 
Q 2366 -91 2075 -91 
Q 1284 -91 818 406 
Q 353 903 353 1747 
Q 353 2603 823 3093 
Q 1294 3584 2113 3584 
Q 2378 3584 2631 3529 
Q 2884 3475 3122 3366 
z
" transform="scale(0.015625)"/>
       <path id="DejaVuSans-6f" d="M 1959 3097 
Q 1497 3097 1228 2736 
Q 959 2375 959 1747 
Q 959 1119 1226 758 
Q 1494 397 1959 397 
Q 2419 397 2687 759 
Q 2956 1122 2956 1747 
Q 2956 2369 2687 2733 
Q 2419 3097 1959 3097 
z
M 1959 3584 
Q 2709 3584 3137 3096 
Q 3566 2609 3566 1747 
Q 3566 888 3137 398 
Q 2709 -91 1959 -91 
Q 1206 -91 779 398 
Q 353 888 353 1747 
Q 353 2609 779 3096 
Q 1206 3584 1959 3584 
z
" transform="scale(0.015625)"/>
       <path id="DejaVuSans-6e" d="M 3513 2113 
L 3513 0 
L 2938 0 
L 2938 2094 
Q 2938 2591 2744 2837 
Q 2550 3084 2163 3084 
Q 1697 3084 1428 2787 
Q 1159 2491 1159 1978 
L 1159 0 
L 581 0 
L 581 3500 
L 1159 3500 
L 1159 2956 
Q 1366 3272 1645 3428 
Q 1925 3584 2291 3584 
Q 2894 3584 3203 3211 
Q 3513 2838 3513 2113 
z
" transform="scale(0.015625)"/>
       <path id="DejaVuSans-64" d="M 2906 2969 
L 2906 4863 
L 3481 4863 
L 3481 0 
L 2906 0 
L 2906 525 
Q 2725 213 2448 61 
Q 2172 -91 1784 -91 
Q 1150 -91 751 415 
Q 353 922 353 1747 
Q 353 2572 751 3078 
Q 1150 3584 1784 3584 
Q 2172 3584 2448 3432 
Q 2725 3281 2906 2969 
z
M 947 1747 
Q 947 1113 1208 752 
Q 1469 391 1925 391 
Q 2381 391 2643 752 
Q 2906 1113 2906 1747 
Q 2906 2381 2643 2742 
Q 2381 3103 1925 3103 
Q 1469 3103 1208 2742 
Q 947 2381 947 1747 
z
" transform="scale(0.015625)"/>
       <path id="DejaVuSans-29" d="M 513 4856 
L 1013 4856 
Q 1481 4119 1714 3412 
Q 1947 2706 1947 2009 
Q 1947 1309 1714 600 
Q 1481 -109 1013 -844 
L 513 -844 
Q 928 -128 1133 580 
Q 1338 1288 1338 2009 
Q 1338 2731 1133 3434 
Q 928 4138 513 4856 
z
" transform="scale(0.015625)"/>
      </defs>
      <use xlink:href="#DejaVuSans-54"/>
      <use xlink:href="#DejaVuSans-69" x="57.958984"/>
      <use xlink:href="#DejaVuSans-6d" x="85.742188"/>
      <use xlink:href="#DejaVuSans-65" x="183.154297"/>
      <use xlink:href="#DejaVuSans-20" x="244.677734"/>
      <use xlink:href="#DejaVuSans-28" x="276.464844"/>
      <use xlink:href="#DejaVuSans-73" x="315.478516"/>
      <use xlink:href="#DejaVuSans-65" x="367.578125"/>
      <use xlink:href="#DejaVuSans-63" x="429.101562"/>
      <use xlink:href="#DejaVuSans-6f" x="484.082031"/>
      <use xlink:href="#DejaVuSans-6e" x="545.263672"/>
      <use xlink:href="#DejaVuSans-64" x="608.642578"/>
      <use xlink:href="#DejaVuSans-73" x="672.119141"/>
      <use xlink:href="#DejaVuSans-29" x="724.21875"/>
     </g>
    </g>
   </g>
   <g id="matplotlib.axis_2">
    <g id="ytick_1">
     <g id="line2d_7">
      <defs>
       <path id="mcb4cfef77e" d="M 0 0 
L -3.5 0 
" style="stroke: #000000; stroke-width: 0.8"/>
      </defs>
      <g>
       <use xlink:href="#mcb4cfef77e" x="43.78125" y="286.772294" style="stroke: #000000; stroke-width: 0.8"/>
      </g>
     </g>
     <g id="text_8">
      <!-- 0.0 -->
      <g transform="translate(20.878125 290.571513) scale(0.1 -0.1)">
       <defs>
        <path id="DejaVuSans-2e" d="M 684 794 
L 1344 794 
L 1344 0 
L 684 0 
L 684 794 
z
" transform="scale(0.015625)"/>
       </defs>
       <use xlink:href="#DejaVuSans-30"/>
       <use xlink:href="#DejaVuSans-2e" x="63.623047"/>
       <use xlink:href="#DejaVuSans-30" x="95.410156"/>
      </g>
     </g>
    </g>
    <g id="ytick_2">
     <g id="line2d_8">
      <g>
       <use xlink:href="#mcb4cfef77e" x="43.78125" y="233.336544" style="stroke: #000000; stroke-width: 0.8"/>
      </g>
     </g>
     <g id="text_9">
      <!-- 0.2 -->
      <g transform="translate(20.878125 237.135763) scale(0.1 -0.1)">
       <use xlink:href="#DejaVuSans-30"/>
       <use xlink:href="#DejaVuSans-2e" x="63.623047"/>
       <use xlink:href="#DejaVuSans-32" x="95.410156"/>
      </g>
     </g>
    </g>
    <g id="ytick_3">
     <g id="line2d_9">
      <g>
       <use xlink:href="#mcb4cfef77e" x="43.78125" y="179.900795" style="stroke: #000000; stroke-width: 0.8"/>
      </g>
     </g>
     <g id="text_10">
      <!-- 0.4 -->
      <g transform="translate(20.878125 183.700014) scale(0.1 -0.1)">
       <use xlink:href="#DejaVuSans-30"/>
       <use xlink:href="#DejaVuSans-2e" x="63.623047"/>
       <use xlink:href="#DejaVuSans-34" x="95.410156"/>
      </g>
     </g>
    </g>
    <g id="ytick_4">
     <g id="line2d_10">
      <g>
       <use xlink:href="#mcb4cfef77e" x="43.78125" y="126.465045" style="stroke: #000000; stroke-width: 0.8"/>
      </g>
     </g>
     <g id="text_11">
      <!-- 0.6 -->
      <g transform="translate(20.878125 130.264264) scale(0.1 -0.1)">
       <use xlink:href="#DejaVuSans-30"/>
       <use xlink:href="#DejaVuSans-2e" x="63.623047"/>
       <use xlink:href="#DejaVuSans-36" x="95.410156"/>
      </g>
     </g>
    </g>
    <g id="ytick_5">
     <g id="line2d_11">
      <g>
       <use xlink:href="#mcb4cfef77e" x="43.78125" y="73.029296" style="stroke: #000000; stroke-width: 0.8"/>
      </g>
     </g>
     <g id="text_12">
      <!-- 0.8 -->
      <g transform="translate(20.878125 76.828515) scale(0.1 -0.1)">
       <use xlink:href="#DejaVuSans-30"/>
       <use xlink:href="#DejaVuSans-2e" x="63.623047"/>
       <use xlink:href="#DejaVuSans-38" x="95.410156"/>
      </g>
     </g>
    </g>
    <g id="ytick_6">
     <g id="line2d_12">
      <g>
       <use xlink:href="#mcb4cfef77e" x="43.78125" y="19.593547" style="stroke: #000000; stroke-width: 0.8"/>
      </g>
     </g>
     <g id="text_13">
      <!-- 1.0 -->
      <g transform="translate(20.878125 23.392765) scale(0.1 -0.1)">
       <use xlink:href="#DejaVuSans-31"/>
       <use xlink:href="#DejaVuSans-2e" x="63.623047"/>
       <use xlink:href="#DejaVuSans-30" x="95.410156"/>
      </g>
     </g>
    </g>
    <g id="text_14">
     <!-- Cross Track Error (meters) -->
     <g transform="translate(14.798438 218.90125) rotate(-90) scale(0.1 -0.1)">
      <defs>
       <path id="DejaVuSans-43" d="M 4122 4306 
L 4122 3641 
Q 3803 3938 3442 4084 
Q 3081 4231 2675 4231 
Q 1875 4231 1450 3742 
Q 1025 3253 1025 2328 
Q 1025 1406 1450 917 
Q 1875 428 2675 428 
Q 3081 428 3442 575 
Q 3803 722 4122 1019 
L 4122 359 
Q 3791 134 3420 21 
Q 3050 -91 2638 -91 
Q 1578 -91 968 557 
Q 359 1206 359 2328 
Q 359 3453 968 4101 
Q 1578 4750 2638 4750 
Q 3056 4750 3426 4639 
Q 3797 4528 4122 4306 
z
" transform="scale(0.015625)"/>
       <path id="DejaVuSans-72" d="M 2631 2963 
Q 2534 3019 2420 3045 
Q 2306 3072 2169 3072 
Q 1681 3072 1420 2755 
Q 1159 2438 1159 1844 
L 1159 0 
L 581 0 
L 581 3500 
L 1159 3500 
L 1159 2956 
Q 1341 3275 1631 3429 
Q 1922 3584 2338 3584 
Q 2397 3584 2469 3576 
Q 2541 3569 2628 3553 
L 2631 2963 
z
" transform="scale(0.015625)"/>
       <path id="DejaVuSans-61" d="M 2194 1759 
Q 1497 1759 1228 1600 
Q 959 1441 959 1056 
Q 959 750 1161 570 
Q 1363 391 1709 391 
Q 2188 391 2477 730 
Q 2766 1069 2766 1631 
L 2766 1759 
L 2194 1759 
z
M 3341 1997 
L 3341 0 
L 2766 0 
L 2766 531 
Q 2569 213 2275 61 
Q 1981 -91 1556 -91 
Q 1019 -91 701 211 
Q 384 513 384 1019 
Q 384 1609 779 1909 
Q 1175 2209 1959 2209 
L 2766 2209 
L 2766 2266 
Q 2766 2663 2505 2880 
Q 2244 3097 1772 3097 
Q 1472 3097 1187 3025 
Q 903 2953 641 2809 
L 641 3341 
Q 956 3463 1253 3523 
Q 1550 3584 1831 3584 
Q 2591 3584 2966 3190 
Q 3341 2797 3341 1997 
z
" transform="scale(0.015625)"/>
       <path id="DejaVuSans-6b" d="M 581 4863 
L 1159 4863 
L 1159 1991 
L 2875 3500 
L 3609 3500 
L 1753 1863 
L 3688 0 
L 2938 0 
L 1159 1709 
L 1159 0 
L 581 0 
L 581 4863 
z
" transform="scale(0.015625)"/>
       <path id="DejaVuSans-45" d="M 628 4666 
L 3578 4666 
L 3578 4134 
L 1259 4134 
L 1259 2753 
L 3481 2753 
L 3481 2222 
L 1259 2222 
L 1259 531 
L 3634 531 
L 3634 0 
L 628 0 
L 628 4666 
z
" transform="scale(0.015625)"/>
       <path id="DejaVuSans-74" d="M 1172 4494 
L 1172 3500 
L 2356 3500 
L 2356 3053 
L 1172 3053 
L 1172 1153 
Q 1172 725 1289 603 
Q 1406 481 1766 481 
L 2356 481 
L 2356 0 
L 1766 0 
Q 1100 0 847 248 
Q 594 497 594 1153 
L 594 3053 
L 172 3053 
L 172 3500 
L 594 3500 
L 594 4494 
L 1172 4494 
z
" transform="scale(0.015625)"/>
      </defs>
      <use xlink:href="#DejaVuSans-43"/>
      <use xlink:href="#DejaVuSans-72" x="69.824219"/>
      <use xlink:href="#DejaVuSans-6f" x="108.6875"/>
      <use xlink:href="#DejaVuSans-73" x="169.869141"/>
      <use xlink:href="#DejaVuSans-73" x="221.96875"/>
      <use xlink:href="#DejaVuSans-20" x="274.068359"/>
      <use xlink:href="#DejaVuSans-54" x="305.855469"/>
      <use xlink:href="#DejaVuSans-72" x="352.189453"/>
      <use xlink:href="#DejaVuSans-61" x="393.302734"/>
      <use xlink:href="#DejaVuSans-63" x="454.582031"/>
      <use xlink:href="#DejaVuSans-6b" x="509.5625"/>
      <use xlink:href="#DejaVuSans-20" x="567.472656"/>
      <use xlink:href="#DejaVuSans-45" x="599.259766"/>
      <use xlink:href="#DejaVuSans-72" x="662.443359"/>
      <use xlink:href="#DejaVuSans-72" x="701.806641"/>
      <use xlink:href="#DejaVuSans-6f" x="740.669922"/>
      <use xlink:href="#DejaVuSans-72" x="801.851562"/>
      <use xlink:href="#DejaVuSans-20" x="842.964844"/>
      <use xlink:href="#DejaVuSans-28" x="874.751953"/>
      <use xlink:href="#DejaVuSans-6d" x="913.765625"/>
      <use xlink:href="#DejaVuSans-65" x="1011.177734"/>
      <use xlink:href="#DejaVuSans-74" x="1072.701172"/>
      <use xlink:href="#DejaVuSans-65" x="1111.910156"/>
      <use xlink:href="#DejaVuSans-72" x="1173.433594"/>
      <use xlink:href="#DejaVuSans-73" x="1214.546875"/>
      <use xlink:href="#DejaVuSans-29" x="1266.646484"/>
     </g>
    </g>
   </g>
   <g id="line2d_13">
    <path d="M 43.78125 279.455012 
L 45.058329 279.455012 
L 46.335409 275.540289 
L 47.612488 275.540289 
L 48.889567 275.332946 
L 50.166647 275.332946 
L 51.443726 275.644938 
L 55.274964 275.715102 
L 57.829123 275.769446 
L 59.106202 276.019008 
L 60.383282 276.019008 
L 61.660361 275.61809 
L 62.93744 275.61809 
L 64.21452 275.997306 
L 65.491599 275.997306 
L 66.768679 276.532855 
L 68.045758 276.532855 
L 69.322837 277.19935 
L 70.599917 277.19935 
L 71.876996 276.256506 
L 73.154075 276.256506 
L 74.431155 276.384515 
L 83.37071 276.320529 
L 84.64779 275.943849 
L 85.924869 275.943849 
L 87.201948 276.388052 
L 88.479028 276.388052 
L 89.756107 276.046298 
L 91.033187 276.046298 
L 92.310266 276.236784 
L 93.587345 276.236784 
L 94.864425 275.509498 
L 96.141504 275.509498 
L 97.418583 274.102366 
L 98.695663 274.102366 
L 99.972742 273.950339 
L 101.249821 273.950339 
L 102.526901 271.756001 
L 103.80398 271.756001 
L 105.08106 267.385783 
L 106.358139 267.385783 
L 107.635218 267.710722 
L 108.912298 267.710722 
L 110.189377 266.281952 
L 111.466456 266.281952 
L 112.743536 262.712485 
L 114.020615 262.712485 
L 115.297694 260.217264 
L 116.574774 260.217264 
L 117.851853 266.375585 
L 119.128933 266.375585 
L 120.406012 263.5646 
L 121.683091 263.5646 
L 122.960171 258.661574 
L 124.23725 258.661574 
L 125.514329 258.516454 
L 126.791409 258.516454 
L 128.068488 258.397623 
L 129.345567 258.397623 
L 130.622647 252.551215 
L 131.899726 252.551215 
L 133.176806 258.190996 
L 134.453885 258.190996 
L 135.730964 257.83837 
L 137.008044 257.83837 
L 138.285123 259.95779 
L 139.562202 259.95779 
L 140.839282 260.550471 
L 142.116361 260.550471 
L 143.39344 256.421399 
L 144.67052 256.421399 
L 145.947599 257.006904 
L 147.224679 257.006904 
L 148.501758 253.297749 
L 149.778837 253.297749 
L 151.055917 245.125896 
L 152.332996 245.125896 
L 153.610075 247.320623 
L 154.887155 247.320623 
L 156.164234 248.122038 
L 157.441313 248.122038 
L 158.718393 245.043033 
L 159.995472 245.043033 
L 161.272552 244.342009 
L 162.549631 244.342009 
L 163.82671 240.294644 
L 165.10379 240.294644 
L 166.380869 238.460232 
L 167.657948 238.460232 
L 168.935028 243.502568 
L 170.212107 243.502568 
L 171.489187 240.888613 
L 172.766266 240.888613 
L 174.043345 243.150394 
L 175.320425 243.150394 
L 176.597504 232.605428 
L 177.874583 232.605428 
L 179.151663 225.340942 
L 180.428742 225.340942 
L 181.705821 257.085349 
L 182.982901 257.085349 
L 184.25998 254.330765 
L 185.53706 254.330765 
L 186.814139 252.321491 
L 188.091218 252.321491 
L 189.368298 249.812466 
L 190.645377 249.812466 
L 191.922456 233.000612 
L 193.199536 233.000612 
L 194.476615 226.676622 
L 195.753694 226.676622 
L 197.030774 212.348155 
L 198.307853 212.348155 
L 199.584933 199.150658 
L 200.862012 199.150658 
L 202.139091 224.447759 
L 203.416171 224.447759 
L 204.69325 251.742709 
L 205.970329 251.742709 
L 207.247409 215.685683 
L 208.524488 215.685683 
L 209.801567 214.471813 
L 211.078647 214.471813 
L 212.355726 212.574408 
L 213.632806 212.574408 
L 214.909885 211.981114 
L 216.186964 211.981114 
L 217.464044 214.705711 
L 218.741123 214.705711 
L 220.018202 214.890875 
L 221.295282 214.890875 
L 222.572361 207.99319 
L 223.84944 207.99319 
L 225.12652 209.233487 
L 226.403599 209.233487 
L 227.680679 207.143282 
L 228.957758 207.143282 
L 230.234837 208.655838 
L 231.511917 208.655838 
L 232.788996 207.003969 
L 234.066075 207.003969 
L 235.343155 205.520181 
L 236.620234 205.520181 
L 237.897313 204.614902 
L 239.174393 204.614902 
L 240.451472 202.319674 
L 241.728552 202.319674 
L 243.005631 209.042523 
L 244.28271 209.042523 
L 245.55979 207.587643 
L 246.836869 207.587643 
L 248.113948 206.334261 
L 249.391028 206.334261 
L 250.668107 204.689198 
L 251.945187 204.689198 
L 253.222266 210.109615 
L 254.499345 210.109615 
L 255.776425 201.602666 
L 257.053504 201.602666 
L 258.330583 201.961075 
L 259.607663 201.961075 
L 260.884742 199.710563 
L 262.161821 199.710563 
L 263.438901 199.143657 
L 264.71598 199.143657 
L 265.99306 205.208336 
L 267.270139 205.208336 
L 268.547218 196.085688 
L 269.824298 196.085688 
L 271.101377 193.418617 
L 272.378456 193.418617 
L 273.655536 201.071061 
L 274.932615 201.071061 
L 276.209694 200.208 
L 277.486774 200.208 
L 278.763853 197.04905 
L 280.040933 197.04905 
L 281.318012 189.783984 
L 282.595091 189.783984 
L 283.872171 192.994978 
L 285.14925 192.994978 
L 286.426329 191.117671 
L 287.703409 191.117671 
L 288.980488 196.892341 
L 290.257567 196.892341 
L 291.534647 194.040859 
L 292.811726 194.040859 
L 294.088806 188.894092 
L 295.365885 188.894092 
L 296.642964 193.781188 
L 297.920044 193.781188 
L 299.197123 189.035175 
L 300.474202 189.035175 
L 301.751282 194.133063 
L 303.028361 194.133063 
L 304.30544 187.492943 
L 305.58252 187.492943 
L 306.859599 180.75558 
L 308.136679 180.75558 
L 309.413758 191.572869 
L 310.690837 191.572869 
L 311.967917 189.017726 
L 313.244996 189.017726 
L 314.522075 198.380917 
L 315.799155 198.380917 
L 317.076234 180.013846 
L 318.353313 180.013846 
L 319.630393 175.163421 
L 320.907472 175.163421 
L 322.184552 192.50747 
L 323.461631 192.50747 
L 324.73871 188.636372 
L 328.569948 188.630101 
L 329.847028 186.653249 
L 331.124107 186.653249 
L 332.401187 172.424087 
L 333.678266 172.424087 
L 334.955345 190.789709 
L 336.232425 190.789709 
L 337.509504 190.472502 
L 338.786583 190.472502 
L 340.063663 198.746085 
L 341.340742 198.746085 
L 342.617821 184.416041 
L 343.894901 184.416041 
L 345.17198 190.790948 
L 346.44906 190.790948 
L 347.726139 189.053515 
L 349.003218 189.053515 
L 350.280298 191.11012 
L 351.557377 191.11012 
L 352.834456 196.601413 
L 354.111536 196.601413 
L 355.388615 184.375818 
L 356.665694 184.375818 
L 357.942774 189.736754 
L 359.219853 189.736754 
L 360.496933 187.232161 
L 361.774012 187.232161 
L 363.051091 193.694425 
L 364.328171 193.694425 
L 365.60525 183.128558 
L 366.882329 183.128558 
L 368.159409 198.590391 
L 369.436488 198.590391 
L 370.713567 189.690122 
L 371.990647 189.690122 
L 373.267726 185.433415 
L 374.544806 185.433415 
L 375.821885 178.969149 
L 377.098964 178.969149 
L 378.376044 156.949015 
L 379.653123 156.949015 
L 380.930202 208.882861 
L 382.207282 208.882861 
L 383.484361 185.439691 
L 384.76144 185.439691 
L 386.03852 156.79469 
L 387.315599 156.79469 
L 388.592679 146.928556 
L 389.869758 146.928556 
L 391.146837 185.448393 
L 392.423917 185.448393 
L 393.700996 178.032205 
L 394.978075 178.032205 
L 396.255155 176.118933 
L 397.532234 176.118933 
L 398.809313 172.505326 
L 400.086393 172.505326 
L 401.363472 167.241707 
L 402.640552 167.241707 
L 403.917631 183.104117 
L 405.19471 183.104117 
L 406.47179 178.45761 
L 407.748869 178.45761 
L 409.025948 180.493903 
L 410.303028 180.493903 
L 411.580107 175.00519 
L 412.857187 175.00519 
L 414.134266 195.01122 
L 415.411345 195.01122 
L 416.688425 185.444203 
L 417.965504 185.444203 
L 419.242583 186.172486 
L 420.519663 186.172486 
L 421.796742 179.512817 
L 423.073821 179.512817 
L 424.350901 176.110599 
L 425.62798 176.110599 
L 426.90506 193.234882 
L 428.182139 193.234882 
L 429.459218 185.216309 
L 430.736298 185.216309 
L 432.013377 181.766849 
L 433.290456 181.766849 
L 434.567536 175.049008 
L 435.844615 175.049008 
L 437.121694 188.083814 
L 438.398774 188.083814 
L 439.675853 180.70957 
L 440.952933 180.70957 
L 442.230012 176.81909 
L 443.507091 176.81909 
L 444.784171 173.196676 
L 446.06125 173.196676 
L 447.338329 158.721239 
L 448.615409 158.721239 
L 449.892488 181.188935 
L 451.169567 181.188935 
L 452.446647 173.574033 
L 453.723726 173.574033 
L 454.26125 175.757652 
L 454.26125 175.757652 
" clip-path="url(#p6776884a6d)" style="fill: none; stroke: #1f77b4; stroke-width: 1.5; stroke-linecap: square"/>
   </g>
   <g id="line2d_14">
    <path d="M 43.78125 284.54231 
L 45.058329 284.54231 
L 46.335409 285.422856 
L 47.612488 285.422856 
L 48.889567 284.944019 
L 50.166647 284.944019 
L 51.443726 285.39151 
L 55.274964 285.349822 
L 56.552044 284.355344 
L 57.829123 284.355344 
L 59.106202 284.875868 
L 60.383282 284.875868 
L 61.660361 285.327288 
L 62.93744 285.327288 
L 64.21452 284.589615 
L 65.491599 284.589615 
L 66.768679 283.824986 
L 68.045758 283.824986 
L 69.322837 284.645116 
L 73.154075 284.635934 
L 74.431155 283.418857 
L 75.708234 283.418857 
L 76.985313 284.305474 
L 78.262393 284.305474 
L 79.539472 283.442864 
L 80.816552 283.442864 
L 82.093631 283.819152 
L 83.37071 283.819152 
L 84.64779 283.565618 
L 85.924869 283.565618 
L 87.201948 284.285582 
L 91.033187 284.242592 
L 92.310266 284.121069 
L 93.587345 284.121069 
L 94.864425 284.001974 
L 98.695663 283.952892 
L 99.972742 283.454058 
L 101.249821 283.454058 
L 102.526901 283.194833 
L 103.80398 283.194833 
L 105.08106 284.542725 
L 106.358139 284.542725 
L 107.635218 285.676346 
L 108.912298 285.676346 
L 110.189377 286.24178 
L 111.466456 286.24178 
L 112.743536 284.432103 
L 114.020615 284.432103 
L 115.297694 285.808398 
L 116.574774 285.808398 
L 117.851853 286.553779 
L 119.128933 286.553779 
L 120.406012 283.682482 
L 121.683091 283.682482 
L 122.960171 286.665535 
L 124.23725 286.665535 
L 125.514329 283.604231 
L 126.791409 283.604231 
L 128.068488 285.984926 
L 129.345567 285.984926 
L 130.622647 285.665264 
L 131.899726 285.665264 
L 133.176806 285.352298 
L 134.453885 285.352298 
L 135.730964 286.710607 
L 137.008044 286.710607 
L 138.285123 285.495586 
L 139.562202 285.495586 
L 140.839282 283.882125 
L 142.116361 283.882125 
L 143.39344 285.662252 
L 144.67052 285.662252 
L 145.947599 284.721777 
L 147.224679 284.721777 
L 148.501758 286.112504 
L 149.778837 286.112504 
L 151.055917 284.964315 
L 152.332996 284.964315 
L 153.610075 282.043401 
L 154.887155 282.043401 
L 156.164234 283.639821 
L 157.441313 283.639821 
L 158.718393 283.190441 
L 159.995472 283.190441 
L 161.272552 282.089639 
L 162.549631 282.089639 
L 163.82671 280.007195 
L 165.10379 280.007195 
L 166.380869 277.862558 
L 167.657948 277.862558 
L 168.935028 279.831835 
L 170.212107 279.831835 
L 171.489187 283.443215 
L 172.766266 283.443215 
L 174.043345 284.353096 
L 175.320425 284.353096 
L 176.597504 282.464067 
L 177.874583 282.464067 
L 179.151663 281.116174 
L 180.428742 281.116174 
L 181.705821 283.044058 
L 182.982901 283.044058 
L 184.25998 284.786731 
L 185.53706 284.786731 
L 186.814139 275.191893 
L 188.091218 275.191893 
L 189.368298 273.743501 
L 190.645377 273.743501 
L 191.922456 275.404101 
L 193.199536 275.404101 
L 194.476615 275.76408 
L 195.753694 275.76408 
L 197.030774 282.759494 
L 198.307853 282.759494 
L 199.584933 285.403097 
L 200.862012 285.403097 
L 202.139091 282.256982 
L 203.416171 282.256982 
L 204.69325 255.204754 
L 205.970329 255.204754 
L 207.247409 232.581893 
L 208.524488 232.581893 
L 209.801567 274.490165 
L 211.078647 274.490165 
L 212.355726 285.627966 
L 213.632806 285.627966 
L 214.909885 286.343384 
L 216.186964 286.343384 
L 217.464044 282.2031 
L 221.295282 282.107212 
L 222.572361 280.560452 
L 223.84944 280.560452 
L 225.12652 281.56335 
L 226.403599 281.56335 
L 227.680679 284.083216 
L 228.957758 284.083216 
L 230.234837 286.607137 
L 234.066075 286.696036 
L 235.343155 283.447773 
L 236.620234 283.447773 
L 237.897313 283.035357 
L 239.174393 283.035357 
L 240.451472 281.717873 
L 241.728552 281.717873 
L 243.005631 275.698095 
L 244.28271 275.698095 
L 245.55979 273.264743 
L 246.836869 273.264743 
L 248.113948 272.913634 
L 249.391028 272.913634 
L 250.668107 269.545948 
L 251.945187 269.545948 
L 253.222266 270.398965 
L 254.499345 270.398965 
L 255.776425 270.846078 
L 257.053504 270.846078 
L 258.330583 271.504113 
L 259.607663 271.504113 
L 260.884742 274.091843 
L 262.161821 274.091843 
L 263.438901 273.390391 
L 264.71598 273.390391 
L 265.99306 275.958275 
L 267.270139 275.958275 
L 268.547218 277.025199 
L 269.824298 277.025199 
L 271.101377 281.578201 
L 272.378456 281.578201 
L 273.655536 279.587767 
L 274.932615 279.587767 
L 276.209694 278.854997 
L 277.486774 278.854997 
L 278.763853 279.316821 
L 280.040933 279.316821 
L 281.318012 274.898366 
L 282.595091 274.898366 
L 283.872171 277.698104 
L 285.14925 277.698104 
L 286.426329 286.729091 
L 287.703409 286.729091 
L 288.980488 283.67455 
L 290.257567 283.67455 
L 291.534647 279.797103 
L 292.811726 279.797103 
L 294.088806 280.493815 
L 295.365885 280.493815 
L 296.642964 274.894726 
L 297.920044 274.894726 
L 299.197123 281.825868 
L 300.474202 281.825868 
L 301.751282 278.516977 
L 303.028361 278.516977 
L 304.30544 272.163794 
L 305.58252 272.163794 
L 306.859599 268.996371 
L 308.136679 268.996371 
L 309.413758 275.876593 
L 310.690837 275.876593 
L 311.967917 282.704497 
L 313.244996 282.704497 
L 314.522075 277.21179 
L 315.799155 277.21179 
L 317.076234 270.417482 
L 318.353313 270.417482 
L 319.630393 272.986663 
L 320.907472 272.986663 
L 322.184552 280.206226 
L 323.461631 280.206226 
L 324.73871 274.247928 
L 326.01579 274.247928 
L 327.292869 275.964856 
L 328.569948 275.964856 
L 329.847028 274.949236 
L 331.124107 274.949236 
L 332.401187 277.423504 
L 333.678266 277.423504 
L 334.955345 276.582417 
L 338.786583 276.568271 
L 340.063663 275.647655 
L 341.340742 275.647655 
L 342.617821 275.963293 
L 343.894901 275.963293 
L 345.17198 276.525603 
L 346.44906 276.525603 
L 347.726139 273.966992 
L 349.003218 273.966992 
L 350.280298 274.946833 
L 351.557377 274.946833 
L 352.834456 275.515675 
L 354.111536 275.515675 
L 355.388615 274.329098 
L 356.665694 274.329098 
L 357.942774 277.648089 
L 359.219853 277.648089 
L 360.496933 273.245626 
L 361.774012 273.245626 
L 363.051091 271.679901 
L 364.328171 271.679901 
L 365.60525 272.642924 
L 366.882329 272.642924 
L 368.159409 278.084774 
L 369.436488 278.084774 
L 370.713567 274.959052 
L 371.990647 274.959052 
L 373.267726 277.110696 
L 374.544806 277.110696 
L 375.821885 280.246341 
L 377.098964 280.246341 
L 378.376044 275.390547 
L 379.653123 275.390547 
L 380.930202 271.61712 
L 382.207282 271.61712 
L 383.484361 275.280645 
L 384.76144 275.280645 
L 386.03852 277.672178 
L 387.315599 277.672178 
L 388.592679 276.832112 
L 389.869758 276.832112 
L 391.146837 276.715691 
L 392.423917 276.715691 
L 393.700996 277.242854 
L 394.978075 277.242854 
L 396.255155 276.57063 
L 397.532234 276.57063 
L 398.809313 273.968735 
L 400.086393 273.968735 
L 401.363472 275.33441 
L 402.640552 275.33441 
L 403.917631 277.90438 
L 405.19471 277.90438 
L 406.47179 275.635724 
L 407.748869 275.635724 
L 409.025948 274.874223 
L 410.303028 274.874223 
L 411.580107 275.375112 
L 412.857187 275.375112 
L 414.134266 279.610751 
L 415.411345 279.610751 
L 416.688425 278.941805 
L 417.965504 278.941805 
L 419.242583 276.206108 
L 420.519663 276.206108 
L 421.796742 270.250827 
L 423.073821 270.250827 
L 424.350901 267.664181 
L 425.62798 267.664181 
L 426.90506 272.866184 
L 428.182139 272.866184 
L 429.459218 274.987319 
L 430.736298 274.987319 
L 432.013377 273.178741 
L 433.290456 273.178741 
L 434.567536 271.047248 
L 435.844615 271.047248 
L 437.121694 271.617619 
L 438.398774 271.617619 
L 439.675853 276.051224 
L 440.952933 276.051224 
L 442.230012 273.937608 
L 443.507091 273.937608 
L 444.784171 271.808905 
L 448.615409 271.732616 
L 449.892488 275.90337 
L 451.169567 275.90337 
L 452.446647 280.066404 
L 453.723726 280.066404 
L 454.26125 279.000728 
L 454.26125 279.000728 
" clip-path="url(#p6776884a6d)" style="fill: none; stroke: #ff7f0e; stroke-width: 1.5; stroke-linecap: square"/>
   </g>
   <g id="patch_3">
    <path d="M 43.78125 300.04 
L 43.78125 7.2 
" style="fill: none; stroke: #000000; stroke-width: 0.8; stroke-linejoin: miter; stroke-linecap: square"/>
   </g>
   <g id="patch_4">
    <path d="M 446.06125 300.04 
L 446.06125 7.2 
" style="fill: none; stroke: #000000; stroke-width: 0.8; stroke-linejoin: miter; stroke-linecap: square"/>
   </g>
   <g id="patch_5">
    <path d="M 43.78125 300.04 
L 446.06125 300.04 
" style="fill: none; stroke: #000000; stroke-width: 0.8; stroke-linejoin: miter; stroke-linecap: square"/>
   </g>
   <g id="patch_6">
    <path d="M 43.78125 7.2 
L 446.06125 7.2 
" style="fill: none; stroke: #000000; stroke-width: 0.8; stroke-linejoin: miter; stroke-linecap: square"/>
   </g>
   <g id="legend_1">
    <g id="patch_7">
     <path d="M 341.469062 44.55625 
L 439.06125 44.55625 
Q 441.06125 44.55625 441.06125 42.55625 
L 441.06125 14.2 
Q 441.06125 12.2 439.06125 12.2 
L 341.469062 12.2 
Q 339.469062 12.2 339.469062 14.2 
L 339.469062 42.55625 
Q 339.469062 44.55625 341.469062 44.55625 
z
" style="fill: #ffffff; opacity: 0.8; stroke: #cccccc; stroke-linejoin: miter"/>
    </g>
    <g id="line2d_15">
     <path d="M 343.469062 20.298437 
L 353.469062 20.298437 
L 363.469062 20.298437 
" style="fill: none; stroke: #1f77b4; stroke-width: 1.5; stroke-linecap: square"/>
    </g>
    <g id="text_15">
     <!-- no calib. -->
     <g transform="translate(371.469062 23.798437) scale(0.1 -0.1)">
      <defs>
       <path id="DejaVuSans-6c" d="M 603 4863 
L 1178 4863 
L 1178 0 
L 603 0 
L 603 4863 
z
" transform="scale(0.015625)"/>
       <path id="DejaVuSans-62" d="M 3116 1747 
Q 3116 2381 2855 2742 
Q 2594 3103 2138 3103 
Q 1681 3103 1420 2742 
Q 1159 2381 1159 1747 
Q 1159 1113 1420 752 
Q 1681 391 2138 391 
Q 2594 391 2855 752 
Q 3116 1113 3116 1747 
z
M 1159 2969 
Q 1341 3281 1617 3432 
Q 1894 3584 2278 3584 
Q 2916 3584 3314 3078 
Q 3713 2572 3713 1747 
Q 3713 922 3314 415 
Q 2916 -91 2278 -91 
Q 1894 -91 1617 61 
Q 1341 213 1159 525 
L 1159 0 
L 581 0 
L 581 4863 
L 1159 4863 
L 1159 2969 
z
" transform="scale(0.015625)"/>
      </defs>
      <use xlink:href="#DejaVuSans-6e"/>
      <use xlink:href="#DejaVuSans-6f" x="63.378906"/>
      <use xlink:href="#DejaVuSans-20" x="124.560547"/>
      <use xlink:href="#DejaVuSans-63" x="156.347656"/>
      <use xlink:href="#DejaVuSans-61" x="211.328125"/>
      <use xlink:href="#DejaVuSans-6c" x="272.607422"/>
      <use xlink:href="#DejaVuSans-69" x="300.390625"/>
      <use xlink:href="#DejaVuSans-62" x="328.173828"/>
      <use xlink:href="#DejaVuSans-2e" x="391.650391"/>
     </g>
    </g>
    <g id="line2d_16">
     <path d="M 343.469062 34.976562 
L 353.469062 34.976562 
L 363.469062 34.976562 
" style="fill: none; stroke: #ff7f0e; stroke-width: 1.5; stroke-linecap: square"/>
    </g>
    <g id="text_16">
     <!-- perfect calib. -->
     <g transform="translate(371.469062 38.476562) scale(0.1 -0.1)">
      <defs>
       <path id="DejaVuSans-70" d="M 1159 525 
L 1159 -1331 
L 581 -1331 
L 581 3500 
L 1159 3500 
L 1159 2969 
Q 1341 3281 1617 3432 
Q 1894 3584 2278 3584 
Q 2916 3584 3314 3078 
Q 3713 2572 3713 1747 
Q 3713 922 3314 415 
Q 2916 -91 2278 -91 
Q 1894 -91 1617 61 
Q 1341 213 1159 525 
z
M 3116 1747 
Q 3116 2381 2855 2742 
Q 2594 3103 2138 3103 
Q 1681 3103 1420 2742 
Q 1159 2381 1159 1747 
Q 1159 1113 1420 752 
Q 1681 391 2138 391 
Q 2594 391 2855 752 
Q 3116 1113 3116 1747 
z
" transform="scale(0.015625)"/>
       <path id="DejaVuSans-66" d="M 2375 4863 
L 2375 4384 
L 1825 4384 
Q 1516 4384 1395 4259 
Q 1275 4134 1275 3809 
L 1275 3500 
L 2222 3500 
L 2222 3053 
L 1275 3053 
L 1275 0 
L 697 0 
L 697 3053 
L 147 3053 
L 147 3500 
L 697 3500 
L 697 3744 
Q 697 4328 969 4595 
Q 1241 4863 1831 4863 
L 2375 4863 
z
" transform="scale(0.015625)"/>
      </defs>
      <use xlink:href="#DejaVuSans-70"/>
      <use xlink:href="#DejaVuSans-65" x="63.476562"/>
      <use xlink:href="#DejaVuSans-72" x="125"/>
      <use xlink:href="#DejaVuSans-66" x="166.113281"/>
      <use xlink:href="#DejaVuSans-65" x="201.318359"/>
      <use xlink:href="#DejaVuSans-63" x="262.841797"/>
      <use xlink:href="#DejaVuSans-74" x="317.822266"/>
      <use xlink:href="#DejaVuSans-20" x="357.03125"/>
      <use xlink:href="#DejaVuSans-63" x="388.818359"/>
      <use xlink:href="#DejaVuSans-61" x="443.798828"/>
      <use xlink:href="#DejaVuSans-6c" x="505.078125"/>
      <use xlink:href="#DejaVuSans-69" x="532.861328"/>
      <use xlink:href="#DejaVuSans-62" x="560.644531"/>
      <use xlink:href="#DejaVuSans-2e" x="624.121094"/>
     </g>
    </g>
   </g>
  </g>
 </g>
 <defs>
  <clipPath id="p6776884a6d">
   <rect x="43.78125" y="7.2" width="402.28" height="292.84"/>
  </clipPath>
 </defs>
</svg>