<?xml version="1.0" encoding="utf-8" standalone="no"?>
<!DOCTYPE svg PUBLIC "-//W3C//DTD SVG 1.1//EN"
  "http://www.w3.org/Graphics/SVG/1.1/DTD/svg11.dtd">
<svg xmlns:xlink="http://www.w3.org/1999/xlink" width="453.26125pt" height="337.59625pt" viewBox="0 0 453.26125 337.59625" xmlns="http://www.w3.org/2000/svg" version="1.1">
 <metadata>
  <rdf:RDF xmlns:dc="http://purl.org/dc/elements/1.1/" xmlns:cc="http://creativecommons.org/ns#" xmlns:rdf="http://www.w3.org/1999/02/22-rdf-syntax-ns#">
   <cc:Work>
    <dc:type rdf:resource="http://purl.org/dc/dcmitype/StillImage"/>
    <dc:date>2023-03-04T10:52:28.951486</dc:date>
    <dc:format>image/svg+xml</dc:format>
    <dc:creator>
     <cc:Agent>
      <dc:title>Matplotlib v3.7.1, https://matplotlib.org/</dc:title>
     </cc:Agent>
    </dc:creator>
   </cc:Work>
  </rdf:RDF>
 </metadata>
 <defs>
  <style type="text/css">*{stroke-linejoin: round; stroke-linecap: butt}</style>
 </defs>
 <g id="figure_1">
  <g id="patch_1">
   <path d="M 0 337.59625 
L 453.26125 337.59625 
L 453.26125 0 
L 0 0 
z
" style="fill: #ffffff"/>
  </g>
  <g id="axes_1">
   <g id="patch_2">
    <path d="M 43.78125 300.04 
L 446.06125 300.04 
L 446.06125 7.2 
L 43.78125 7.2 
z
" style="fill: #ffffff"/>
   </g>
   <g id="matplotlib.axis_1">
    <g id="xtick_1">
     <g id="line2d_1">
      <defs>
       <path id="m4009a68cb2" d="M 0 0 
L 0 3.5 
" style="stroke: #000000; stroke-width: 0.8"/>
      </defs>
      <g>
       <use xlink:href="#m4009a68cb2" x="43.78125" y="300.04" style="stroke: #000000; stroke-width: 0.8"/>
      </g>
     </g>
     <g id="text_1">
      <!-- 0 -->
      <g transform="translate(40.6 314.638437) scale(0.1 -0.1)">
       <defs>
        <path id="DejaVuSans-30" d="M 2034 4250 
Q 1547 4250 1301 3770 
Q 1056 3291 1056 2328 
Q 1056 1369 1301 889 
Q 1547 409 2034 409 
Q 2525 409 2770 889 
Q 3016 1369 3016 2328 
Q 3016 3291 2770 3770 
Q 2525 4250 2034 4250 
z
M 2034 4750 
Q 2819 4750 3233 4129 
Q 3647 3509 3647 2328 
Q 3647 1150 3233 529 
Q 2819 -91 2034 -91 
Q 1250 -91 836 529 
Q 422 1150 422 2328 
Q 422 3509 836 4129 
Q 1250 4750 2034 4750 
z
" transform="scale(0.015625)"/>
       </defs>
       <use xlink:href="#DejaVuSans-30"/>
      </g>
     </g>
    </g>
    <g id="xtick_2">
     <g id="line2d_2">
      <g>
       <use xlink:href="#m4009a68cb2" x="120.406012" y="300.04" style="stroke: #000000; stroke-width: 0.8"/>
      </g>
     </g>
     <g id="text_2">
      <!-- 2 -->
      <g transform="translate(117.224762 314.638437) scale(0.1 -0.1)">
       <defs>
        <path id="DejaVuSans-32" d="M 1228 531 
L 3431 531 
L 3431 0 
L 469 0 
L 469 531 
Q 828 903 1448 1529 
Q 2069 2156 2228 2338 
Q 2531 2678 2651 2914 
Q 2772 3150 2772 3378 
Q 2772 3750 2511 3984 
Q 2250 4219 1831 4219 
Q 1534 4219 1204 4116 
Q 875 4013 500 3803 
L 500 4441 
Q 881 4594 1212 4672 
Q 1544 4750 1819 4750 
Q 2544 4750 2975 4387 
Q 3406 4025 3406 3419 
Q 3406 3131 3298 2873 
Q 3191 2616 2906 2266 
Q 2828 2175 2409 1742 
Q 1991 1309 1228 531 
z
" transform="scale(0.015625)"/>
       </defs>
       <use xlink:href="#DejaVuSans-32"/>
      </g>
     </g>
    </g>
    <g id="xtick_3">
     <g id="line2d_3">
      <g>
       <use xlink:href="#m4009a68cb2" x="197.030774" y="300.04" style="stroke: #000000; stroke-width: 0.8"/>
      </g>
     </g>
     <g id="text_3">
      <!-- 4 -->
      <g transform="translate(193.849524 314.638437) scale(0.1 -0.1)">
       <defs>
        <path id="DejaVuSans-34" d="M 2419 4116 
L 825 1625 
L 2419 1625 
L 2419 4116 
z
M 2253 4666 
L 3047 4666 
L 3047 1625 
L 3713 1625 
L 3713 1100 
L 3047 1100 
L 3047 0 
L 2419 0 
L 2419 1100 
L 313 1100 
L 313 1709 
L 2253 4666 
z
" transform="scale(0.015625)"/>
       </defs>
       <use xlink:href="#DejaVuSans-34"/>
      </g>
     </g>
    </g>
    <g id="xtick_4">
     <g id="line2d_4">
      <g>
       <use xlink:href="#m4009a68cb2" x="273.655536" y="300.04" style="stroke: #000000; stroke-width: 0.8"/>
      </g>
     </g>
     <g id="text_4">
      <!-- 6 -->
      <g transform="translate(270.474286 314.638437) scale(0.1 -0.1)">
       <defs>
        <path id="DejaVuSans-36" d="M 2113 2584 
Q 1688 2584 1439 2293 
Q 1191 2003 1191 1497 
Q 1191 994 1439 701 
Q 1688 409 2113 409 
Q 2538 409 2786 701 
Q 3034 994 3034 1497 
Q 3034 2003 2786 2293 
Q 2538 2584 2113 2584 
z
M 3366 4563 
L 3366 3988 
Q 3128 4100 2886 4159 
Q 2644 4219 2406 4219 
Q 1781 4219 1451 3797 
Q 1122 3375 1075 2522 
Q 1259 2794 1537 2939 
Q 1816 3084 2150 3084 
Q 2853 3084 3261 2657 
Q 3669 2231 3669 1497 
Q 3669 778 3244 343 
Q 2819 -91 2113 -91 
Q 1303 -91 875 529 
Q 447 1150 447 2328 
Q 447 3434 972 4092 
Q 1497 4750 2381 4750 
Q 2619 4750 2861 4703 
Q 3103 4656 3366 4563 
z
" transform="scale(0.015625)"/>
       </defs>
       <use xlink:href="#DejaVuSans-36"/>
      </g>
     </g>
    </g>
    <g id="xtick_5">
     <g id="line2d_5">
      <g>
       <use xlink:href="#m4009a68cb2" x="350.280298" y="300.04" style="stroke: #000000; stroke-width: 0.8"/>
      </g>
     </g>
     <g id="text_5">
      <!-- 8 -->
      <g transform="translate(347.099048 314.638437) scale(0.1 -0.1)">
       <defs>
        <path id="DejaVuSans-38" d="M 2034 2216 
Q 1584 2216 1326 1975 
Q 1069 1734 1069 1313 
Q 1069 891 1326 650 
Q 1584 409 2034 409 
Q 2484 409 2743 651 
Q 3003 894 3003 1313 
Q 3003 1734 2745 1975 
Q 2488 2216 2034 2216 
z
M 1403 2484 
Q 997 2584 770 2862 
Q 544 3141 544 3541 
Q 544 4100 942 4425 
Q 1341 4750 2034 4750 
Q 2731 4750 3128 4425 
Q 3525 4100 3525 3541 
Q 3525 3141 3298 2862 
Q 3072 2584 2669 2484 
Q 3125 2378 3379 2068 
Q 3634 1759 3634 1313 
Q 3634 634 3220 271 
Q 2806 -91 2034 -91 
Q 1263 -91 848 271 
Q 434 634 434 1313 
Q 434 1759 690 2068 
Q 947 2378 1403 2484 
z
M 1172 3481 
Q 1172 3119 1398 2916 
Q 1625 2713 2034 2713 
Q 2441 2713 2670 2916 
Q 2900 3119 2900 3481 
Q 2900 3844 2670 4047 
Q 2441 4250 2034 4250 
Q 1625 4250 1398 4047 
Q 1172 3844 1172 3481 
z
" transform="scale(0.015625)"/>
       </defs>
       <use xlink:href="#DejaVuSans-38"/>
      </g>
     </g>
    </g>
    <g id="xtick_6">
     <g id="line2d_6">
      <g>
       <use xlink:href="#m4009a68cb2" x="426.90506" y="300.04" style="stroke: #000000; stroke-width: 0.8"/>
      </g>
     </g>
     <g id="text_6">
      <!-- 10 -->
      <g transform="translate(420.54256 314.638437) scale(0.1 -0.1)">
       <defs>
        <path id="DejaVuSans-31" d="M 794 531 
L 1825 531 
L 1825 4091 
L 703 3866 
L 703 4441 
L 1819 4666 
L 2450 4666 
L 2450 531 
L 3481 531 
L 3481 0 
L 794 0 
L 794 531 
z
" transform="scale(0.015625)"/>
       </defs>
       <use xlink:href="#DejaVuSans-31"/>
       <use xlink:href="#DejaVuSans-30" x="63.623047"/>
      </g>
     </g>
    </g>
    <g id="text_7">
     <!-- Time (seconds) -->
     <g transform="translate(206.759531 328.316562) scale(0.1 -0.1)">
      <defs>
       <path id="DejaVuSans-54" d="M -19 4666 
L 3928 4666 
L 3928 4134 
L 2272 4134 
L 2272 0 
L 1638 0 
L 1638 4134 
L -19 4134 
L -19 4666 
z
" transform="scale(0.015625)"/>
       <path id="DejaVuSans-69" d="M 603 3500 
L 1178 3500 
L 1178 0 
L 603 0 
L 603 3500 
z
M 603 4863 
L 1178 4863 
L 1178 4134 
L 603 4134 
L 603 4863 
z
" transform="scale(0.015625)"/>
       <path id="DejaVuSans-6d" d="M 3328 2828 
Q 3544 3216 3844 3400 
Q 4144 3584 4550 3584 
Q 5097 3584 5394 3201 
Q 5691 2819 5691 2113 
L 5691 0 
L 5113 0 
L 5113 2094 
Q 5113 2597 4934 2840 
Q 4756 3084 4391 3084 
Q 3944 3084 3684 2787 
Q 3425 2491 3425 1978 
L 3425 0 
L 2847 0 
L 2847 2094 
Q 2847 2600 2669 2842 
Q 2491 3084 2119 3084 
Q 1678 3084 1418 2786 
Q 1159 2488 1159 1978 
L 1159 0 
L 581 0 
L 581 3500 
L 1159 3500 
L 1159 2956 
Q 1356 3278 1631 3431 
Q 1906 3584 2284 3584 
Q 2666 3584 2933 3390 
Q 3200 3197 3328 2828 
z
" transform="scale(0.015625)"/>
       <path id="DejaVuSans-65" d="M 3597 1894 
L 3597 1613 
L 953 1613 
Q 991 1019 1311 708 
Q 1631 397 2203 397 
Q 2534 397 2845 478 
Q 3156 559 3463 722 
L 3463 178 
Q 3153 47 2828 -22 
Q 2503 -91 2169 -91 
Q 1331 -91 842 396 
Q 353 884 353 1716 
Q 353 2575 817 3079 
Q 1281 3584 2069 3584 
Q 2775 3584 3186 3129 
Q 3597 2675 3597 1894 
z
M 3022 2063 
Q 3016 2534 2758 2815 
Q 2500 3097 2075 3097 
Q 1594 3097 1305 2825 
Q 1016 2553 972 2059 
L 3022 2063 
z
" transform="scale(0.015625)"/>
       <path id="DejaVuSans-20" transform="scale(0.015625)"/>
       <path id="DejaVuSans-28" d="M 1984 4856 
Q 1566 4138 1362 3434 
Q 1159 2731 1159 2009 
Q 1159 1288 1364 580 
Q 1569 -128 1984 -844 
L 1484 -844 
Q 1016 -109 783 600 
Q 550 1309 550 2009 
Q 550 2706 781 3412 
Q 1013 4119 1484 4856 
L 1984 4856 
z
" transform="scale(0.015625)"/>
       <path id="DejaVuSans-73" d="M 2834 3397 
L 2834 2853 
Q 2591 2978 2328 3040 
Q 2066 3103 1784 3103 
Q 1356 3103 1142 2972 
Q 928 2841 928 2578 
Q 928 2378 1081 2264 
Q 1234 2150 1697 2047 
L 1894 2003 
Q 2506 1872 2764 1633 
Q 3022 1394 3022 966 
Q 3022 478 2636 193 
Q 2250 -91 1575 -91 
Q 1294 -91 989 -36 
Q 684 19 347 128 
L 347 722 
Q 666 556 975 473 
Q 1284 391 1588 391 
Q 1994 391 2212 530 
Q 2431 669 2431 922 
Q 2431 1156 2273 1281 
Q 2116 1406 1581 1522 
L 1381 1569 
Q 847 1681 609 1914 
Q 372 2147 372 2553 
Q 372 3047 722 3315 
Q 1072 3584 1716 3584 
Q 2034 3584 2315 3537 
Q 2597 3491 2834 3397 
z
" transform="scale(0.015625)"/>
       <path id="DejaVuSans-63" d="M 3122 3366 
L 3122 2828 
Q 2878 2963 2633 3030 
Q 2388 3097 2138 3097 
Q 1578 3097 1268 2742 
Q 959 2388 959 1747 
Q 959 1106 1268 751 
Q 1578 397 2138 397 
Q 2388 397 2633 464 
Q 2878 531 3122 666 
L 3122 134 
Q 2881 22 2623 -34 
Q 2366 -91 2075 -91 
Q 1284 -91 818 406 
Q 353 903 353 1747 
Q 353 2603 823 3093 
Q 1294 3584 2113 3584 
Q 2378 3584 2631 3529 
Q 2884 3475 3122 3366 
z
" transform="scale(0.015625)"/>
       <path id="DejaVuSans-6f" d="M 1959 3097 
Q 1497 3097 1228 2736 
Q 959 2375 959 1747 
Q 959 1119 1226 758 
Q 1494 397 1959 397 
Q 2419 397 2687 759 
Q 2956 1122 2956 1747 
Q 2956 2369 2687 2733 
Q 2419 3097 1959 3097 
z
M 1959 3584 
Q 2709 3584 3137 3096 
Q 3566 2609 3566 1747 
Q 3566 888 3137 398 
Q 2709 -91 1959 -91 
Q 1206 -91 779 398 
Q 353 888 353 1747 
Q 353 2609 779 3096 
Q 1206 3584 1959 3584 
z
" transform="scale(0.015625)"/>
       <path id="DejaVuSans-6e" d="M 3513 2113 
L 3513 0 
L 2938 0 
L 2938 2094 
Q 2938 2591 2744 2837 
Q 2550 3084 2163 3084 
Q 1697 3084 1428 2787 
Q 1159 2491 1159 1978 
L 1159 0 
L 581 0 
L 581 3500 
L 1159 3500 
L 1159 2956 
Q 1366 3272 1645 3428 
Q 1925 3584 2291 3584 
Q 2894 3584 3203 3211 
Q 3513 2838 3513 2113 
z
" transform="scale(0.015625)"/>
       <path id="DejaVuSans-64" d="M 2906 2969 
L 2906 4863 
L 3481 4863 
L 3481 0 
L 2906 0 
L 2906 525 
Q 2725 213 2448 61 
Q 2172 -91 1784 -91 
Q 1150 -91 751 415 
Q 353 922 353 1747 
Q 353 2572 751 3078 
Q 1150 3584 1784 3584 
Q 2172 3584 2448 3432 
Q 2725 3281 2906 2969 
z
M 947 1747 
Q 947 1113 1208 752 
Q 1469 391 1925 391 
Q 2381 391 2643 752 
Q 2906 1113 2906 1747 
Q 2906 2381 2643 2742 
Q 2381 3103 1925 3103 
Q 1469 3103 1208 2742 
Q 947 2381 947 1747 
z
" transform="scale(0.015625)"/>
       <path id="DejaVuSans-29" d="M 513 4856 
L 1013 4856 
Q 1481 4119 1714 3412 
Q 1947 2706 1947 2009 
Q 1947 1309 1714 600 
Q 1481 -109 1013 -844 
L 513 -844 
Q 928 -128 1133 580 
Q 1338 1288 1338 2009 
Q 1338 2731 1133 3434 
Q 928 4138 513 4856 
z
" transform="scale(0.015625)"/>
      </defs>
      <use xlink:href="#DejaVuSans-54"/>
      <use xlink:href="#DejaVuSans-69" x="57.958984"/>
      <use xlink:href="#DejaVuSans-6d" x="85.742188"/>
      <use xlink:href="#DejaVuSans-65" x="183.154297"/>
      <use xlink:href="#DejaVuSans-20" x="244.677734"/>
      <use xlink:href="#DejaVuSans-28" x="276.464844"/>
      <use xlink:href="#DejaVuSans-73" x="315.478516"/>
      <use xlink:href="#DejaVuSans-65" x="367.578125"/>
      <use xlink:href="#DejaVuSans-63" x="429.101562"/>
      <use xlink:href="#DejaVuSans-6f" x="484.082031"/>
      <use xlink:href="#DejaVuSans-6e" x="545.263672"/>
      <use xlink:href="#DejaVuSans-64" x="608.642578"/>
      <use xlink:href="#DejaVuSans-73" x="672.119141"/>
      <use xlink:href="#DejaVuSans-29" x="724.21875"/>
     </g>
    </g>
   </g>
   <g id="matplotlib.axis_2">
    <g id="ytick_1">
     <g id="line2d_7">
      <defs>
       <path id="m87e51ca639" d="M 0 0 
L -3.5 0 
" style="stroke: #000000; stroke-width: 0.8"/>
      </defs>
      <g>
       <use xlink:href="#m87e51ca639" x="43.78125" y="286.75014" style="stroke: #000000; stroke-width: 0.8"/>
      </g>
     </g>
     <g id="text_8">
      <!-- 0.0 -->
      <g transform="translate(20.878125 290.549359) scale(0.1 -0.1)">
       <defs>
        <path id="DejaVuSans-2e" d="M 684 794 
L 1344 794 
L 1344 0 
L 684 0 
L 684 794 
z
" transform="scale(0.015625)"/>
       </defs>
       <use xlink:href="#DejaVuSans-30"/>
       <use xlink:href="#DejaVuSans-2e" x="63.623047"/>
       <use xlink:href="#DejaVuSans-30" x="95.410156"/>
      </g>
     </g>
    </g>
    <g id="ytick_2">
     <g id="line2d_8">
      <g>
       <use xlink:href="#m87e51ca639" x="43.78125" y="233.318837" style="stroke: #000000; stroke-width: 0.8"/>
      </g>
     </g>
     <g id="text_9">
      <!-- 0.2 -->
      <g transform="translate(20.878125 237.118055) scale(0.1 -0.1)">
       <use xlink:href="#DejaVuSans-30"/>
       <use xlink:href="#DejaVuSans-2e" x="63.623047"/>
       <use xlink:href="#DejaVuSans-32" x="95.410156"/>
      </g>
     </g>
    </g>
    <g id="ytick_3">
     <g id="line2d_9">
      <g>
       <use xlink:href="#m87e51ca639" x="43.78125" y="179.887533" style="stroke: #000000; stroke-width: 0.8"/>
      </g>
     </g>
     <g id="text_10">
      <!-- 0.4 -->
      <g transform="translate(20.878125 183.686752) scale(0.1 -0.1)">
       <use xlink:href="#DejaVuSans-30"/>
       <use xlink:href="#DejaVuSans-2e" x="63.623047"/>
       <use xlink:href="#DejaVuSans-34" x="95.410156"/>
      </g>
     </g>
    </g>
    <g id="ytick_4">
     <g id="line2d_10">
      <g>
       <use xlink:href="#m87e51ca639" x="43.78125" y="126.45623" style="stroke: #000000; stroke-width: 0.8"/>
      </g>
     </g>
     <g id="text_11">
      <!-- 0.6 -->
      <g transform="translate(20.878125 130.255448) scale(0.1 -0.1)">
       <use xlink:href="#DejaVuSans-30"/>
       <use xlink:href="#DejaVuSans-2e" x="63.623047"/>
       <use xlink:href="#DejaVuSans-36" x="95.410156"/>
      </g>
     </g>
    </g>
    <g id="ytick_5">
     <g id="line2d_11">
      <g>
       <use xlink:href="#m87e51ca639" x="43.78125" y="73.024926" style="stroke: #000000; stroke-width: 0.8"/>
      </g>
     </g>
     <g id="text_12">
      <!-- 0.8 -->
      <g transform="translate(20.878125 76.824145) scale(0.1 -0.1)">
       <use xlink:href="#DejaVuSans-30"/>
       <use xlink:href="#DejaVuSans-2e" x="63.623047"/>
       <use xlink:href="#DejaVuSans-38" x="95.410156"/>
      </g>
     </g>
    </g>
    <g id="ytick_6">
     <g id="line2d_12">
      <g>
       <use xlink:href="#m87e51ca639" x="43.78125" y="19.593623" style="stroke: #000000; stroke-width: 0.8"/>
      </g>
     </g>
     <g id="text_13">
      <!-- 1.0 -->
      <g transform="translate(20.878125 23.392842) scale(0.1 -0.1)">
       <use xlink:href="#DejaVuSans-31"/>
       <use xlink:href="#DejaVuSans-2e" x="63.623047"/>
       <use xlink:href="#DejaVuSans-30" x="95.410156"/>
      </g>
     </g>
    </g>
    <g id="text_14">
     <!-- Cross Track Error (meters) -->
     <g transform="translate(14.798438 218.90125) rotate(-90) scale(0.1 -0.1)">
      <defs>
       <path id="DejaVuSans-43" d="M 4122 4306 
L 4122 3641 
Q 3803 3938 3442 4084 
Q 3081 4231 2675 4231 
Q 1875 4231 1450 3742 
Q 1025 3253 1025 2328 
Q 1025 1406 1450 917 
Q 1875 428 2675 428 
Q 3081 428 3442 575 
Q 3803 722 4122 1019 
L 4122 359 
Q 3791 134 3420 21 
Q 3050 -91 2638 -91 
Q 1578 -91 968 557 
Q 359 1206 359 2328 
Q 359 3453 968 4101 
Q 1578 4750 2638 4750 
Q 3056 4750 3426 4639 
Q 3797 4528 4122 4306 
z
" transform="scale(0.015625)"/>
       <path id="DejaVuSans-72" d="M 2631 2963 
Q 2534 3019 2420 3045 
Q 2306 3072 2169 3072 
Q 1681 3072 1420 2755 
Q 1159 2438 1159 1844 
L 1159 0 
L 581 0 
L 581 3500 
L 1159 3500 
L 1159 2956 
Q 1341 3275 1631 3429 
Q 1922 3584 2338 3584 
Q 2397 3584 2469 3576 
Q 2541 3569 2628 3553 
L 2631 2963 
z
" transform="scale(0.015625)"/>
       <path id="DejaVuSans-61" d="M 2194 1759 
Q 1497 1759 1228 1600 
Q 959 1441 959 1056 
Q 959 750 1161 570 
Q 1363 391 1709 391 
Q 2188 391 2477 730 
Q 2766 1069 2766 1631 
L 2766 1759 
L 2194 1759 
z
M 3341 1997 
L 3341 0 
L 2766 0 
L 2766 531 
Q 2569 213 2275 61 
Q 1981 -91 1556 -91 
Q 1019 -91 701 211 
Q 384 513 384 1019 
Q 384 1609 779 1909 
Q 1175 2209 1959 2209 
L 2766 2209 
L 2766 2266 
Q 2766 2663 2505 2880 
Q 2244 3097 1772 3097 
Q 1472 3097 1187 3025 
Q 903 2953 641 2809 
L 641 3341 
Q 956 3463 1253 3523 
Q 1550 3584 1831 3584 
Q 2591 3584 2966 3190 
Q 3341 2797 3341 1997 
z
" transform="scale(0.015625)"/>
       <path id="DejaVuSans-6b" d="M 581 4863 
L 1159 4863 
L 1159 1991 
L 2875 3500 
L 3609 3500 
L 1753 1863 
L 3688 0 
L 2938 0 
L 1159 1709 
L 1159 0 
L 581 0 
L 581 4863 
z
" transform="scale(0.015625)"/>
       <path id="DejaVuSans-45" d="M 628 4666 
L 3578 4666 
L 3578 4134 
L 1259 4134 
L 1259 2753 
L 3481 2753 
L 3481 2222 
L 1259 2222 
L 1259 531 
L 3634 531 
L 3634 0 
L 628 0 
L 628 4666 
z
" transform="scale(0.015625)"/>
       <path id="DejaVuSans-74" d="M 1172 4494 
L 1172 3500 
L 2356 3500 
L 2356 3053 
L 1172 3053 
L 1172 1153 
Q 1172 725 1289 603 
Q 1406 481 1766 481 
L 2356 481 
L 2356 0 
L 1766 0 
Q 1100 0 847 248 
Q 594 497 594 1153 
L 594 3053 
L 172 3053 
L 172 3500 
L 594 3500 
L 594 4494 
L 1172 4494 
z
" transform="scale(0.015625)"/>
      </defs>
      <use xlink:href="#DejaVuSans-43"/>
      <use xlink:href="#DejaVuSans-72" x="69.824219"/>
      <use xlink:href="#DejaVuSans-6f" x="108.6875"/>
      <use xlink:href="#DejaVuSans-73" x="169.869141"/>
      <use xlink:href="#DejaVuSans-73" x="221.96875"/>
      <use xlink:href="#DejaVuSans-20" x="274.068359"/>
      <use xlink:href="#DejaVuSans-54" x="305.855469"/>
      <use xlink:href="#DejaVuSans-72" x="352.189453"/>
      <use xlink:href="#DejaVuSans-61" x="393.302734"/>
      <use xlink:href="#DejaVuSans-63" x="454.582031"/>
      <use xlink:href="#DejaVuSans-6b" x="509.5625"/>
      <use xlink:href="#DejaVuSans-20" x="567.472656"/>
      <use xlink:href="#DejaVuSans-45" x="599.259766"/>
      <use xlink:href="#DejaVuSans-72" x="662.443359"/>
      <use xlink:href="#DejaVuSans-72" x="701.806641"/>
      <use xlink:href="#DejaVuSans-6f" x="740.669922"/>
      <use xlink:href="#DejaVuSans-72" x="801.851562"/>
      <use xlink:href="#DejaVuSans-20" x="842.964844"/>
      <use xlink:href="#DejaVuSans-28" x="874.751953"/>
      <use xlink:href="#DejaVuSans-6d" x="913.765625"/>
      <use xlink:href="#DejaVuSans-65" x="1011.177734"/>
      <use xlink:href="#DejaVuSans-74" x="1072.701172"/>
      <use xlink:href="#DejaVuSans-65" x="1111.910156"/>
      <use xlink:href="#DejaVuSans-72" x="1173.433594"/>
      <use xlink:href="#DejaVuSans-73" x="1214.546875"/>
      <use xlink:href="#DejaVuSans-29" x="1266.646484"/>
     </g>
    </g>
   </g>
   <g id="line2d_13">
    <path d="M 43.78125 279.433467 
L 45.058329 279.433467 
L 46.335409 275.51907 
L 47.612488 275.51907 
L 48.889567 275.311744 
L 50.166647 275.311744 
L 51.443726 275.62371 
L 55.274964 275.693868 
L 57.829123 275.748208 
L 59.106202 275.997749 
L 60.383282 275.997749 
L 61.660361 275.596864 
L 62.93744 275.596864 
L 64.21452 275.976048 
L 65.491599 275.976048 
L 66.768679 276.511553 
L 68.045758 276.511553 
L 69.322837 277.177993 
L 70.599917 277.177993 
L 71.876996 276.235227 
L 73.154075 276.235227 
L 74.431155 276.363225 
L 83.37071 276.299245 
L 84.64779 275.922596 
L 85.924869 275.922596 
L 87.201948 276.366763 
L 88.479028 276.366763 
L 89.756107 276.025036 
L 91.033187 276.025036 
L 92.310266 276.215507 
L 93.587345 276.215507 
L 94.864425 275.488281 
L 96.141504 275.488281 
L 97.418583 274.081266 
L 98.695663 274.081266 
L 99.972742 273.929252 
L 101.249821 273.929252 
L 102.526901 271.735096 
L 103.80398 271.735096 
L 105.08106 267.365242 
L 106.358139 267.365242 
L 107.635218 267.690154 
L 108.912298 267.690154 
L 110.189377 266.261503 
L 111.466456 266.261503 
L 112.743536 262.692333 
L 114.020615 262.692333 
L 115.297694 260.197319 
L 116.574774 260.197319 
L 117.851853 266.355129 
L 119.128933 266.355129 
L 120.406012 263.544377 
L 121.683091 263.544377 
L 122.960171 258.641759 
L 124.23725 258.641759 
L 125.514329 258.496651 
L 126.791409 258.496651 
L 128.068488 258.37783 
L 129.345567 258.37783 
L 130.622647 252.531909 
L 131.899726 252.531909 
L 133.176806 258.171221 
L 134.453885 258.171221 
L 135.730964 257.818624 
L 137.008044 257.818624 
L 138.285123 259.937867 
L 139.562202 259.937867 
L 140.839282 260.530499 
L 142.116361 260.530499 
L 143.39344 256.40177 
L 144.67052 256.40177 
L 145.947599 256.987227 
L 147.224679 256.987227 
L 148.501758 253.27838 
L 149.778837 253.27838 
L 151.055917 245.107208 
L 152.332996 245.107208 
L 153.610075 247.301751 
L 154.887155 247.301751 
L 156.164234 248.1031 
L 157.441313 248.1031 
L 158.718393 245.024351 
L 159.995472 245.024351 
L 161.272552 244.323386 
L 162.549631 244.323386 
L 163.82671 240.276358 
L 165.10379 240.276358 
L 166.380869 238.442097 
L 167.657948 238.442097 
L 168.935028 243.484015 
L 170.212107 243.484015 
L 171.489187 240.870276 
L 172.766266 240.870276 
L 174.043345 243.131869 
L 175.320425 243.131869 
L 176.597504 232.587781 
L 177.874583 232.587781 
L 179.151663 225.323899 
L 180.428742 225.323899 
L 181.705821 257.065665 
L 182.982901 257.065665 
L 184.25998 254.311311 
L 185.53706 254.311311 
L 186.814139 252.302204 
L 188.091218 252.302204 
L 189.368298 249.793387 
L 190.645377 249.793387 
L 191.922456 232.982932 
L 193.199536 232.982932 
L 194.476615 226.659468 
L 195.753694 226.659468 
L 197.030774 212.332194 
L 198.307853 212.332194 
L 199.584933 199.135794 
L 200.862012 199.135794 
L 202.139091 224.43079 
L 203.416171 224.43079 
L 204.69325 251.72347 
L 205.970329 251.72347 
L 207.247409 215.669444 
L 208.524488 215.669444 
L 209.801567 214.455675 
L 211.078647 214.455675 
L 212.355726 212.558428 
L 213.632806 212.558428 
L 214.909885 211.965183 
L 216.186964 211.965183 
L 217.464044 214.689553 
L 218.741123 214.689553 
L 220.018202 214.874702 
L 221.295282 214.874702 
L 222.572361 207.977591 
L 223.84944 207.977591 
L 225.12652 209.217784 
L 226.403599 209.217784 
L 227.680679 207.127754 
L 228.957758 207.127754 
L 230.234837 208.640184 
L 231.511917 208.640184 
L 232.788996 206.988452 
L 234.066075 206.988452 
L 235.343155 205.504787 
L 236.620234 205.504787 
L 237.897313 204.599584 
L 239.174393 204.599584 
L 240.451472 202.304547 
L 241.728552 202.304547 
L 243.005631 209.026836 
L 244.28271 209.026836 
L 245.55979 207.572077 
L 246.836869 207.572077 
L 248.113948 206.3188 
L 249.391028 206.3188 
L 250.668107 204.673874 
L 251.945187 204.673874 
L 253.222266 210.093839 
L 254.499345 210.093839 
L 255.776425 201.587598 
L 257.053504 201.587598 
L 258.330583 201.945978 
L 259.607663 201.945978 
L 260.884742 199.695653 
L 262.161821 199.695653 
L 263.438901 199.128794 
L 264.71598 199.128794 
L 265.99306 205.192968 
L 267.270139 205.192968 
L 268.547218 196.071079 
L 269.824298 196.071079 
L 271.101377 193.404231 
L 272.378456 193.404231 
L 273.655536 201.056038 
L 274.932615 201.056038 
L 276.209694 200.193049 
L 277.486774 200.193049 
L 278.763853 197.034361 
L 280.040933 197.034361 
L 281.318012 189.769899 
L 282.595091 189.769899 
L 283.872171 192.980627 
L 285.14925 192.980627 
L 286.426329 191.103475 
L 287.703409 191.103475 
L 288.980488 196.877666 
L 290.257567 196.877666 
L 291.534647 194.026421 
L 292.811726 194.026421 
L 294.088806 188.880082 
L 295.365885 188.880082 
L 296.642964 193.766771 
L 297.920044 193.766771 
L 299.197123 189.021154 
L 300.474202 189.021154 
L 301.751282 194.118617 
L 303.028361 194.118617 
L 304.30544 187.479049 
L 305.58252 187.479049 
L 306.859599 180.742248 
L 308.136679 180.742248 
L 309.413758 191.558636 
L 310.690837 191.558636 
L 311.967917 189.003706 
L 313.244996 189.003706 
L 314.522075 198.366118 
L 315.799155 198.366118 
L 317.076234 180.000575 
L 318.353313 180.000575 
L 319.630393 175.150554 
L 320.907472 175.150554 
L 322.184552 192.493159 
L 323.461631 192.493159 
L 324.73871 188.622383 
L 328.569948 188.616113 
L 329.847028 186.639425 
L 331.124107 186.639425 
L 332.401187 172.411447 
L 333.678266 172.411447 
L 334.955345 190.775541 
L 336.232425 190.775541 
L 337.509504 190.45836 
L 338.786583 190.45836 
L 340.063663 198.731255 
L 341.340742 198.731255 
L 342.617821 184.402404 
L 343.894901 184.402404 
L 345.17198 190.77678 
L 346.44906 190.77678 
L 347.726139 189.039491 
L 349.003218 189.039491 
L 350.280298 191.095926 
L 351.557377 191.095926 
L 352.834456 196.586762 
L 354.111536 196.586762 
L 355.388615 184.362184 
L 356.665694 184.362184 
L 357.942774 189.722674 
L 359.219853 189.722674 
L 360.496933 187.218289 
L 361.774012 187.218289 
L 363.051091 193.680016 
L 364.328171 193.680016 
L 365.60525 183.115027 
L 366.882329 183.115027 
L 368.159409 198.575574 
L 369.436488 198.575574 
L 370.713567 189.676045 
L 371.990647 189.676045 
L 373.267726 185.419693 
L 374.544806 185.419693 
L 375.821885 178.955965 
L 377.098964 178.955965 
L 378.376044 156.937663 
L 379.653123 156.937663 
L 380.930202 208.867188 
L 382.207282 208.867188 
L 383.484361 185.425968 
L 384.76144 185.425968 
L 386.03852 156.783351 
L 387.315599 156.783351 
L 388.592679 146.918038 
L 389.869758 146.918038 
L 391.146837 185.434669 
L 392.423917 185.434669 
L 393.700996 178.019098 
L 394.978075 178.019098 
L 396.255155 176.105986 
L 397.532234 176.105986 
L 398.809313 172.492679 
L 400.086393 172.492679 
L 401.363472 167.229499 
L 402.640552 167.229499 
L 403.917631 183.090588 
L 405.19471 183.090588 
L 406.47179 178.444468 
L 407.748869 178.444468 
L 409.025948 180.480592 
L 410.303028 180.480592 
L 411.580107 174.992335 
L 412.857187 174.992335 
L 414.134266 194.996701 
L 415.411345 194.996701 
L 416.688425 185.43048 
L 417.965504 185.43048 
L 419.242583 186.158702 
L 420.519663 186.158702 
L 421.796742 179.499587 
L 423.073821 179.499587 
L 424.350901 176.097652 
L 425.62798 176.097652 
L 426.90506 193.220511 
L 428.182139 193.220511 
L 429.459218 185.202605 
L 430.736298 185.202605 
L 432.013377 181.753432 
L 433.290456 181.753432 
L 434.567536 175.036149 
L 435.844615 175.036149 
L 437.121694 188.069872 
L 438.398774 188.069872 
L 439.675853 180.696241 
L 440.952933 180.696241 
L 442.230012 176.806085 
L 443.507091 176.806085 
L 444.784171 173.183972 
L 446.06125 173.183972 
L 447.338329 158.70974 
L 448.615409 158.70974 
L 449.892488 181.175566 
L 451.169567 181.175566 
L 452.446647 173.561298 
L 453.723726 173.561298 
L 454.26125 175.744735 
L 454.26125 175.744735 
" clip-path="url(#p4b12d13102)" style="fill: none; stroke: #1f77b4; stroke-width: 1.5; stroke-linecap: square"/>
   </g>
   <g id="line2d_14">
    <path d="M 43.78125 284.520342 
L 45.058329 284.520342 
L 46.335409 285.400815 
L 47.612488 285.400815 
L 48.889567 284.922017 
L 50.166647 284.922017 
L 51.443726 285.369471 
L 55.274964 285.327786 
L 56.552044 284.333391 
L 57.829123 284.333391 
L 59.106202 284.853872 
L 60.383282 284.853872 
L 61.660361 285.305254 
L 62.93744 285.305254 
L 64.21452 284.567643 
L 65.491599 284.567643 
L 66.768679 283.803077 
L 68.045758 283.803077 
L 69.322837 284.623139 
L 73.154075 284.613958 
L 74.431155 283.396982 
L 75.708234 283.396982 
L 76.985313 284.283525 
L 78.262393 284.283525 
L 79.539472 283.420987 
L 80.816552 283.420987 
L 82.093631 283.797244 
L 83.37071 283.797244 
L 84.64779 283.543731 
L 85.924869 283.543731 
L 87.201948 284.263636 
L 91.033187 284.220649 
L 92.310266 284.099136 
L 93.587345 284.099136 
L 94.864425 283.980051 
L 98.695663 283.930972 
L 99.972742 283.432181 
L 101.249821 283.432181 
L 102.526901 283.172977 
L 103.80398 283.172977 
L 105.08106 284.520757 
L 106.358139 284.520757 
L 107.635218 285.654283 
L 108.912298 285.654283 
L 110.189377 286.21967 
L 111.466456 286.21967 
L 112.743536 284.410144 
L 114.020615 284.410144 
L 115.297694 285.786324 
L 116.574774 285.786324 
L 117.851853 286.531644 
L 119.128933 286.531644 
L 120.406012 283.660585 
L 121.683091 283.660585 
L 122.960171 286.64339 
L 124.23725 286.64339 
L 125.514329 283.582341 
L 126.791409 283.582341 
L 128.068488 285.962837 
L 129.345567 285.962837 
L 130.622647 285.643202 
L 131.899726 285.643202 
L 133.176806 285.330262 
L 134.453885 285.330262 
L 135.730964 286.688458 
L 137.008044 286.688458 
L 138.285123 285.473538 
L 139.562202 285.473538 
L 140.839282 283.860211 
L 142.116361 283.860211 
L 143.39344 285.64019 
L 144.67052 285.64019 
L 145.947599 284.699793 
L 147.224679 284.699793 
L 148.501758 286.090405 
L 149.778837 286.090405 
L 151.055917 284.942312 
L 152.332996 284.942312 
L 153.610075 282.02164 
L 154.887155 282.02164 
L 156.164234 283.617928 
L 157.441313 283.617928 
L 158.718393 283.168585 
L 159.995472 283.168585 
L 161.272552 282.067875 
L 162.549631 282.067875 
L 163.82671 279.985604 
L 165.10379 279.985604 
L 166.380869 277.841145 
L 167.657948 277.841145 
L 168.935028 279.810258 
L 170.212107 279.810258 
L 171.489187 283.421338 
L 172.766266 283.421338 
L 174.043345 284.331143 
L 175.320425 284.331143 
L 176.597504 282.442271 
L 177.874583 282.442271 
L 179.151663 281.094491 
L 180.428742 281.094491 
L 181.705821 283.022214 
L 182.982901 283.022214 
L 184.25998 284.764742 
L 185.53706 284.764742 
L 186.814139 275.170702 
L 188.091218 275.170702 
L 189.368298 273.722431 
L 190.645377 273.722431 
L 191.922456 275.382893 
L 193.199536 275.382893 
L 194.476615 275.742842 
L 195.753694 275.742842 
L 197.030774 282.737674 
L 198.307853 282.737674 
L 199.584933 285.381057 
L 200.862012 285.381057 
L 202.139091 282.235204 
L 203.416171 282.235204 
L 204.69325 255.185226 
L 205.970329 255.185226 
L 207.247409 232.564248 
L 208.524488 232.564248 
L 209.801567 274.469033 
L 211.078647 274.469033 
L 212.355726 285.605908 
L 213.632806 285.605908 
L 214.909885 286.321266 
L 216.186964 286.321266 
L 217.464044 282.181327 
L 221.295282 282.085446 
L 222.572361 280.538815 
L 223.84944 280.538815 
L 225.12652 281.54163 
L 226.403599 281.54163 
L 227.680679 284.061286 
L 228.957758 284.061286 
L 230.234837 286.584997 
L 234.066075 286.673888 
L 235.343155 283.425896 
L 236.620234 283.425896 
L 237.897313 283.013514 
L 239.174393 283.013514 
L 240.451472 281.696139 
L 241.728552 281.696139 
L 243.005631 275.676863 
L 244.28271 275.676863 
L 245.55979 273.243713 
L 246.836869 273.243713 
L 248.113948 272.892633 
L 249.391028 272.892633 
L 250.668107 269.525227 
L 251.945187 269.525227 
L 253.222266 270.378174 
L 254.499345 270.378174 
L 255.776425 270.825249 
L 257.053504 270.825249 
L 258.330583 271.483229 
L 259.607663 271.483229 
L 260.884742 274.070745 
L 262.161821 274.070745 
L 263.438901 273.36935 
L 264.71598 273.36935 
L 265.99306 275.937021 
L 267.270139 275.937021 
L 268.547218 277.003857 
L 269.824298 277.003857 
L 271.101377 281.556479 
L 272.378456 281.556479 
L 273.655536 279.566211 
L 274.932615 279.566211 
L 276.209694 278.833501 
L 277.486774 278.833501 
L 278.763853 279.295287 
L 280.040933 279.295287 
L 281.318012 274.8772 
L 282.595091 274.8772 
L 283.872171 277.676705 
L 285.14925 277.676705 
L 286.426329 286.706941 
L 287.703409 286.706941 
L 288.980488 283.652654 
L 290.257567 283.652654 
L 291.534647 279.77553 
L 292.811726 279.77553 
L 294.088806 280.472184 
L 295.365885 280.472184 
L 296.642964 274.873561 
L 297.920044 274.873561 
L 299.197123 281.804126 
L 300.474202 281.804126 
L 301.751282 278.49551 
L 303.028361 278.49551 
L 304.30544 272.142855 
L 305.58252 272.142855 
L 306.859599 268.975696 
L 308.136679 268.975696 
L 309.413758 275.855346 
L 310.690837 275.855346 
L 311.967917 282.682681 
L 313.244996 282.682681 
L 314.522075 277.190431 
L 315.799155 277.190431 
L 317.076234 270.396689 
L 318.353313 270.396689 
L 319.630393 272.965656 
L 320.907472 272.965656 
L 322.184552 280.184618 
L 323.461631 280.184618 
L 324.73871 274.226816 
L 326.01579 274.226816 
L 327.292869 275.943601 
L 328.569948 275.943601 
L 329.847028 274.928066 
L 331.124107 274.928066 
L 332.401187 277.402128 
L 333.678266 277.402128 
L 334.955345 276.561111 
L 338.786583 276.546966 
L 340.063663 275.626427 
L 341.340742 275.626427 
L 342.617821 275.942038 
L 343.894901 275.942038 
L 345.17198 276.504302 
L 346.44906 276.504302 
L 347.726139 273.945904 
L 349.003218 273.945904 
L 350.280298 274.925663 
L 351.557377 274.925663 
L 352.834456 275.494458 
L 354.111536 275.494458 
L 355.388615 274.30798 
L 356.665694 274.30798 
L 357.942774 277.626694 
L 359.219853 277.626694 
L 360.496933 273.224597 
L 361.774012 273.224597 
L 363.051091 271.659003 
L 364.328171 271.659003 
L 365.60525 272.621945 
L 366.882329 272.621945 
L 368.159409 278.063343 
L 369.436488 278.063343 
L 370.713567 274.937881 
L 371.990647 274.937881 
L 373.267726 277.089346 
L 374.544806 277.089346 
L 375.821885 280.224731 
L 377.098964 280.224731 
L 378.376044 275.369341 
L 379.653123 275.369341 
L 380.930202 271.596227 
L 382.207282 271.596227 
L 383.484361 275.259447 
L 384.76144 275.259447 
L 386.03852 277.650782 
L 387.315599 277.650782 
L 388.592679 276.810785 
L 389.869758 276.810785 
L 391.146837 276.694374 
L 392.423917 276.694374 
L 393.700996 277.221493 
L 394.978075 277.221493 
L 396.255155 276.549325 
L 397.532234 276.549325 
L 398.809313 273.947647 
L 400.086393 273.947647 
L 401.363472 275.313208 
L 402.640552 275.313208 
L 403.917631 277.882964 
L 405.19471 277.882964 
L 406.47179 275.614497 
L 407.748869 275.614497 
L 409.025948 274.85306 
L 410.303028 274.85306 
L 411.580107 275.353907 
L 412.857187 275.353907 
L 414.134266 279.589193 
L 415.411345 279.589193 
L 416.688425 278.920303 
L 417.965504 278.920303 
L 419.242583 276.184833 
L 420.519663 276.184833 
L 421.796742 270.230048 
L 423.073821 270.230048 
L 424.350901 267.643617 
L 425.62798 267.643617 
L 426.90506 272.845187 
L 428.182139 272.845187 
L 429.459218 274.966146 
L 430.736298 274.966146 
L 432.013377 273.157718 
L 433.290456 273.157718 
L 434.567536 271.026402 
L 435.844615 271.026402 
L 437.121694 271.596726 
L 438.398774 271.596726 
L 439.675853 276.029962 
L 440.952933 276.029962 
L 442.230012 273.916522 
L 443.507091 273.916522 
L 444.784171 271.787996 
L 448.615409 271.711713 
L 449.892488 275.88212 
L 451.169567 275.88212 
L 452.446647 280.044808 
L 453.723726 280.044808 
L 454.26125 278.97922 
L 454.26125 278.97922 
" clip-path="url(#p4b12d13102)" style="fill: none; stroke: #ff7f0e; stroke-width: 1.5; stroke-linecap: square"/>
   </g>
   <g id="line2d_15">
    <path d="M 43.78125 279.89569 
L 45.058329 279.89569 
L 46.335409 275.543906 
L 47.612488 275.543906 
L 48.889567 274.989289 
L 52.720806 274.963951 
L 53.997885 275.565648 
L 55.274964 275.565648 
L 56.552044 275.427195 
L 57.829123 275.427195 
L 59.106202 275.567085 
L 62.93744 275.583018 
L 64.21452 275.369132 
L 65.491599 275.369132 
L 66.768679 276.100266 
L 68.045758 276.100266 
L 69.322837 277.073722 
L 70.599917 277.073722 
L 71.876996 275.951702 
L 75.708234 275.981264 
L 76.985313 276.276143 
L 78.262393 276.276143 
L 79.539472 276.16102 
L 80.816552 276.16102 
L 82.093631 275.908095 
L 83.37071 275.908095 
L 84.64779 275.670478 
L 85.924869 275.670478 
L 87.201948 276.173073 
L 88.479028 276.173073 
L 89.756107 275.827182 
L 91.033187 275.827182 
L 92.310266 275.967989 
L 93.587345 275.967989 
L 94.864425 275.318677 
L 96.141504 275.318677 
L 97.418583 275.567765 
L 98.695663 275.567765 
L 99.972742 275.34051 
L 101.249821 275.34051 
L 102.526901 270.593459 
L 103.80398 270.593459 
L 105.08106 274.716673 
L 106.358139 274.716673 
L 107.635218 269.808943 
L 108.912298 269.808943 
L 110.189377 270.038628 
L 111.466456 270.038628 
L 112.743536 266.331119 
L 114.020615 266.331119 
L 115.297694 260.662082 
L 116.574774 260.662082 
L 117.851853 263.861804 
L 119.128933 263.861804 
L 120.406012 261.555622 
L 121.683091 261.555622 
L 122.960171 264.406264 
L 124.23725 264.406264 
L 125.514329 254.915757 
L 126.791409 254.915757 
L 128.068488 262.192861 
L 129.345567 262.192861 
L 130.622647 254.729687 
L 131.899726 254.729687 
L 133.176806 255.964001 
L 134.453885 255.964001 
L 135.730964 257.536199 
L 137.008044 257.536199 
L 138.285123 256.815085 
L 139.562202 256.815085 
L 140.839282 260.302256 
L 142.116361 260.302256 
L 143.39344 260.133131 
L 144.67052 260.133131 
L 145.947599 257.990872 
L 147.224679 257.990872 
L 148.501758 256.237763 
L 149.778837 256.237763 
L 151.055917 252.742389 
L 152.332996 252.742389 
L 153.610075 247.151144 
L 154.887155 247.151144 
L 156.164234 246.818096 
L 157.441313 246.818096 
L 158.718393 245.3656 
L 159.995472 245.3656 
L 161.272552 248.13457 
L 162.549631 248.13457 
L 163.82671 240.443222 
L 165.10379 240.443222 
L 166.380869 239.1716 
L 170.212107 239.11004 
L 171.489187 243.149097 
L 172.766266 243.149097 
L 174.043345 244.47874 
L 175.320425 244.47874 
L 176.597504 246.77285 
L 177.874583 246.77285 
L 179.151663 251.02287 
L 180.428742 251.02287 
L 181.705821 279.968175 
L 182.982901 279.968175 
L 184.25998 272.6988 
L 185.53706 272.6988 
L 186.814139 278.558345 
L 188.091218 278.558345 
L 189.368298 281.647213 
L 190.645377 281.647213 
L 191.922456 285.266324 
L 193.199536 285.266324 
L 194.476615 284.324485 
L 195.753694 284.324485 
L 197.030774 281.623866 
L 198.307853 281.623866 
L 199.584933 276.406006 
L 200.862012 276.406006 
L 202.139091 269.206636 
L 203.416171 269.206636 
L 204.69325 253.421233 
L 205.970329 253.421233 
L 207.247409 276.563391 
L 208.524488 276.563391 
L 209.801567 280.382384 
L 213.632806 280.353867 
L 214.909885 281.042896 
L 216.186964 281.042896 
L 217.464044 286.141741 
L 218.741123 286.141741 
L 220.018202 283.807308 
L 221.295282 283.807308 
L 222.572361 276.532625 
L 223.84944 276.532625 
L 225.12652 276.652557 
L 226.403599 276.652557 
L 227.680679 278.909448 
L 228.957758 278.909448 
L 230.234837 275.295262 
L 234.066075 275.373486 
L 235.343155 278.198567 
L 236.620234 278.198567 
L 237.897313 278.703065 
L 239.174393 278.703065 
L 240.451472 282.021459 
L 241.728552 282.021459 
L 243.005631 283.876894 
L 244.28271 283.876894 
L 245.55979 278.971798 
L 246.836869 278.971798 
L 248.113948 285.69431 
L 249.391028 285.69431 
L 250.668107 282.006847 
L 251.945187 282.006847 
L 253.222266 277.677337 
L 257.053504 277.787846 
L 258.330583 282.380456 
L 259.607663 282.380456 
L 260.884742 281.122013 
L 262.161821 281.122013 
L 263.438901 282.68411 
L 264.71598 282.68411 
L 265.99306 281.463111 
L 267.270139 281.463111 
L 268.547218 286.729091 
L 269.824298 286.729091 
L 271.101377 282.476486 
L 272.378456 282.476486 
L 273.655536 286.612883 
L 274.932615 286.612883 
L 276.209694 283.512025 
L 277.486774 283.512025 
L 278.763853 286.068147 
L 280.040933 286.068147 
L 281.318012 285.158123 
L 282.595091 285.158123 
L 283.872171 286.237577 
L 285.14925 286.237577 
L 286.426329 282.294022 
L 287.703409 282.294022 
L 288.980488 280.894811 
L 290.257567 280.894811 
L 291.534647 278.539628 
L 292.811726 278.539628 
L 294.088806 281.092051 
L 295.365885 281.092051 
L 296.642964 285.900697 
L 297.920044 285.900697 
L 299.197123 283.670336 
L 300.474202 283.670336 
L 301.751282 282.090131 
L 303.028361 282.090131 
L 304.30544 280.402611 
L 305.58252 280.402611 
L 306.859599 286.714038 
L 308.136679 286.714038 
L 309.413758 282.169736 
L 310.690837 282.169736 
L 311.967917 286.439413 
L 313.244996 286.439413 
L 314.522075 278.373335 
L 315.799155 278.373335 
L 317.076234 272.915374 
L 318.353313 272.915374 
L 319.630393 272.622415 
L 320.907472 272.622415 
L 322.184552 268.773722 
L 323.461631 268.773722 
L 324.73871 271.629788 
L 326.01579 271.629788 
L 327.292869 279.817608 
L 328.569948 279.817608 
L 329.847028 272.236392 
L 331.124107 272.236392 
L 332.401187 265.273983 
L 333.678266 265.273983 
L 334.955345 263.979229 
L 336.232425 263.979229 
L 337.509504 261.876459 
L 338.786583 261.876459 
L 340.063663 259.65332 
L 341.340742 259.65332 
L 342.617821 260.665924 
L 343.894901 260.665924 
L 345.17198 265.628568 
L 346.44906 265.628568 
L 347.726139 263.448458 
L 349.003218 263.448458 
L 350.280298 261.558318 
L 351.557377 261.558318 
L 352.834456 262.109864 
L 354.111536 262.109864 
L 355.388615 261.665385 
L 356.665694 261.665385 
L 357.942774 264.891472 
L 359.219853 264.891472 
L 360.496933 269.571849 
L 361.774012 269.571849 
L 363.051091 267.61339 
L 364.328171 267.61339 
L 365.60525 268.981831 
L 369.436488 268.936957 
L 370.713567 269.673634 
L 371.990647 269.673634 
L 373.267726 272.032258 
L 374.544806 272.032258 
L 375.821885 273.982424 
L 377.098964 273.982424 
L 378.376044 272.050681 
L 379.653123 272.050681 
L 380.930202 270.091984 
L 382.207282 270.091984 
L 383.484361 272.316403 
L 384.76144 272.316403 
L 386.03852 275.376962 
L 387.315599 275.376962 
L 388.592679 269.864736 
L 389.869758 269.864736 
L 391.146837 267.508396 
L 392.423917 267.508396 
L 393.700996 268.541207 
L 394.978075 268.541207 
L 396.255155 268.416986 
L 397.532234 268.416986 
L 398.809313 266.409301 
L 400.086393 266.409301 
L 401.363472 263.198125 
L 402.640552 263.198125 
L 403.917631 263.825204 
L 407.748869 263.714513 
L 409.025948 258.173354 
L 410.303028 258.173354 
L 411.580107 260.22709 
L 412.857187 260.22709 
L 414.134266 261.192929 
L 415.411345 261.192929 
L 416.688425 263.982585 
L 417.965504 263.982585 
L 419.242583 263.107738 
L 420.519663 263.107738 
L 421.796742 257.922385 
L 423.073821 257.922385 
L 424.350901 260.702466 
L 425.62798 260.702466 
L 426.90506 262.468998 
L 428.182139 262.468998 
L 429.459218 263.786914 
L 430.736298 263.786914 
L 432.013377 264.268116 
L 433.290456 264.268116 
L 434.567536 258.447186 
L 435.844615 258.447186 
L 437.121694 265.218914 
L 438.398774 265.218914 
L 439.675853 265.38827 
L 440.952933 265.38827 
L 442.230012 269.463197 
L 443.507091 269.463197 
L 444.784171 265.803742 
L 446.06125 265.803742 
L 447.338329 269.543954 
L 448.615409 269.543954 
L 449.892488 274.769532 
L 451.169567 274.769532 
L 452.446647 278.373517 
L 453.723726 278.373517 
L 454.26125 277.756543 
L 454.26125 277.756543 
" clip-path="url(#p4b12d13102)" style="fill: none; stroke: #2ca02c; stroke-width: 1.5; stroke-linecap: square"/>
   </g>
   <g id="patch_3">
    <path d="M 43.78125 300.04 
L 43.78125 7.2 
" style="fill: none; stroke: #000000; stroke-width: 0.8; stroke-linejoin: miter; stroke-linecap: square"/>
   </g>
   <g id="patch_4">
    <path d="M 446.06125 300.04 
L 446.06125 7.2 
" style="fill: none; stroke: #000000; stroke-width: 0.8; stroke-linejoin: miter; stroke-linecap: square"/>
   </g>
   <g id="patch_5">
    <path d="M 43.78125 300.04 
L 446.06125 300.04 
" style="fill: none; stroke: #000000; stroke-width: 0.8; stroke-linejoin: miter; stroke-linecap: square"/>
   </g>
   <g id="patch_6">
    <path d="M 43.78125 7.2 
L 446.06125 7.2 
" style="fill: none; stroke: #000000; stroke-width: 0.8; stroke-linejoin: miter; stroke-linecap: square"/>
   </g>
   <g id="legend_1">
    <g id="patch_7">
     <path d="M 341.469062 59.234375 
L 439.06125 59.234375 
Q 441.06125 59.234375 441.06125 57.234375 
L 441.06125 14.2 
Q 441.06125 12.2 439.06125 12.2 
L 341.469062 12.2 
Q 339.469062 12.2 339.469062 14.2 
L 339.469062 57.234375 
Q 339.469062 59.234375 341.469062 59.234375 
z
" style="fill: #ffffff; opacity: 0.8; stroke: #cccccc; stroke-linejoin: miter"/>
    </g>
    <g id="line2d_16">
     <path d="M 343.469062 20.298437 
L 353.469062 20.298437 
L 363.469062 20.298437 
" style="fill: none; stroke: #1f77b4; stroke-width: 1.5; stroke-linecap: square"/>
    </g>
    <g id="text_15">
     <!-- no calib. -->
     <g transform="translate(371.469062 23.798437) scale(0.1 -0.1)">
      <defs>
       <path id="DejaVuSans-6c" d="M 603 4863 
L 1178 4863 
L 1178 0 
L 603 0 
L 603 4863 
z
" transform="scale(0.015625)"/>
       <path id="DejaVuSans-62" d="M 3116 1747 
Q 3116 2381 2855 2742 
Q 2594 3103 2138 3103 
Q 1681 3103 1420 2742 
Q 1159 2381 1159 1747 
Q 1159 1113 1420 752 
Q 1681 391 2138 391 
Q 2594 391 2855 752 
Q 3116 1113 3116 1747 
z
M 1159 2969 
Q 1341 3281 1617 3432 
Q 1894 3584 2278 3584 
Q 2916 3584 3314 3078 
Q 3713 2572 3713 1747 
Q 3713 922 3314 415 
Q 2916 -91 2278 -91 
Q 1894 -91 1617 61 
Q 1341 213 1159 525 
L 1159 0 
L 581 0 
L 581 4863 
L 1159 4863 
L 1159 2969 
z
" transform="scale(0.015625)"/>
      </defs>
      <use xlink:href="#DejaVuSans-6e"/>
      <use xlink:href="#DejaVuSans-6f" x="63.378906"/>
      <use xlink:href="#DejaVuSans-20" x="124.560547"/>
      <use xlink:href="#DejaVuSans-63" x="156.347656"/>
      <use xlink:href="#DejaVuSans-61" x="211.328125"/>
      <use xlink:href="#DejaVuSans-6c" x="272.607422"/>
      <use xlink:href="#DejaVuSans-69" x="300.390625"/>
      <use xlink:href="#DejaVuSans-62" x="328.173828"/>
      <use xlink:href="#DejaVuSans-2e" x="391.650391"/>
     </g>
    </g>
    <g id="line2d_17">
     <path d="M 343.469062 34.976562 
L 353.469062 34.976562 
L 363.469062 34.976562 
" style="fill: none; stroke: #ff7f0e; stroke-width: 1.5; stroke-linecap: square"/>
    </g>
    <g id="text_16">
     <!-- perfect calib. -->
     <g transform="translate(371.469062 38.476562) scale(0.1 -0.1)">
      <defs>
       <path id="DejaVuSans-70" d="M 1159 525 
L 1159 -1331 
L 581 -1331 
L 581 3500 
L 1159 3500 
L 1159 2969 
Q 1341 3281 1617 3432 
Q 1894 3584 2278 3584 
Q 2916 3584 3314 3078 
Q 3713 2572 3713 1747 
Q 3713 922 3314 415 
Q 2916 -91 2278 -91 
Q 1894 -91 1617 61 
Q 1341 213 1159 525 
z
M 3116 1747 
Q 3116 2381 2855 2742 
Q 2594 3103 2138 3103 
Q 1681 3103 1420 2742 
Q 1159 2381 1159 1747 
Q 1159 1113 1420 752 
Q 1681 391 2138 391 
Q 2594 391 2855 752 
Q 3116 1113 3116 1747 
z
" transform="scale(0.015625)"/>
       <path id="DejaVuSans-66" d="M 2375 4863 
L 2375 4384 
L 1825 4384 
Q 1516 4384 1395 4259 
Q 1275 4134 1275 3809 
L 1275 3500 
L 2222 3500 
L 2222 3053 
L 1275 3053 
L 1275 0 
L 697 0 
L 697 3053 
L 147 3053 
L 147 3500 
L 697 3500 
L 697 3744 
Q 697 4328 969 4595 
Q 1241 4863 1831 4863 
L 2375 4863 
z
" transform="scale(0.015625)"/>
      </defs>
      <use xlink:href="#DejaVuSans-70"/>
      <use xlink:href="#DejaVuSans-65" x="63.476562"/>
      <use xlink:href="#DejaVuSans-72" x="125"/>
      <use xlink:href="#DejaVuSans-66" x="166.113281"/>
      <use xlink:href="#DejaVuSans-65" x="201.318359"/>
      <use xlink:href="#DejaVuSans-63" x="262.841797"/>
      <use xlink:href="#DejaVuSans-74" x="317.822266"/>
      <use xlink:href="#DejaVuSans-20" x="357.03125"/>
      <use xlink:href="#DejaVuSans-63" x="388.818359"/>
      <use xlink:href="#DejaVuSans-61" x="443.798828"/>
      <use xlink:href="#DejaVuSans-6c" x="505.078125"/>
      <use xlink:href="#DejaVuSans-69" x="532.861328"/>
      <use xlink:href="#DejaVuSans-62" x="560.644531"/>
      <use xlink:href="#DejaVuSans-2e" x="624.121094"/>
     </g>
    </g>
    <g id="line2d_18">
     <path d="M 343.469062 49.654687 
L 353.469062 49.654687 
L 363.469062 49.654687 
" style="fill: none; stroke: #2ca02c; stroke-width: 1.5; stroke-linecap: square"/>
    </g>
    <g id="text_17">
     <!-- VP calib. -->
     <g transform="translate(371.469062 53.154687) scale(0.1 -0.1)">
      <defs>
       <path id="DejaVuSans-56" d="M 1831 0 
L 50 4666 
L 709 4666 
L 2188 738 
L 3669 4666 
L 4325 4666 
L 2547 0 
L 1831 0 
z
" transform="scale(0.015625)"/>
       <path id="DejaVuSans-50" d="M 1259 4147 
L 1259 2394 
L 2053 2394 
Q 2494 2394 2734 2622 
Q 2975 2850 2975 3272 
Q 2975 3691 2734 3919 
Q 2494 4147 2053 4147 
L 1259 4147 
z
M 628 4666 
L 2053 4666 
Q 2838 4666 3239 4311 
Q 3641 3956 3641 3272 
Q 3641 2581 3239 2228 
Q 2838 1875 2053 1875 
L 1259 1875 
L 1259 0 
L 628 0 
L 628 4666 
z
" transform="scale(0.015625)"/>
      </defs>
      <use xlink:href="#DejaVuSans-56"/>
      <use xlink:href="#DejaVuSans-50" x="68.408203"/>
      <use xlink:href="#DejaVuSans-20" x="128.710938"/>
      <use xlink:href="#DejaVuSans-63" x="160.498047"/>
      <use xlink:href="#DejaVuSans-61" x="215.478516"/>
      <use xlink:href="#DejaVuSans-6c" x="276.757812"/>
      <use xlink:href="#DejaVuSans-69" x="304.541016"/>
      <use xlink:href="#DejaVuSans-62" x="332.324219"/>
      <use xlink:href="#DejaVuSans-2e" x="395.800781"/>
     </g>
    </g>
   </g>
  </g>
 </g>
 <defs>
  <clipPath id="p4b12d13102">
   <rect x="43.78125" y="7.2" width="402.28" height="292.84"/>
  </clipPath>
 </defs>
</svg>