<?xml version="1.0" encoding="utf-8" standalone="no"?>
<!DOCTYPE svg PUBLIC "-//W3C//DTD SVG 1.1//EN"
  "http://www.w3.org/Graphics/SVG/1.1/DTD/svg11.dtd">
<svg xmlns:xlink="http://www.w3.org/1999/xlink" width="424.38125pt" height="280.15625pt" viewBox="0 0 424.38125 280.15625" xmlns="http://www.w3.org/2000/svg" version="1.1">
 <metadata>
  <rdf:RDF xmlns:dc="http://purl.org/dc/elements/1.1/" xmlns:cc="http://creativecommons.org/ns#" xmlns:rdf="http://www.w3.org/1999/02/22-rdf-syntax-ns#">
   <cc:Work>
    <dc:type rdf:resource="http://purl.org/dc/dcmitype/StillImage"/>
    <dc:date>2022-02-06T08:43:59.803516</dc:date>
    <dc:format>image/svg+xml</dc:format>
    <dc:creator>
     <cc:Agent>
      <dc:title>Matplotlib v3.5.1, https://matplotlib.org/</dc:title>
     </cc:Agent>
    </dc:creator>
   </cc:Work>
  </rdf:RDF>
 </metadata>
 <defs>
  <style type="text/css">*{stroke-linejoin: round; stroke-linecap: butt}</style>
 </defs>
 <g id="figure_1">
  <g id="patch_1">
   <path d="M 0 280.15625 
L 424.38125 280.15625 
L 424.38125 0 
L 0 0 
L 0 280.15625 
z
" style="fill: none"/>
  </g>
  <g id="axes_1">
   <g id="patch_2">
    <path d="M 43.78125 242.6 
L 417.18125 242.6 
L 417.18125 7.2 
L 43.78125 7.2 
z
" style="fill: #ffffff"/>
   </g>
   <g id="matplotlib.axis_1">
    <g id="xtick_1">
     <g id="line2d_1">
      <defs>
       <path id="mca654aead1" d="M 0 0 
L 0 3.5 
" style="stroke: #000000; stroke-width: 0.8"/>
      </defs>
      <g>
       <use xlink:href="#mca654aead1" x="43.78125" y="242.6" style="stroke: #000000; stroke-width: 0.8"/>
      </g>
     </g>
     <g id="text_1">
      <!-- 0 -->
      <g transform="translate(40.6 257.198437)scale(0.1 -0.1)">
       <defs>
        <path id="DejaVuSans-30" d="M 2034 4250 
Q 1547 4250 1301 3770 
Q 1056 3291 1056 2328 
Q 1056 1369 1301 889 
Q 1547 409 2034 409 
Q 2525 409 2770 889 
Q 3016 1369 3016 2328 
Q 3016 3291 2770 3770 
Q 2525 4250 2034 4250 
z
M 2034 4750 
Q 2819 4750 3233 4129 
Q 3647 3509 3647 2328 
Q 3647 1150 3233 529 
Q 2819 -91 2034 -91 
Q 1250 -91 836 529 
Q 422 1150 422 2328 
Q 422 3509 836 4129 
Q 1250 4750 2034 4750 
z
" transform="scale(0.015625)"/>
       </defs>
       <use xlink:href="#DejaVuSans-30"/>
      </g>
     </g>
    </g>
    <g id="xtick_2">
     <g id="line2d_2">
      <g>
       <use xlink:href="#mca654aead1" x="114.90506" y="242.6" style="stroke: #000000; stroke-width: 0.8"/>
      </g>
     </g>
     <g id="text_2">
      <!-- 2 -->
      <g transform="translate(111.72381 257.198437)scale(0.1 -0.1)">
       <defs>
        <path id="DejaVuSans-32" d="M 1228 531 
L 3431 531 
L 3431 0 
L 469 0 
L 469 531 
Q 828 903 1448 1529 
Q 2069 2156 2228 2338 
Q 2531 2678 2651 2914 
Q 2772 3150 2772 3378 
Q 2772 3750 2511 3984 
Q 2250 4219 1831 4219 
Q 1534 4219 1204 4116 
Q 875 4013 500 3803 
L 500 4441 
Q 881 4594 1212 4672 
Q 1544 4750 1819 4750 
Q 2544 4750 2975 4387 
Q 3406 4025 3406 3419 
Q 3406 3131 3298 2873 
Q 3191 2616 2906 2266 
Q 2828 2175 2409 1742 
Q 1991 1309 1228 531 
z
" transform="scale(0.015625)"/>
       </defs>
       <use xlink:href="#DejaVuSans-32"/>
      </g>
     </g>
    </g>
    <g id="xtick_3">
     <g id="line2d_3">
      <g>
       <use xlink:href="#mca654aead1" x="186.028869" y="242.6" style="stroke: #000000; stroke-width: 0.8"/>
      </g>
     </g>
     <g id="text_3">
      <!-- 4 -->
      <g transform="translate(182.847619 257.198437)scale(0.1 -0.1)">
       <defs>
        <path id="DejaVuSans-34" d="M 2419 4116 
L 825 1625 
L 2419 1625 
L 2419 4116 
z
M 2253 4666 
L 3047 4666 
L 3047 1625 
L 3713 1625 
L 3713 1100 
L 3047 1100 
L 3047 0 
L 2419 0 
L 2419 1100 
L 313 1100 
L 313 1709 
L 2253 4666 
z
" transform="scale(0.015625)"/>
       </defs>
       <use xlink:href="#DejaVuSans-34"/>
      </g>
     </g>
    </g>
    <g id="xtick_4">
     <g id="line2d_4">
      <g>
       <use xlink:href="#mca654aead1" x="257.152679" y="242.6" style="stroke: #000000; stroke-width: 0.8"/>
      </g>
     </g>
     <g id="text_4">
      <!-- 6 -->
      <g transform="translate(253.971429 257.198437)scale(0.1 -0.1)">
       <defs>
        <path id="DejaVuSans-36" d="M 2113 2584 
Q 1688 2584 1439 2293 
Q 1191 2003 1191 1497 
Q 1191 994 1439 701 
Q 1688 409 2113 409 
Q 2538 409 2786 701 
Q 3034 994 3034 1497 
Q 3034 2003 2786 2293 
Q 2538 2584 2113 2584 
z
M 3366 4563 
L 3366 3988 
Q 3128 4100 2886 4159 
Q 2644 4219 2406 4219 
Q 1781 4219 1451 3797 
Q 1122 3375 1075 2522 
Q 1259 2794 1537 2939 
Q 1816 3084 2150 3084 
Q 2853 3084 3261 2657 
Q 3669 2231 3669 1497 
Q 3669 778 3244 343 
Q 2819 -91 2113 -91 
Q 1303 -91 875 529 
Q 447 1150 447 2328 
Q 447 3434 972 4092 
Q 1497 4750 2381 4750 
Q 2619 4750 2861 4703 
Q 3103 4656 3366 4563 
z
" transform="scale(0.015625)"/>
       </defs>
       <use xlink:href="#DejaVuSans-36"/>
      </g>
     </g>
    </g>
    <g id="xtick_5">
     <g id="line2d_5">
      <g>
       <use xlink:href="#mca654aead1" x="328.276488" y="242.6" style="stroke: #000000; stroke-width: 0.8"/>
      </g>
     </g>
     <g id="text_5">
      <!-- 8 -->
      <g transform="translate(325.095238 257.198437)scale(0.1 -0.1)">
       <defs>
        <path id="DejaVuSans-38" d="M 2034 2216 
Q 1584 2216 1326 1975 
Q 1069 1734 1069 1313 
Q 1069 891 1326 650 
Q 1584 409 2034 409 
Q 2484 409 2743 651 
Q 3003 894 3003 1313 
Q 3003 1734 2745 1975 
Q 2488 2216 2034 2216 
z
M 1403 2484 
Q 997 2584 770 2862 
Q 544 3141 544 3541 
Q 544 4100 942 4425 
Q 1341 4750 2034 4750 
Q 2731 4750 3128 4425 
Q 3525 4100 3525 3541 
Q 3525 3141 3298 2862 
Q 3072 2584 2669 2484 
Q 3125 2378 3379 2068 
Q 3634 1759 3634 1313 
Q 3634 634 3220 271 
Q 2806 -91 2034 -91 
Q 1263 -91 848 271 
Q 434 634 434 1313 
Q 434 1759 690 2068 
Q 947 2378 1403 2484 
z
M 1172 3481 
Q 1172 3119 1398 2916 
Q 1625 2713 2034 2713 
Q 2441 2713 2670 2916 
Q 2900 3119 2900 3481 
Q 2900 3844 2670 4047 
Q 2441 4250 2034 4250 
Q 1625 4250 1398 4047 
Q 1172 3844 1172 3481 
z
" transform="scale(0.015625)"/>
       </defs>
       <use xlink:href="#DejaVuSans-38"/>
      </g>
     </g>
    </g>
    <g id="xtick_6">
     <g id="line2d_6">
      <g>
       <use xlink:href="#mca654aead1" x="399.400298" y="242.6" style="stroke: #000000; stroke-width: 0.8"/>
      </g>
     </g>
     <g id="text_6">
      <!-- 10 -->
      <g transform="translate(393.037798 257.198437)scale(0.1 -0.1)">
       <defs>
        <path id="DejaVuSans-31" d="M 794 531 
L 1825 531 
L 1825 4091 
L 703 3866 
L 703 4441 
L 1819 4666 
L 2450 4666 
L 2450 531 
L 3481 531 
L 3481 0 
L 794 0 
L 794 531 
z
" transform="scale(0.015625)"/>
       </defs>
       <use xlink:href="#DejaVuSans-31"/>
       <use xlink:href="#DejaVuSans-30" x="63.623047"/>
      </g>
     </g>
    </g>
    <g id="text_7">
     <!-- Time (seconds) -->
     <g transform="translate(192.319531 270.876562)scale(0.1 -0.1)">
      <defs>
       <path id="DejaVuSans-54" d="M -19 4666 
L 3928 4666 
L 3928 4134 
L 2272 4134 
L 2272 0 
L 1638 0 
L 1638 4134 
L -19 4134 
L -19 4666 
z
" transform="scale(0.015625)"/>
       <path id="DejaVuSans-69" d="M 603 3500 
L 1178 3500 
L 1178 0 
L 603 0 
L 603 3500 
z
M 603 4863 
L 1178 4863 
L 1178 4134 
L 603 4134 
L 603 4863 
z
" transform="scale(0.015625)"/>
       <path id="DejaVuSans-6d" d="M 3328 2828 
Q 3544 3216 3844 3400 
Q 4144 3584 4550 3584 
Q 5097 3584 5394 3201 
Q 5691 2819 5691 2113 
L 5691 0 
L 5113 0 
L 5113 2094 
Q 5113 2597 4934 2840 
Q 4756 3084 4391 3084 
Q 3944 3084 3684 2787 
Q 3425 2491 3425 1978 
L 3425 0 
L 2847 0 
L 2847 2094 
Q 2847 2600 2669 2842 
Q 2491 3084 2119 3084 
Q 1678 3084 1418 2786 
Q 1159 2488 1159 1978 
L 1159 0 
L 581 0 
L 581 3500 
L 1159 3500 
L 1159 2956 
Q 1356 3278 1631 3431 
Q 1906 3584 2284 3584 
Q 2666 3584 2933 3390 
Q 3200 3197 3328 2828 
z
" transform="scale(0.015625)"/>
       <path id="DejaVuSans-65" d="M 3597 1894 
L 3597 1613 
L 953 1613 
Q 991 1019 1311 708 
Q 1631 397 2203 397 
Q 2534 397 2845 478 
Q 3156 559 3463 722 
L 3463 178 
Q 3153 47 2828 -22 
Q 2503 -91 2169 -91 
Q 1331 -91 842 396 
Q 353 884 353 1716 
Q 353 2575 817 3079 
Q 1281 3584 2069 3584 
Q 2775 3584 3186 3129 
Q 3597 2675 3597 1894 
z
M 3022 2063 
Q 3016 2534 2758 2815 
Q 2500 3097 2075 3097 
Q 1594 3097 1305 2825 
Q 1016 2553 972 2059 
L 3022 2063 
z
" transform="scale(0.015625)"/>
       <path id="DejaVuSans-20" transform="scale(0.015625)"/>
       <path id="DejaVuSans-28" d="M 1984 4856 
Q 1566 4138 1362 3434 
Q 1159 2731 1159 2009 
Q 1159 1288 1364 580 
Q 1569 -128 1984 -844 
L 1484 -844 
Q 1016 -109 783 600 
Q 550 1309 550 2009 
Q 550 2706 781 3412 
Q 1013 4119 1484 4856 
L 1984 4856 
z
" transform="scale(0.015625)"/>
       <path id="DejaVuSans-73" d="M 2834 3397 
L 2834 2853 
Q 2591 2978 2328 3040 
Q 2066 3103 1784 3103 
Q 1356 3103 1142 2972 
Q 928 2841 928 2578 
Q 928 2378 1081 2264 
Q 1234 2150 1697 2047 
L 1894 2003 
Q 2506 1872 2764 1633 
Q 3022 1394 3022 966 
Q 3022 478 2636 193 
Q 2250 -91 1575 -91 
Q 1294 -91 989 -36 
Q 684 19 347 128 
L 347 722 
Q 666 556 975 473 
Q 1284 391 1588 391 
Q 1994 391 2212 530 
Q 2431 669 2431 922 
Q 2431 1156 2273 1281 
Q 2116 1406 1581 1522 
L 1381 1569 
Q 847 1681 609 1914 
Q 372 2147 372 2553 
Q 372 3047 722 3315 
Q 1072 3584 1716 3584 
Q 2034 3584 2315 3537 
Q 2597 3491 2834 3397 
z
" transform="scale(0.015625)"/>
       <path id="DejaVuSans-63" d="M 3122 3366 
L 3122 2828 
Q 2878 2963 2633 3030 
Q 2388 3097 2138 3097 
Q 1578 3097 1268 2742 
Q 959 2388 959 1747 
Q 959 1106 1268 751 
Q 1578 397 2138 397 
Q 2388 397 2633 464 
Q 2878 531 3122 666 
L 3122 134 
Q 2881 22 2623 -34 
Q 2366 -91 2075 -91 
Q 1284 -91 818 406 
Q 353 903 353 1747 
Q 353 2603 823 3093 
Q 1294 3584 2113 3584 
Q 2378 3584 2631 3529 
Q 2884 3475 3122 3366 
z
" transform="scale(0.015625)"/>
       <path id="DejaVuSans-6f" d="M 1959 3097 
Q 1497 3097 1228 2736 
Q 959 2375 959 1747 
Q 959 1119 1226 758 
Q 1494 397 1959 397 
Q 2419 397 2687 759 
Q 2956 1122 2956 1747 
Q 2956 2369 2687 2733 
Q 2419 3097 1959 3097 
z
M 1959 3584 
Q 2709 3584 3137 3096 
Q 3566 2609 3566 1747 
Q 3566 888 3137 398 
Q 2709 -91 1959 -91 
Q 1206 -91 779 398 
Q 353 888 353 1747 
Q 353 2609 779 3096 
Q 1206 3584 1959 3584 
z
" transform="scale(0.015625)"/>
       <path id="DejaVuSans-6e" d="M 3513 2113 
L 3513 0 
L 2938 0 
L 2938 2094 
Q 2938 2591 2744 2837 
Q 2550 3084 2163 3084 
Q 1697 3084 1428 2787 
Q 1159 2491 1159 1978 
L 1159 0 
L 581 0 
L 581 3500 
L 1159 3500 
L 1159 2956 
Q 1366 3272 1645 3428 
Q 1925 3584 2291 3584 
Q 2894 3584 3203 3211 
Q 3513 2838 3513 2113 
z
" transform="scale(0.015625)"/>
       <path id="DejaVuSans-64" d="M 2906 2969 
L 2906 4863 
L 3481 4863 
L 3481 0 
L 2906 0 
L 2906 525 
Q 2725 213 2448 61 
Q 2172 -91 1784 -91 
Q 1150 -91 751 415 
Q 353 922 353 1747 
Q 353 2572 751 3078 
Q 1150 3584 1784 3584 
Q 2172 3584 2448 3432 
Q 2725 3281 2906 2969 
z
M 947 1747 
Q 947 1113 1208 752 
Q 1469 391 1925 391 
Q 2381 391 2643 752 
Q 2906 1113 2906 1747 
Q 2906 2381 2643 2742 
Q 2381 3103 1925 3103 
Q 1469 3103 1208 2742 
Q 947 2381 947 1747 
z
" transform="scale(0.015625)"/>
       <path id="DejaVuSans-29" d="M 513 4856 
L 1013 4856 
Q 1481 4119 1714 3412 
Q 1947 2706 1947 2009 
Q 1947 1309 1714 600 
Q 1481 -109 1013 -844 
L 513 -844 
Q 928 -128 1133 580 
Q 1338 1288 1338 2009 
Q 1338 2731 1133 3434 
Q 928 4138 513 4856 
z
" transform="scale(0.015625)"/>
      </defs>
      <use xlink:href="#DejaVuSans-54"/>
      <use xlink:href="#DejaVuSans-69" x="57.958984"/>
      <use xlink:href="#DejaVuSans-6d" x="85.742188"/>
      <use xlink:href="#DejaVuSans-65" x="183.154297"/>
      <use xlink:href="#DejaVuSans-20" x="244.677734"/>
      <use xlink:href="#DejaVuSans-28" x="276.464844"/>
      <use xlink:href="#DejaVuSans-73" x="315.478516"/>
      <use xlink:href="#DejaVuSans-65" x="367.578125"/>
      <use xlink:href="#DejaVuSans-63" x="429.101562"/>
      <use xlink:href="#DejaVuSans-6f" x="484.082031"/>
      <use xlink:href="#DejaVuSans-6e" x="545.263672"/>
      <use xlink:href="#DejaVuSans-64" x="608.642578"/>
      <use xlink:href="#DejaVuSans-73" x="672.119141"/>
      <use xlink:href="#DejaVuSans-29" x="724.21875"/>
     </g>
    </g>
   </g>
   <g id="matplotlib.axis_2">
    <g id="ytick_1">
     <g id="line2d_7">
      <defs>
       <path id="m9f30c9b8a8" d="M 0 0 
L -3.5 0 
" style="stroke: #000000; stroke-width: 0.8"/>
      </defs>
      <g>
       <use xlink:href="#m9f30c9b8a8" x="43.78125" y="231.934729" style="stroke: #000000; stroke-width: 0.8"/>
      </g>
     </g>
     <g id="text_8">
      <!-- 0.0 -->
      <g transform="translate(20.878125 235.733948)scale(0.1 -0.1)">
       <defs>
        <path id="DejaVuSans-2e" d="M 684 794 
L 1344 794 
L 1344 0 
L 684 0 
L 684 794 
z
" transform="scale(0.015625)"/>
       </defs>
       <use xlink:href="#DejaVuSans-30"/>
       <use xlink:href="#DejaVuSans-2e" x="63.623047"/>
       <use xlink:href="#DejaVuSans-30" x="95.410156"/>
      </g>
     </g>
    </g>
    <g id="ytick_2">
     <g id="line2d_8">
      <g>
       <use xlink:href="#m9f30c9b8a8" x="43.78125" y="188.980298" style="stroke: #000000; stroke-width: 0.8"/>
      </g>
     </g>
     <g id="text_9">
      <!-- 0.2 -->
      <g transform="translate(20.878125 192.779517)scale(0.1 -0.1)">
       <use xlink:href="#DejaVuSans-30"/>
       <use xlink:href="#DejaVuSans-2e" x="63.623047"/>
       <use xlink:href="#DejaVuSans-32" x="95.410156"/>
      </g>
     </g>
    </g>
    <g id="ytick_3">
     <g id="line2d_9">
      <g>
       <use xlink:href="#m9f30c9b8a8" x="43.78125" y="146.025868" style="stroke: #000000; stroke-width: 0.8"/>
      </g>
     </g>
     <g id="text_10">
      <!-- 0.4 -->
      <g transform="translate(20.878125 149.825087)scale(0.1 -0.1)">
       <use xlink:href="#DejaVuSans-30"/>
       <use xlink:href="#DejaVuSans-2e" x="63.623047"/>
       <use xlink:href="#DejaVuSans-34" x="95.410156"/>
      </g>
     </g>
    </g>
    <g id="ytick_4">
     <g id="line2d_10">
      <g>
       <use xlink:href="#m9f30c9b8a8" x="43.78125" y="103.071437" style="stroke: #000000; stroke-width: 0.8"/>
      </g>
     </g>
     <g id="text_11">
      <!-- 0.6 -->
      <g transform="translate(20.878125 106.870656)scale(0.1 -0.1)">
       <use xlink:href="#DejaVuSans-30"/>
       <use xlink:href="#DejaVuSans-2e" x="63.623047"/>
       <use xlink:href="#DejaVuSans-36" x="95.410156"/>
      </g>
     </g>
    </g>
    <g id="ytick_5">
     <g id="line2d_11">
      <g>
       <use xlink:href="#m9f30c9b8a8" x="43.78125" y="60.117007" style="stroke: #000000; stroke-width: 0.8"/>
      </g>
     </g>
     <g id="text_12">
      <!-- 0.8 -->
      <g transform="translate(20.878125 63.916226)scale(0.1 -0.1)">
       <use xlink:href="#DejaVuSans-30"/>
       <use xlink:href="#DejaVuSans-2e" x="63.623047"/>
       <use xlink:href="#DejaVuSans-38" x="95.410156"/>
      </g>
     </g>
    </g>
    <g id="ytick_6">
     <g id="line2d_12">
      <g>
       <use xlink:href="#m9f30c9b8a8" x="43.78125" y="17.162576" style="stroke: #000000; stroke-width: 0.8"/>
      </g>
     </g>
     <g id="text_13">
      <!-- 1.0 -->
      <g transform="translate(20.878125 20.961795)scale(0.1 -0.1)">
       <use xlink:href="#DejaVuSans-31"/>
       <use xlink:href="#DejaVuSans-2e" x="63.623047"/>
       <use xlink:href="#DejaVuSans-30" x="95.410156"/>
      </g>
     </g>
    </g>
    <g id="text_14">
     <!-- Cross Track Error (meters) -->
     <g transform="translate(14.798438 190.18125)rotate(-90)scale(0.1 -0.1)">
      <defs>
       <path id="DejaVuSans-43" d="M 4122 4306 
L 4122 3641 
Q 3803 3938 3442 4084 
Q 3081 4231 2675 4231 
Q 1875 4231 1450 3742 
Q 1025 3253 1025 2328 
Q 1025 1406 1450 917 
Q 1875 428 2675 428 
Q 3081 428 3442 575 
Q 3803 722 4122 1019 
L 4122 359 
Q 3791 134 3420 21 
Q 3050 -91 2638 -91 
Q 1578 -91 968 557 
Q 359 1206 359 2328 
Q 359 3453 968 4101 
Q 1578 4750 2638 4750 
Q 3056 4750 3426 4639 
Q 3797 4528 4122 4306 
z
" transform="scale(0.015625)"/>
       <path id="DejaVuSans-72" d="M 2631 2963 
Q 2534 3019 2420 3045 
Q 2306 3072 2169 3072 
Q 1681 3072 1420 2755 
Q 1159 2438 1159 1844 
L 1159 0 
L 581 0 
L 581 3500 
L 1159 3500 
L 1159 2956 
Q 1341 3275 1631 3429 
Q 1922 3584 2338 3584 
Q 2397 3584 2469 3576 
Q 2541 3569 2628 3553 
L 2631 2963 
z
" transform="scale(0.015625)"/>
       <path id="DejaVuSans-61" d="M 2194 1759 
Q 1497 1759 1228 1600 
Q 959 1441 959 1056 
Q 959 750 1161 570 
Q 1363 391 1709 391 
Q 2188 391 2477 730 
Q 2766 1069 2766 1631 
L 2766 1759 
L 2194 1759 
z
M 3341 1997 
L 3341 0 
L 2766 0 
L 2766 531 
Q 2569 213 2275 61 
Q 1981 -91 1556 -91 
Q 1019 -91 701 211 
Q 384 513 384 1019 
Q 384 1609 779 1909 
Q 1175 2209 1959 2209 
L 2766 2209 
L 2766 2266 
Q 2766 2663 2505 2880 
Q 2244 3097 1772 3097 
Q 1472 3097 1187 3025 
Q 903 2953 641 2809 
L 641 3341 
Q 956 3463 1253 3523 
Q 1550 3584 1831 3584 
Q 2591 3584 2966 3190 
Q 3341 2797 3341 1997 
z
" transform="scale(0.015625)"/>
       <path id="DejaVuSans-6b" d="M 581 4863 
L 1159 4863 
L 1159 1991 
L 2875 3500 
L 3609 3500 
L 1753 1863 
L 3688 0 
L 2938 0 
L 1159 1709 
L 1159 0 
L 581 0 
L 581 4863 
z
" transform="scale(0.015625)"/>
       <path id="DejaVuSans-45" d="M 628 4666 
L 3578 4666 
L 3578 4134 
L 1259 4134 
L 1259 2753 
L 3481 2753 
L 3481 2222 
L 1259 2222 
L 1259 531 
L 3634 531 
L 3634 0 
L 628 0 
L 628 4666 
z
" transform="scale(0.015625)"/>
       <path id="DejaVuSans-74" d="M 1172 4494 
L 1172 3500 
L 2356 3500 
L 2356 3053 
L 1172 3053 
L 1172 1153 
Q 1172 725 1289 603 
Q 1406 481 1766 481 
L 2356 481 
L 2356 0 
L 1766 0 
Q 1100 0 847 248 
Q 594 497 594 1153 
L 594 3053 
L 172 3053 
L 172 3500 
L 594 3500 
L 594 4494 
L 1172 4494 
z
" transform="scale(0.015625)"/>
      </defs>
      <use xlink:href="#DejaVuSans-43"/>
      <use xlink:href="#DejaVuSans-72" x="69.824219"/>
      <use xlink:href="#DejaVuSans-6f" x="108.6875"/>
      <use xlink:href="#DejaVuSans-73" x="169.869141"/>
      <use xlink:href="#DejaVuSans-73" x="221.96875"/>
      <use xlink:href="#DejaVuSans-20" x="274.068359"/>
      <use xlink:href="#DejaVuSans-54" x="305.855469"/>
      <use xlink:href="#DejaVuSans-72" x="352.189453"/>
      <use xlink:href="#DejaVuSans-61" x="393.302734"/>
      <use xlink:href="#DejaVuSans-63" x="454.582031"/>
      <use xlink:href="#DejaVuSans-6b" x="509.5625"/>
      <use xlink:href="#DejaVuSans-20" x="567.472656"/>
      <use xlink:href="#DejaVuSans-45" x="599.259766"/>
      <use xlink:href="#DejaVuSans-72" x="662.443359"/>
      <use xlink:href="#DejaVuSans-72" x="701.806641"/>
      <use xlink:href="#DejaVuSans-6f" x="740.669922"/>
      <use xlink:href="#DejaVuSans-72" x="801.851562"/>
      <use xlink:href="#DejaVuSans-20" x="842.964844"/>
      <use xlink:href="#DejaVuSans-28" x="874.751953"/>
      <use xlink:href="#DejaVuSans-6d" x="913.765625"/>
      <use xlink:href="#DejaVuSans-65" x="1011.177734"/>
      <use xlink:href="#DejaVuSans-74" x="1072.701172"/>
      <use xlink:href="#DejaVuSans-65" x="1111.910156"/>
      <use xlink:href="#DejaVuSans-72" x="1173.433594"/>
      <use xlink:href="#DejaVuSans-73" x="1214.546875"/>
      <use xlink:href="#DejaVuSans-29" x="1266.646484"/>
     </g>
    </g>
   </g>
   <g id="line2d_13">
    <path d="M 43.78125 226.052718 
L 44.966647 226.052718 
L 46.152044 222.90586 
L 47.33744 222.90586 
L 48.522837 222.739187 
L 49.708234 222.739187 
L 50.893631 222.989982 
L 56.820615 223.090069 
L 58.006012 223.290679 
L 59.191409 223.290679 
L 60.376806 222.9684 
L 61.562202 222.9684 
L 62.747599 223.273234 
L 63.932996 223.273234 
L 65.118393 223.703736 
L 66.30379 223.703736 
L 67.489187 224.239499 
L 68.674583 224.239499 
L 69.85998 223.481593 
L 73.416171 223.584493 
L 76.972361 223.594274 
L 80.528552 223.533057 
L 81.713948 223.230263 
L 82.899345 223.230263 
L 84.084742 223.587336 
L 85.270139 223.587336 
L 86.455536 223.312616 
L 87.640933 223.312616 
L 88.826329 223.465739 
L 90.011726 223.465739 
L 91.197123 222.881108 
L 92.38252 222.881108 
L 93.567917 221.749983 
L 94.753313 221.749983 
L 95.93871 221.627776 
L 97.124107 221.627776 
L 98.309504 219.863853 
L 99.494901 219.863853 
L 100.680298 216.350845 
L 101.865694 216.350845 
L 103.051091 216.612047 
L 104.236488 216.612047 
L 105.421885 215.463528 
L 106.607282 215.463528 
L 107.792679 212.594205 
L 108.978075 212.594205 
L 110.163472 210.588416 
L 111.348869 210.588416 
L 112.534266 215.538795 
L 113.719663 215.538795 
L 114.90506 213.279179 
L 116.090456 213.279179 
L 117.275853 209.337872 
L 118.46125 209.337872 
L 119.646647 209.221217 
L 123.202837 209.125695 
L 124.388234 204.426049 
L 125.573631 204.426049 
L 126.759028 208.959598 
L 127.944425 208.959598 
L 129.129821 208.676138 
L 130.315218 208.676138 
L 131.500615 210.379838 
L 132.686012 210.379838 
L 133.871409 210.856266 
L 135.056806 210.856266 
L 136.242202 207.537103 
L 137.427599 207.537103 
L 138.612996 208.007763 
L 139.798393 208.007763 
L 140.98379 205.026151 
L 142.169187 205.026151 
L 143.354583 198.457192 
L 144.53998 198.457192 
L 145.725377 200.221427 
L 146.910774 200.221427 
L 148.096171 200.865646 
L 149.281567 200.865646 
L 150.466964 198.390582 
L 151.652361 198.390582 
L 152.837758 197.827063 
L 154.023155 197.827063 
L 155.208552 194.573581 
L 156.393948 194.573581 
L 157.579345 193.098984 
L 158.764742 193.098984 
L 159.950139 197.152276 
L 161.135536 197.152276 
L 162.320933 195.051043 
L 163.506329 195.051043 
L 164.691726 196.86918 
L 165.877123 196.86918 
L 167.06252 188.392589 
L 168.247917 188.392589 
L 169.433313 182.553018 
L 170.61871 182.553018 
L 171.804107 208.070821 
L 172.989504 208.070821 
L 174.174901 205.856543 
L 175.360298 205.856543 
L 176.545694 204.241385 
L 177.731091 204.241385 
L 178.916488 202.2245 
L 180.101885 202.2245 
L 181.287282 188.710258 
L 182.472679 188.710258 
L 183.658075 183.626707 
L 184.843472 183.626707 
L 186.028869 172.108741 
L 187.214266 172.108741 
L 188.399663 161.499907 
L 189.58506 161.499907 
L 190.770456 181.835031 
L 191.955853 181.835031 
L 193.14125 203.77613 
L 194.326647 203.77613 
L 195.512044 174.79162 
L 196.69744 174.79162 
L 197.882837 173.815848 
L 199.068234 173.815848 
L 200.253631 172.290615 
L 201.439028 172.290615 
L 202.624425 171.813695 
L 203.809821 171.813695 
L 204.995218 174.003867 
L 206.180615 174.003867 
L 207.366012 174.152712 
L 208.551409 174.152712 
L 209.736806 168.607994 
L 210.922202 168.607994 
L 212.107599 169.605009 
L 213.292996 169.605009 
L 214.478393 167.924794 
L 215.66379 167.924794 
L 216.849187 169.140665 
L 218.034583 169.140665 
L 219.21998 167.812807 
L 220.405377 167.812807 
L 221.590774 166.620061 
L 222.776171 166.620061 
L 223.961567 165.89235 
L 225.146964 165.89235 
L 226.332361 164.047327 
L 227.517758 164.047327 
L 228.703155 169.451502 
L 229.888552 169.451502 
L 231.073948 168.281994 
L 232.259345 168.281994 
L 233.444742 167.274461 
L 234.630139 167.274461 
L 235.815536 165.952074 
L 237.000933 165.952074 
L 238.186329 170.309286 
L 239.371726 170.309286 
L 240.557123 163.470958 
L 241.74252 163.470958 
L 242.927917 163.759067 
L 244.113313 163.759067 
L 245.29871 161.949988 
L 246.484107 161.949988 
L 247.669504 161.49428 
L 248.854901 161.49428 
L 250.040298 166.369383 
L 251.225694 166.369383 
L 252.411091 159.036125 
L 253.596488 159.036125 
L 254.781885 156.892195 
L 255.967282 156.892195 
L 257.152679 163.043627 
L 258.338075 163.043627 
L 259.523472 162.349854 
L 260.708869 162.349854 
L 261.894266 159.810526 
L 263.079663 159.810526 
L 264.26506 153.970488 
L 265.450456 153.970488 
L 266.635853 156.551653 
L 267.82125 156.551653 
L 269.006647 155.042575 
L 270.192044 155.042575 
L 271.37744 159.684555 
L 272.562837 159.684555 
L 273.748234 157.392386 
L 274.933631 157.392386 
L 276.119028 153.255147 
L 277.304425 153.255147 
L 278.489821 157.183648 
L 279.675218 157.183648 
L 280.860615 153.368557 
L 282.046012 153.368557 
L 283.231409 157.466504 
L 284.416806 157.466504 
L 285.602202 152.128831 
L 286.787599 152.128831 
L 287.972996 146.712989 
L 289.158393 146.712989 
L 290.34379 155.408487 
L 291.529187 155.408487 
L 292.714583 153.354531 
L 293.89998 153.354531 
L 295.085377 160.88115 
L 296.270774 160.88115 
L 297.456171 146.116744 
L 298.641567 146.116744 
L 299.826964 142.217721 
L 301.012361 142.217721 
L 302.197758 156.159768 
L 303.383155 156.159768 
L 304.568552 153.047978 
L 308.124742 153.042937 
L 309.310139 151.453841 
L 310.495536 151.453841 
L 311.680933 140.015702 
L 312.866329 140.015702 
L 314.051726 154.778942 
L 315.237123 154.778942 
L 316.42252 154.523955 
L 317.607917 154.523955 
L 318.793313 161.17469 
L 319.97871 161.17469 
L 321.164107 149.655457 
L 322.349504 149.655457 
L 323.534901 154.779938 
L 324.720298 154.779938 
L 325.905694 153.383299 
L 327.091091 153.383299 
L 328.276488 155.036505 
L 329.461885 155.036505 
L 330.647282 159.450692 
L 331.832679 159.450692 
L 333.018075 149.623124 
L 334.203472 149.623124 
L 335.388869 153.932523 
L 336.574266 153.932523 
L 337.759663 151.9192 
L 338.94506 151.9192 
L 340.130456 157.113904 
L 341.315853 157.113904 
L 342.50125 148.620511 
L 343.686647 148.620511 
L 344.872044 161.049535 
L 346.05744 161.049535 
L 347.242837 153.895037 
L 348.428234 153.895037 
L 349.613631 150.473275 
L 350.799028 150.473275 
L 351.984425 145.276963 
L 353.169821 145.276963 
L 354.355218 127.576035 
L 355.540615 127.576035 
L 356.726012 169.323158 
L 357.911409 169.323158 
L 359.096806 150.47832 
L 360.282202 150.47832 
L 361.467599 127.451981 
L 362.652996 127.451981 
L 363.838393 119.52107 
L 365.02379 119.52107 
L 366.209187 150.485315 
L 367.394583 150.485315 
L 368.57998 144.523798 
L 369.765377 144.523798 
L 370.950774 142.985811 
L 372.136171 142.985811 
L 373.321567 140.081005 
L 374.506964 140.081005 
L 375.692361 135.849836 
L 376.877758 135.849836 
L 378.063155 148.600864 
L 379.248552 148.600864 
L 380.433948 144.865761 
L 381.619345 144.865761 
L 382.804742 146.502639 
L 383.990139 146.502639 
L 385.175536 142.090526 
L 386.360933 142.090526 
L 387.546329 158.172412 
L 388.731726 158.172412 
L 389.917123 150.481947 
L 391.10252 150.481947 
L 392.287917 151.067379 
L 393.473313 151.067379 
L 394.65871 145.713991 
L 395.844107 145.713991 
L 397.029504 142.979111 
L 398.214901 142.979111 
L 399.400298 156.7445 
L 400.585694 156.7445 
L 401.771091 150.298754 
L 402.956488 150.298754 
L 404.141885 147.525899 
L 405.327282 147.525899 
L 406.512679 142.125749 
L 407.698075 142.125749 
L 408.883472 152.603804 
L 410.068869 152.603804 
L 411.254266 146.676003 
L 412.439663 146.676003 
L 413.62506 143.548634 
L 414.810456 143.548634 
L 415.995853 140.636749 
L 417.18125 140.636749 
L 418.366647 129.000641 
L 419.552044 129.000641 
L 420.73744 147.061342 
L 421.922837 147.061342 
L 423.108234 140.940088 
L 424.293631 140.940088 
L 425.38125 144.766451 
L 425.38125 144.766451 
" clip-path="url(#pf037a56ac1)" style="fill: none; stroke: #1f77b4; stroke-width: 1.5; stroke-linecap: square"/>
   </g>
   <g id="line2d_14">
    <path d="M 43.78125 230.142152 
L 44.966647 230.142152 
L 46.152044 230.849981 
L 47.33744 230.849981 
L 48.522837 230.465066 
L 49.708234 230.465066 
L 50.893631 230.824783 
L 54.449821 230.791272 
L 55.635218 229.991859 
L 56.820615 229.991859 
L 58.006012 230.410283 
L 59.191409 230.410283 
L 60.376806 230.773158 
L 61.562202 230.773158 
L 62.747599 230.180178 
L 63.932996 230.180178 
L 65.118393 229.565529 
L 66.30379 229.565529 
L 67.489187 230.224793 
L 71.045377 230.217412 
L 72.230774 229.239062 
L 73.416171 229.239062 
L 74.601567 229.951771 
L 75.786964 229.951771 
L 76.972361 229.25836 
L 78.157758 229.25836 
L 79.343155 229.56084 
L 80.528552 229.56084 
L 81.713948 229.357037 
L 82.899345 229.357037 
L 84.084742 229.935781 
L 87.640933 229.901223 
L 91.197123 229.707802 
L 94.753313 229.668347 
L 95.93871 229.267359 
L 97.124107 229.267359 
L 98.309504 229.05898 
L 99.494901 229.05898 
L 100.680298 230.142486 
L 101.865694 230.142486 
L 103.051091 231.053749 
L 104.236488 231.053749 
L 105.421885 231.508274 
L 106.607282 231.508274 
L 107.792679 230.053562 
L 108.978075 230.053562 
L 110.163472 231.159899 
L 111.348869 231.159899 
L 112.534266 231.759076 
L 113.719663 231.759076 
L 114.90506 229.450978 
L 116.090456 229.450978 
L 117.275853 231.848911 
L 118.46125 231.848911 
L 119.646647 229.388076 
L 120.832044 229.388076 
L 122.01744 231.301801 
L 123.202837 231.301801 
L 124.388234 231.044841 
L 125.573631 231.044841 
L 126.759028 230.793262 
L 127.944425 230.793262 
L 129.129821 231.885142 
L 130.315218 231.885142 
L 131.500615 230.908444 
L 132.686012 230.908444 
L 133.871409 229.611461 
L 135.056806 229.611461 
L 136.242202 231.042419 
L 137.427599 231.042419 
L 138.612996 230.286417 
L 139.798393 230.286417 
L 140.98379 231.404356 
L 142.169187 231.404356 
L 143.354583 230.481382 
L 144.53998 230.481382 
L 145.725377 228.133399 
L 146.910774 228.133399 
L 148.096171 229.416684 
L 149.281567 229.416684 
L 150.466964 229.05545 
L 151.652361 229.05545 
L 152.837758 228.170568 
L 154.023155 228.170568 
L 155.208552 226.496591 
L 156.393948 226.496591 
L 157.579345 224.77262 
L 158.764742 224.77262 
L 159.950139 226.355627 
L 161.135536 226.355627 
L 162.320933 229.258643 
L 163.506329 229.258643 
L 164.691726 229.990052 
L 165.877123 229.990052 
L 167.06252 228.471552 
L 168.247917 228.471552 
L 169.433313 227.388046 
L 170.61871 227.388046 
L 171.804107 228.937779 
L 172.989504 228.937779 
L 174.174901 230.33863 
L 175.360298 230.33863 
L 176.545694 222.625801 
L 177.731091 222.625801 
L 178.916488 221.461509 
L 180.101885 221.461509 
L 181.287282 222.796385 
L 182.472679 222.796385 
L 183.658075 223.085755 
L 184.843472 223.085755 
L 186.028869 228.709032 
L 187.214266 228.709032 
L 188.399663 230.834097 
L 189.58506 230.834097 
L 190.770456 228.305087 
L 191.955853 228.305087 
L 193.14125 206.559101 
L 194.326647 206.559101 
L 195.512044 188.37367 
L 196.69744 188.37367 
L 197.882837 222.061716 
L 199.068234 222.061716 
L 200.253631 231.014859 
L 201.439028 231.014859 
L 202.624425 231.589949 
L 203.809821 231.589949 
L 204.995218 228.261774 
L 208.551409 228.184693 
L 209.736806 226.941328 
L 210.922202 226.941328 
L 212.107599 227.74751 
L 213.292996 227.74751 
L 214.478393 229.773108 
L 215.66379 229.773108 
L 216.849187 231.801967 
L 220.405377 231.873429 
L 221.590774 229.262306 
L 222.776171 229.262306 
L 223.961567 228.930785 
L 225.146964 228.930785 
L 226.332361 227.871722 
L 227.517758 227.871722 
L 228.703155 223.032713 
L 229.888552 223.032713 
L 231.073948 221.076658 
L 232.259345 221.076658 
L 233.444742 220.794418 
L 234.630139 220.794418 
L 235.815536 218.087297 
L 237.000933 218.087297 
L 238.186329 218.772997 
L 239.371726 218.772997 
L 240.557123 219.132409 
L 241.74252 219.132409 
L 242.927917 219.661372 
L 244.113313 219.661372 
L 245.29871 221.741524 
L 246.484107 221.741524 
L 247.669504 221.17766 
L 248.854901 221.17766 
L 250.040298 223.241859 
L 251.225694 223.241859 
L 252.411091 224.099508 
L 253.596488 224.099508 
L 254.781885 227.759447 
L 255.967282 227.759447 
L 257.152679 226.159433 
L 258.338075 226.159433 
L 259.523472 225.570394 
L 260.708869 225.570394 
L 261.894266 225.941632 
L 263.079663 225.941632 
L 264.26506 222.389849 
L 265.450456 222.389849 
L 266.635853 224.640423 
L 267.82125 224.640423 
L 269.006647 231.9 
L 270.192044 231.9 
L 271.37744 229.444601 
L 272.562837 229.444601 
L 273.748234 226.327708 
L 274.933631 226.327708 
L 276.119028 226.887761 
L 277.304425 226.887761 
L 278.489821 222.386923 
L 279.675218 222.386923 
L 280.860615 227.958535 
L 282.046012 227.958535 
L 283.231409 225.298676 
L 284.416806 225.298676 
L 285.602202 220.191658 
L 286.787599 220.191658 
L 287.972996 217.645519 
L 289.158393 217.645519 
L 290.34379 223.176198 
L 291.529187 223.176198 
L 292.714583 228.664822 
L 293.89998 228.664822 
L 295.085377 224.249499 
L 296.270774 224.249499 
L 297.456171 218.787881 
L 298.641567 218.787881 
L 299.826964 220.853123 
L 301.012361 220.853123 
L 302.197758 226.656582 
L 303.383155 226.656582 
L 304.568552 221.866993 
L 305.753948 221.866993 
L 306.939345 223.247149 
L 308.124742 223.247149 
L 309.310139 222.430741 
L 310.495536 222.430741 
L 311.680933 224.419686 
L 312.866329 224.419686 
L 314.051726 223.743576 
L 317.607917 223.732205 
L 318.793313 222.992166 
L 319.97871 222.992166 
L 321.164107 223.245893 
L 322.349504 223.245893 
L 323.534901 223.697906 
L 324.720298 223.697906 
L 325.905694 221.641162 
L 327.091091 221.641162 
L 328.276488 222.428809 
L 329.461885 222.428809 
L 330.647282 222.886074 
L 331.832679 222.886074 
L 333.018075 221.932242 
L 334.203472 221.932242 
L 335.388869 224.600219 
L 336.574266 224.600219 
L 337.759663 221.06129 
L 338.94506 221.06129 
L 340.130456 219.80268 
L 341.315853 219.80268 
L 342.50125 220.576807 
L 343.686647 220.576807 
L 344.872044 224.951249 
L 346.05744 224.951249 
L 347.242837 222.438632 
L 348.428234 222.438632 
L 349.613631 224.168235 
L 350.799028 224.168235 
L 351.984425 226.688829 
L 353.169821 226.688829 
L 354.355218 222.78549 
L 355.540615 222.78549 
L 356.726012 219.752213 
L 357.911409 219.752213 
L 359.096806 222.697145 
L 360.282202 222.697145 
L 361.467599 224.619583 
L 362.652996 224.619583 
L 363.838393 223.944294 
L 367.394583 223.850709 
L 368.57998 224.27447 
L 369.765377 224.27447 
L 370.950774 223.734101 
L 372.136171 223.734101 
L 373.321567 221.642564 
L 374.506964 221.642564 
L 375.692361 222.740364 
L 376.877758 222.740364 
L 378.063155 224.806239 
L 379.248552 224.806239 
L 380.433948 222.982576 
L 381.619345 222.982576 
L 382.804742 222.370442 
L 383.990139 222.370442 
L 385.175536 222.773082 
L 386.360933 222.773082 
L 387.546329 226.177909 
L 388.731726 226.177909 
L 389.917123 225.640176 
L 391.10252 225.640176 
L 392.287917 223.44108 
L 393.473313 223.44108 
L 394.65871 218.653915 
L 395.844107 218.653915 
L 397.029504 216.574635 
L 398.214901 216.574635 
L 399.400298 220.756275 
L 400.585694 220.756275 
L 401.771091 222.461354 
L 402.956488 222.461354 
L 404.141885 221.007525 
L 405.327282 221.007525 
L 406.512679 219.29412 
L 407.698075 219.29412 
L 408.883472 219.752614 
L 410.068869 219.752614 
L 411.254266 223.316576 
L 412.439663 223.316576 
L 413.62506 221.617542 
L 414.810456 221.617542 
L 415.995853 219.90638 
L 419.552044 219.845055 
L 420.73744 223.197723 
L 421.922837 223.197723 
L 423.108234 226.544186 
L 424.293631 226.544186 
L 425.38125 224.676798 
L 425.38125 224.676798 
" clip-path="url(#pf037a56ac1)" style="fill: none; stroke: #ff7f0e; stroke-width: 1.5; stroke-linecap: square"/>
   </g>
   <g id="patch_3">
    <path d="M 43.78125 242.6 
L 43.78125 7.2 
" style="fill: none; stroke: #000000; stroke-width: 0.8; stroke-linejoin: miter; stroke-linecap: square"/>
   </g>
   <g id="patch_4">
    <path d="M 417.18125 242.6 
L 417.18125 7.2 
" style="fill: none; stroke: #000000; stroke-width: 0.8; stroke-linejoin: miter; stroke-linecap: square"/>
   </g>
   <g id="patch_5">
    <path d="M 43.78125 242.6 
L 417.18125 242.6 
" style="fill: none; stroke: #000000; stroke-width: 0.8; stroke-linejoin: miter; stroke-linecap: square"/>
   </g>
   <g id="patch_6">
    <path d="M 43.78125 7.2 
L 417.18125 7.2 
" style="fill: none; stroke: #000000; stroke-width: 0.8; stroke-linejoin: miter; stroke-linecap: square"/>
   </g>
   <g id="legend_1">
    <g id="patch_7">
     <path d="M 312.589062 44.55625 
L 410.18125 44.55625 
Q 412.18125 44.55625 412.18125 42.55625 
L 412.18125 14.2 
Q 412.18125 12.2 410.18125 12.2 
L 312.589062 12.2 
Q 310.589062 12.2 310.589062 14.2 
L 310.589062 42.55625 
Q 310.589062 44.55625 312.589062 44.55625 
z
" style="fill: #ffffff; opacity: 0.8; stroke: #cccccc; stroke-linejoin: miter"/>
    </g>
    <g id="line2d_15">
     <path d="M 314.589062 20.298438 
L 324.589062 20.298438 
L 334.589062 20.298438 
" style="fill: none; stroke: #1f77b4; stroke-width: 1.5; stroke-linecap: square"/>
    </g>
    <g id="text_15">
     <!-- no calib. -->
     <g transform="translate(342.589062 23.798438)scale(0.1 -0.1)">
      <defs>
       <path id="DejaVuSans-6c" d="M 603 4863 
L 1178 4863 
L 1178 0 
L 603 0 
L 603 4863 
z
" transform="scale(0.015625)"/>
       <path id="DejaVuSans-62" d="M 3116 1747 
Q 3116 2381 2855 2742 
Q 2594 3103 2138 3103 
Q 1681 3103 1420 2742 
Q 1159 2381 1159 1747 
Q 1159 1113 1420 752 
Q 1681 391 2138 391 
Q 2594 391 2855 752 
Q 3116 1113 3116 1747 
z
M 1159 2969 
Q 1341 3281 1617 3432 
Q 1894 3584 2278 3584 
Q 2916 3584 3314 3078 
Q 3713 2572 3713 1747 
Q 3713 922 3314 415 
Q 2916 -91 2278 -91 
Q 1894 -91 1617 61 
Q 1341 213 1159 525 
L 1159 0 
L 581 0 
L 581 4863 
L 1159 4863 
L 1159 2969 
z
" transform="scale(0.015625)"/>
      </defs>
      <use xlink:href="#DejaVuSans-6e"/>
      <use xlink:href="#DejaVuSans-6f" x="63.378906"/>
      <use xlink:href="#DejaVuSans-20" x="124.560547"/>
      <use xlink:href="#DejaVuSans-63" x="156.347656"/>
      <use xlink:href="#DejaVuSans-61" x="211.328125"/>
      <use xlink:href="#DejaVuSans-6c" x="272.607422"/>
      <use xlink:href="#DejaVuSans-69" x="300.390625"/>
      <use xlink:href="#DejaVuSans-62" x="328.173828"/>
      <use xlink:href="#DejaVuSans-2e" x="391.650391"/>
     </g>
    </g>
    <g id="line2d_16">
     <path d="M 314.589062 34.976563 
L 324.589062 34.976563 
L 334.589062 34.976563 
" style="fill: none; stroke: #ff7f0e; stroke-width: 1.5; stroke-linecap: square"/>
    </g>
    <g id="text_16">
     <!-- perfect calib. -->
     <g transform="translate(342.589062 38.476563)scale(0.1 -0.1)">
      <defs>
       <path id="DejaVuSans-70" d="M 1159 525 
L 1159 -1331 
L 581 -1331 
L 581 3500 
L 1159 3500 
L 1159 2969 
Q 1341 3281 1617 3432 
Q 1894 3584 2278 3584 
Q 2916 3584 3314 3078 
Q 3713 2572 3713 1747 
Q 3713 922 3314 415 
Q 2916 -91 2278 -91 
Q 1894 -91 1617 61 
Q 1341 213 1159 525 
z
M 3116 1747 
Q 3116 2381 2855 2742 
Q 2594 3103 2138 3103 
Q 1681 3103 1420 2742 
Q 1159 2381 1159 1747 
Q 1159 1113 1420 752 
Q 1681 391 2138 391 
Q 2594 391 2855 752 
Q 3116 1113 3116 1747 
z
" transform="scale(0.015625)"/>
       <path id="DejaVuSans-66" d="M 2375 4863 
L 2375 4384 
L 1825 4384 
Q 1516 4384 1395 4259 
Q 1275 4134 1275 3809 
L 1275 3500 
L 2222 3500 
L 2222 3053 
L 1275 3053 
L 1275 0 
L 697 0 
L 697 3053 
L 147 3053 
L 147 3500 
L 697 3500 
L 697 3744 
Q 697 4328 969 4595 
Q 1241 4863 1831 4863 
L 2375 4863 
z
" transform="scale(0.015625)"/>
      </defs>
      <use xlink:href="#DejaVuSans-70"/>
      <use xlink:href="#DejaVuSans-65" x="63.476562"/>
      <use xlink:href="#DejaVuSans-72" x="125"/>
      <use xlink:href="#DejaVuSans-66" x="166.113281"/>
      <use xlink:href="#DejaVuSans-65" x="201.318359"/>
      <use xlink:href="#DejaVuSans-63" x="262.841797"/>
      <use xlink:href="#DejaVuSans-74" x="317.822266"/>
      <use xlink:href="#DejaVuSans-20" x="357.03125"/>
      <use xlink:href="#DejaVuSans-63" x="388.818359"/>
      <use xlink:href="#DejaVuSans-61" x="443.798828"/>
      <use xlink:href="#DejaVuSans-6c" x="505.078125"/>
      <use xlink:href="#DejaVuSans-69" x="532.861328"/>
      <use xlink:href="#DejaVuSans-62" x="560.644531"/>
      <use xlink:href="#DejaVuSans-2e" x="624.121094"/>
     </g>
    </g>
   </g>
  </g>
 </g>
 <defs>
  <clipPath id="pf037a56ac1">
   <rect x="43.78125" y="7.2" width="373.4" height="235.4"/>
  </clipPath>
 </defs>
</svg>
