<?xml version="1.0" encoding="utf-8" standalone="no"?>
<!DOCTYPE svg PUBLIC "-//W3C//DTD SVG 1.1//EN"
  "http://www.w3.org/Graphics/SVG/1.1/DTD/svg11.dtd">
<svg xmlns:xlink="http://www.w3.org/1999/xlink" width="424.38125pt" height="280.15625pt" viewBox="0 0 424.38125 280.15625" xmlns="http://www.w3.org/2000/svg" version="1.1">
 <metadata>
  <rdf:RDF xmlns:dc="http://purl.org/dc/elements/1.1/" xmlns:cc="http://creativecommons.org/ns#" xmlns:rdf="http://www.w3.org/1999/02/22-rdf-syntax-ns#">
   <cc:Work>
    <dc:type rdf:resource="http://purl.org/dc/dcmitype/StillImage"/>
    <dc:date>2022-02-06T12:43:33.923532</dc:date>
    <dc:format>image/svg+xml</dc:format>
    <dc:creator>
     <cc:Agent>
      <dc:title>Matplotlib v3.5.1, https://matplotlib.org/</dc:title>
     </cc:Agent>
    </dc:creator>
   </cc:Work>
  </rdf:RDF>
 </metadata>
 <defs>
  <style type="text/css">*{stroke-linejoin: round; stroke-linecap: butt}</style>
 </defs>
 <g id="figure_1">
  <g id="patch_1">
   <path d="M 0 280.15625 
L 424.38125 280.15625 
L 424.38125 0 
L 0 0 
L 0 280.15625 
z
" style="fill: none"/>
  </g>
  <g id="axes_1">
   <g id="patch_2">
    <path d="M 43.78125 242.6 
L 417.18125 242.6 
L 417.18125 7.2 
L 43.78125 7.2 
z
" style="fill: #ffffff"/>
   </g>
   <g id="matplotlib.axis_1">
    <g id="xtick_1">
     <g id="line2d_1">
      <defs>
       <path id="m35a853bf36" d="M 0 0 
L 0 3.5 
" style="stroke: #000000; stroke-width: 0.8"/>
      </defs>
      <g>
       <use xlink:href="#m35a853bf36" x="43.78125" y="242.6" style="stroke: #000000; stroke-width: 0.8"/>
      </g>
     </g>
     <g id="text_1">
      <!-- 0 -->
      <g transform="translate(40.6 257.198437)scale(0.1 -0.1)">
       <defs>
        <path id="DejaVuSans-30" d="M 2034 4250 
Q 1547 4250 1301 3770 
Q 1056 3291 1056 2328 
Q 1056 1369 1301 889 
Q 1547 409 2034 409 
Q 2525 409 2770 889 
Q 3016 1369 3016 2328 
Q 3016 3291 2770 3770 
Q 2525 4250 2034 4250 
z
M 2034 4750 
Q 2819 4750 3233 4129 
Q 3647 3509 3647 2328 
Q 3647 1150 3233 529 
Q 2819 -91 2034 -91 
Q 1250 -91 836 529 
Q 422 1150 422 2328 
Q 422 3509 836 4129 
Q 1250 4750 2034 4750 
z
" transform="scale(0.015625)"/>
       </defs>
       <use xlink:href="#DejaVuSans-30"/>
      </g>
     </g>
    </g>
    <g id="xtick_2">
     <g id="line2d_2">
      <g>
       <use xlink:href="#m35a853bf36" x="114.90506" y="242.6" style="stroke: #000000; stroke-width: 0.8"/>
      </g>
     </g>
     <g id="text_2">
      <!-- 2 -->
      <g transform="translate(111.72381 257.198437)scale(0.1 -0.1)">
       <defs>
        <path id="DejaVuSans-32" d="M 1228 531 
L 3431 531 
L 3431 0 
L 469 0 
L 469 531 
Q 828 903 1448 1529 
Q 2069 2156 2228 2338 
Q 2531 2678 2651 2914 
Q 2772 3150 2772 3378 
Q 2772 3750 2511 3984 
Q 2250 4219 1831 4219 
Q 1534 4219 1204 4116 
Q 875 4013 500 3803 
L 500 4441 
Q 881 4594 1212 4672 
Q 1544 4750 1819 4750 
Q 2544 4750 2975 4387 
Q 3406 4025 3406 3419 
Q 3406 3131 3298 2873 
Q 3191 2616 2906 2266 
Q 2828 2175 2409 1742 
Q 1991 1309 1228 531 
z
" transform="scale(0.015625)"/>
       </defs>
       <use xlink:href="#DejaVuSans-32"/>
      </g>
     </g>
    </g>
    <g id="xtick_3">
     <g id="line2d_3">
      <g>
       <use xlink:href="#m35a853bf36" x="186.028869" y="242.6" style="stroke: #000000; stroke-width: 0.8"/>
      </g>
     </g>
     <g id="text_3">
      <!-- 4 -->
      <g transform="translate(182.847619 257.198437)scale(0.1 -0.1)">
       <defs>
        <path id="DejaVuSans-34" d="M 2419 4116 
L 825 1625 
L 2419 1625 
L 2419 4116 
z
M 2253 4666 
L 3047 4666 
L 3047 1625 
L 3713 1625 
L 3713 1100 
L 3047 1100 
L 3047 0 
L 2419 0 
L 2419 1100 
L 313 1100 
L 313 1709 
L 2253 4666 
z
" transform="scale(0.015625)"/>
       </defs>
       <use xlink:href="#DejaVuSans-34"/>
      </g>
     </g>
    </g>
    <g id="xtick_4">
     <g id="line2d_4">
      <g>
       <use xlink:href="#m35a853bf36" x="257.152679" y="242.6" style="stroke: #000000; stroke-width: 0.8"/>
      </g>
     </g>
     <g id="text_4">
      <!-- 6 -->
      <g transform="translate(253.971429 257.198437)scale(0.1 -0.1)">
       <defs>
        <path id="DejaVuSans-36" d="M 2113 2584 
Q 1688 2584 1439 2293 
Q 1191 2003 1191 1497 
Q 1191 994 1439 701 
Q 1688 409 2113 409 
Q 2538 409 2786 701 
Q 3034 994 3034 1497 
Q 3034 2003 2786 2293 
Q 2538 2584 2113 2584 
z
M 3366 4563 
L 3366 3988 
Q 3128 4100 2886 4159 
Q 2644 4219 2406 4219 
Q 1781 4219 1451 3797 
Q 1122 3375 1075 2522 
Q 1259 2794 1537 2939 
Q 1816 3084 2150 3084 
Q 2853 3084 3261 2657 
Q 3669 2231 3669 1497 
Q 3669 778 3244 343 
Q 2819 -91 2113 -91 
Q 1303 -91 875 529 
Q 447 1150 447 2328 
Q 447 3434 972 4092 
Q 1497 4750 2381 4750 
Q 2619 4750 2861 4703 
Q 3103 4656 3366 4563 
z
" transform="scale(0.015625)"/>
       </defs>
       <use xlink:href="#DejaVuSans-36"/>
      </g>
     </g>
    </g>
    <g id="xtick_5">
     <g id="line2d_5">
      <g>
       <use xlink:href="#m35a853bf36" x="328.276488" y="242.6" style="stroke: #000000; stroke-width: 0.8"/>
      </g>
     </g>
     <g id="text_5">
      <!-- 8 -->
      <g transform="translate(325.095238 257.198437)scale(0.1 -0.1)">
       <defs>
        <path id="DejaVuSans-38" d="M 2034 2216 
Q 1584 2216 1326 1975 
Q 1069 1734 1069 1313 
Q 1069 891 1326 650 
Q 1584 409 2034 409 
Q 2484 409 2743 651 
Q 3003 894 3003 1313 
Q 3003 1734 2745 1975 
Q 2488 2216 2034 2216 
z
M 1403 2484 
Q 997 2584 770 2862 
Q 544 3141 544 3541 
Q 544 4100 942 4425 
Q 1341 4750 2034 4750 
Q 2731 4750 3128 4425 
Q 3525 4100 3525 3541 
Q 3525 3141 3298 2862 
Q 3072 2584 2669 2484 
Q 3125 2378 3379 2068 
Q 3634 1759 3634 1313 
Q 3634 634 3220 271 
Q 2806 -91 2034 -91 
Q 1263 -91 848 271 
Q 434 634 434 1313 
Q 434 1759 690 2068 
Q 947 2378 1403 2484 
z
M 1172 3481 
Q 1172 3119 1398 2916 
Q 1625 2713 2034 2713 
Q 2441 2713 2670 2916 
Q 2900 3119 2900 3481 
Q 2900 3844 2670 4047 
Q 2441 4250 2034 4250 
Q 1625 4250 1398 4047 
Q 1172 3844 1172 3481 
z
" transform="scale(0.015625)"/>
       </defs>
       <use xlink:href="#DejaVuSans-38"/>
      </g>
     </g>
    </g>
    <g id="xtick_6">
     <g id="line2d_6">
      <g>
       <use xlink:href="#m35a853bf36" x="399.400298" y="242.6" style="stroke: #000000; stroke-width: 0.8"/>
      </g>
     </g>
     <g id="text_6">
      <!-- 10 -->
      <g transform="translate(393.037798 257.198437)scale(0.1 -0.1)">
       <defs>
        <path id="DejaVuSans-31" d="M 794 531 
L 1825 531 
L 1825 4091 
L 703 3866 
L 703 4441 
L 1819 4666 
L 2450 4666 
L 2450 531 
L 3481 531 
L 3481 0 
L 794 0 
L 794 531 
z
" transform="scale(0.015625)"/>
       </defs>
       <use xlink:href="#DejaVuSans-31"/>
       <use xlink:href="#DejaVuSans-30" x="63.623047"/>
      </g>
     </g>
    </g>
    <g id="text_7">
     <!-- Time (seconds) -->
     <g transform="translate(192.319531 270.876562)scale(0.1 -0.1)">
      <defs>
       <path id="DejaVuSans-54" d="M -19 4666 
L 3928 4666 
L 3928 4134 
L 2272 4134 
L 2272 0 
L 1638 0 
L 1638 4134 
L -19 4134 
L -19 4666 
z
" transform="scale(0.015625)"/>
       <path id="DejaVuSans-69" d="M 603 3500 
L 1178 3500 
L 1178 0 
L 603 0 
L 603 3500 
z
M 603 4863 
L 1178 4863 
L 1178 4134 
L 603 4134 
L 603 4863 
z
" transform="scale(0.015625)"/>
       <path id="DejaVuSans-6d" d="M 3328 2828 
Q 3544 3216 3844 3400 
Q 4144 3584 4550 3584 
Q 5097 3584 5394 3201 
Q 5691 2819 5691 2113 
L 5691 0 
L 5113 0 
L 5113 2094 
Q 5113 2597 4934 2840 
Q 4756 3084 4391 3084 
Q 3944 3084 3684 2787 
Q 3425 2491 3425 1978 
L 3425 0 
L 2847 0 
L 2847 2094 
Q 2847 2600 2669 2842 
Q 2491 3084 2119 3084 
Q 1678 3084 1418 2786 
Q 1159 2488 1159 1978 
L 1159 0 
L 581 0 
L 581 3500 
L 1159 3500 
L 1159 2956 
Q 1356 3278 1631 3431 
Q 1906 3584 2284 3584 
Q 2666 3584 2933 3390 
Q 3200 3197 3328 2828 
z
" transform="scale(0.015625)"/>
       <path id="DejaVuSans-65" d="M 3597 1894 
L 3597 1613 
L 953 1613 
Q 991 1019 1311 708 
Q 1631 397 2203 397 
Q 2534 397 2845 478 
Q 3156 559 3463 722 
L 3463 178 
Q 3153 47 2828 -22 
Q 2503 -91 2169 -91 
Q 1331 -91 842 396 
Q 353 884 353 1716 
Q 353 2575 817 3079 
Q 1281 3584 2069 3584 
Q 2775 3584 3186 3129 
Q 3597 2675 3597 1894 
z
M 3022 2063 
Q 3016 2534 2758 2815 
Q 2500 3097 2075 3097 
Q 1594 3097 1305 2825 
Q 1016 2553 972 2059 
L 3022 2063 
z
" transform="scale(0.015625)"/>
       <path id="DejaVuSans-20" transform="scale(0.015625)"/>
       <path id="DejaVuSans-28" d="M 1984 4856 
Q 1566 4138 1362 3434 
Q 1159 2731 1159 2009 
Q 1159 1288 1364 580 
Q 1569 -128 1984 -844 
L 1484 -844 
Q 1016 -109 783 600 
Q 550 1309 550 2009 
Q 550 2706 781 3412 
Q 1013 4119 1484 4856 
L 1984 4856 
z
" transform="scale(0.015625)"/>
       <path id="DejaVuSans-73" d="M 2834 3397 
L 2834 2853 
Q 2591 2978 2328 3040 
Q 2066 3103 1784 3103 
Q 1356 3103 1142 2972 
Q 928 2841 928 2578 
Q 928 2378 1081 2264 
Q 1234 2150 1697 2047 
L 1894 2003 
Q 2506 1872 2764 1633 
Q 3022 1394 3022 966 
Q 3022 478 2636 193 
Q 2250 -91 1575 -91 
Q 1294 -91 989 -36 
Q 684 19 347 128 
L 347 722 
Q 666 556 975 473 
Q 1284 391 1588 391 
Q 1994 391 2212 530 
Q 2431 669 2431 922 
Q 2431 1156 2273 1281 
Q 2116 1406 1581 1522 
L 1381 1569 
Q 847 1681 609 1914 
Q 372 2147 372 2553 
Q 372 3047 722 3315 
Q 1072 3584 1716 3584 
Q 2034 3584 2315 3537 
Q 2597 3491 2834 3397 
z
" transform="scale(0.015625)"/>
       <path id="DejaVuSans-63" d="M 3122 3366 
L 3122 2828 
Q 2878 2963 2633 3030 
Q 2388 3097 2138 3097 
Q 1578 3097 1268 2742 
Q 959 2388 959 1747 
Q 959 1106 1268 751 
Q 1578 397 2138 397 
Q 2388 397 2633 464 
Q 2878 531 3122 666 
L 3122 134 
Q 2881 22 2623 -34 
Q 2366 -91 2075 -91 
Q 1284 -91 818 406 
Q 353 903 353 1747 
Q 353 2603 823 3093 
Q 1294 3584 2113 3584 
Q 2378 3584 2631 3529 
Q 2884 3475 3122 3366 
z
" transform="scale(0.015625)"/>
       <path id="DejaVuSans-6f" d="M 1959 3097 
Q 1497 3097 1228 2736 
Q 959 2375 959 1747 
Q 959 1119 1226 758 
Q 1494 397 1959 397 
Q 2419 397 2687 759 
Q 2956 1122 2956 1747 
Q 2956 2369 2687 2733 
Q 2419 3097 1959 3097 
z
M 1959 3584 
Q 2709 3584 3137 3096 
Q 3566 2609 3566 1747 
Q 3566 888 3137 398 
Q 2709 -91 1959 -91 
Q 1206 -91 779 398 
Q 353 888 353 1747 
Q 353 2609 779 3096 
Q 1206 3584 1959 3584 
z
" transform="scale(0.015625)"/>
       <path id="DejaVuSans-6e" d="M 3513 2113 
L 3513 0 
L 2938 0 
L 2938 2094 
Q 2938 2591 2744 2837 
Q 2550 3084 2163 3084 
Q 1697 3084 1428 2787 
Q 1159 2491 1159 1978 
L 1159 0 
L 581 0 
L 581 3500 
L 1159 3500 
L 1159 2956 
Q 1366 3272 1645 3428 
Q 1925 3584 2291 3584 
Q 2894 3584 3203 3211 
Q 3513 2838 3513 2113 
z
" transform="scale(0.015625)"/>
       <path id="DejaVuSans-64" d="M 2906 2969 
L 2906 4863 
L 3481 4863 
L 3481 0 
L 2906 0 
L 2906 525 
Q 2725 213 2448 61 
Q 2172 -91 1784 -91 
Q 1150 -91 751 415 
Q 353 922 353 1747 
Q 353 2572 751 3078 
Q 1150 3584 1784 3584 
Q 2172 3584 2448 3432 
Q 2725 3281 2906 2969 
z
M 947 1747 
Q 947 1113 1208 752 
Q 1469 391 1925 391 
Q 2381 391 2643 752 
Q 2906 1113 2906 1747 
Q 2906 2381 2643 2742 
Q 2381 3103 1925 3103 
Q 1469 3103 1208 2742 
Q 947 2381 947 1747 
z
" transform="scale(0.015625)"/>
       <path id="DejaVuSans-29" d="M 513 4856 
L 1013 4856 
Q 1481 4119 1714 3412 
Q 1947 2706 1947 2009 
Q 1947 1309 1714 600 
Q 1481 -109 1013 -844 
L 513 -844 
Q 928 -128 1133 580 
Q 1338 1288 1338 2009 
Q 1338 2731 1133 3434 
Q 928 4138 513 4856 
z
" transform="scale(0.015625)"/>
      </defs>
      <use xlink:href="#DejaVuSans-54"/>
      <use xlink:href="#DejaVuSans-69" x="57.958984"/>
      <use xlink:href="#DejaVuSans-6d" x="85.742188"/>
      <use xlink:href="#DejaVuSans-65" x="183.154297"/>
      <use xlink:href="#DejaVuSans-20" x="244.677734"/>
      <use xlink:href="#DejaVuSans-28" x="276.464844"/>
      <use xlink:href="#DejaVuSans-73" x="315.478516"/>
      <use xlink:href="#DejaVuSans-65" x="367.578125"/>
      <use xlink:href="#DejaVuSans-63" x="429.101562"/>
      <use xlink:href="#DejaVuSans-6f" x="484.082031"/>
      <use xlink:href="#DejaVuSans-6e" x="545.263672"/>
      <use xlink:href="#DejaVuSans-64" x="608.642578"/>
      <use xlink:href="#DejaVuSans-73" x="672.119141"/>
      <use xlink:href="#DejaVuSans-29" x="724.21875"/>
     </g>
    </g>
   </g>
   <g id="matplotlib.axis_2">
    <g id="ytick_1">
     <g id="line2d_7">
      <defs>
       <path id="mcb850a01cb" d="M 0 0 
L -3.5 0 
" style="stroke: #000000; stroke-width: 0.8"/>
      </defs>
      <g>
       <use xlink:href="#mcb850a01cb" x="43.78125" y="231.91692" style="stroke: #000000; stroke-width: 0.8"/>
      </g>
     </g>
     <g id="text_8">
      <!-- 0.0 -->
      <g transform="translate(20.878125 235.716139)scale(0.1 -0.1)">
       <defs>
        <path id="DejaVuSans-2e" d="M 684 794 
L 1344 794 
L 1344 0 
L 684 0 
L 684 794 
z
" transform="scale(0.015625)"/>
       </defs>
       <use xlink:href="#DejaVuSans-30"/>
       <use xlink:href="#DejaVuSans-2e" x="63.623047"/>
       <use xlink:href="#DejaVuSans-30" x="95.410156"/>
      </g>
     </g>
    </g>
    <g id="ytick_2">
     <g id="line2d_8">
      <g>
       <use xlink:href="#mcb850a01cb" x="43.78125" y="188.966064" style="stroke: #000000; stroke-width: 0.8"/>
      </g>
     </g>
     <g id="text_9">
      <!-- 0.2 -->
      <g transform="translate(20.878125 192.765283)scale(0.1 -0.1)">
       <use xlink:href="#DejaVuSans-30"/>
       <use xlink:href="#DejaVuSans-2e" x="63.623047"/>
       <use xlink:href="#DejaVuSans-32" x="95.410156"/>
      </g>
     </g>
    </g>
    <g id="ytick_3">
     <g id="line2d_9">
      <g>
       <use xlink:href="#mcb850a01cb" x="43.78125" y="146.015207" style="stroke: #000000; stroke-width: 0.8"/>
      </g>
     </g>
     <g id="text_10">
      <!-- 0.4 -->
      <g transform="translate(20.878125 149.814426)scale(0.1 -0.1)">
       <use xlink:href="#DejaVuSans-30"/>
       <use xlink:href="#DejaVuSans-2e" x="63.623047"/>
       <use xlink:href="#DejaVuSans-34" x="95.410156"/>
      </g>
     </g>
    </g>
    <g id="ytick_4">
     <g id="line2d_10">
      <g>
       <use xlink:href="#mcb850a01cb" x="43.78125" y="103.064351" style="stroke: #000000; stroke-width: 0.8"/>
      </g>
     </g>
     <g id="text_11">
      <!-- 0.6 -->
      <g transform="translate(20.878125 106.86357)scale(0.1 -0.1)">
       <use xlink:href="#DejaVuSans-30"/>
       <use xlink:href="#DejaVuSans-2e" x="63.623047"/>
       <use xlink:href="#DejaVuSans-36" x="95.410156"/>
      </g>
     </g>
    </g>
    <g id="ytick_5">
     <g id="line2d_11">
      <g>
       <use xlink:href="#mcb850a01cb" x="43.78125" y="60.113494" style="stroke: #000000; stroke-width: 0.8"/>
      </g>
     </g>
     <g id="text_12">
      <!-- 0.8 -->
      <g transform="translate(20.878125 63.912713)scale(0.1 -0.1)">
       <use xlink:href="#DejaVuSans-30"/>
       <use xlink:href="#DejaVuSans-2e" x="63.623047"/>
       <use xlink:href="#DejaVuSans-38" x="95.410156"/>
      </g>
     </g>
    </g>
    <g id="ytick_6">
     <g id="line2d_12">
      <g>
       <use xlink:href="#mcb850a01cb" x="43.78125" y="17.162638" style="stroke: #000000; stroke-width: 0.8"/>
      </g>
     </g>
     <g id="text_13">
      <!-- 1.0 -->
      <g transform="translate(20.878125 20.961856)scale(0.1 -0.1)">
       <use xlink:href="#DejaVuSans-31"/>
       <use xlink:href="#DejaVuSans-2e" x="63.623047"/>
       <use xlink:href="#DejaVuSans-30" x="95.410156"/>
      </g>
     </g>
    </g>
    <g id="text_14">
     <!-- Cross Track Error (meters) -->
     <g transform="translate(14.798438 190.18125)rotate(-90)scale(0.1 -0.1)">
      <defs>
       <path id="DejaVuSans-43" d="M 4122 4306 
L 4122 3641 
Q 3803 3938 3442 4084 
Q 3081 4231 2675 4231 
Q 1875 4231 1450 3742 
Q 1025 3253 1025 2328 
Q 1025 1406 1450 917 
Q 1875 428 2675 428 
Q 3081 428 3442 575 
Q 3803 722 4122 1019 
L 4122 359 
Q 3791 134 3420 21 
Q 3050 -91 2638 -91 
Q 1578 -91 968 557 
Q 359 1206 359 2328 
Q 359 3453 968 4101 
Q 1578 4750 2638 4750 
Q 3056 4750 3426 4639 
Q 3797 4528 4122 4306 
z
" transform="scale(0.015625)"/>
       <path id="DejaVuSans-72" d="M 2631 2963 
Q 2534 3019 2420 3045 
Q 2306 3072 2169 3072 
Q 1681 3072 1420 2755 
Q 1159 2438 1159 1844 
L 1159 0 
L 581 0 
L 581 3500 
L 1159 3500 
L 1159 2956 
Q 1341 3275 1631 3429 
Q 1922 3584 2338 3584 
Q 2397 3584 2469 3576 
Q 2541 3569 2628 3553 
L 2631 2963 
z
" transform="scale(0.015625)"/>
       <path id="DejaVuSans-61" d="M 2194 1759 
Q 1497 1759 1228 1600 
Q 959 1441 959 1056 
Q 959 750 1161 570 
Q 1363 391 1709 391 
Q 2188 391 2477 730 
Q 2766 1069 2766 1631 
L 2766 1759 
L 2194 1759 
z
M 3341 1997 
L 3341 0 
L 2766 0 
L 2766 531 
Q 2569 213 2275 61 
Q 1981 -91 1556 -91 
Q 1019 -91 701 211 
Q 384 513 384 1019 
Q 384 1609 779 1909 
Q 1175 2209 1959 2209 
L 2766 2209 
L 2766 2266 
Q 2766 2663 2505 2880 
Q 2244 3097 1772 3097 
Q 1472 3097 1187 3025 
Q 903 2953 641 2809 
L 641 3341 
Q 956 3463 1253 3523 
Q 1550 3584 1831 3584 
Q 2591 3584 2966 3190 
Q 3341 2797 3341 1997 
z
" transform="scale(0.015625)"/>
       <path id="DejaVuSans-6b" d="M 581 4863 
L 1159 4863 
L 1159 1991 
L 2875 3500 
L 3609 3500 
L 1753 1863 
L 3688 0 
L 2938 0 
L 1159 1709 
L 1159 0 
L 581 0 
L 581 4863 
z
" transform="scale(0.015625)"/>
       <path id="DejaVuSans-45" d="M 628 4666 
L 3578 4666 
L 3578 4134 
L 1259 4134 
L 1259 2753 
L 3481 2753 
L 3481 2222 
L 1259 2222 
L 1259 531 
L 3634 531 
L 3634 0 
L 628 0 
L 628 4666 
z
" transform="scale(0.015625)"/>
       <path id="DejaVuSans-74" d="M 1172 4494 
L 1172 3500 
L 2356 3500 
L 2356 3053 
L 1172 3053 
L 1172 1153 
Q 1172 725 1289 603 
Q 1406 481 1766 481 
L 2356 481 
L 2356 0 
L 1766 0 
Q 1100 0 847 248 
Q 594 497 594 1153 
L 594 3053 
L 172 3053 
L 172 3500 
L 594 3500 
L 594 4494 
L 1172 4494 
z
" transform="scale(0.015625)"/>
      </defs>
      <use xlink:href="#DejaVuSans-43"/>
      <use xlink:href="#DejaVuSans-72" x="69.824219"/>
      <use xlink:href="#DejaVuSans-6f" x="108.6875"/>
      <use xlink:href="#DejaVuSans-73" x="169.869141"/>
      <use xlink:href="#DejaVuSans-73" x="221.96875"/>
      <use xlink:href="#DejaVuSans-20" x="274.068359"/>
      <use xlink:href="#DejaVuSans-54" x="305.855469"/>
      <use xlink:href="#DejaVuSans-72" x="352.189453"/>
      <use xlink:href="#DejaVuSans-61" x="393.302734"/>
      <use xlink:href="#DejaVuSans-63" x="454.582031"/>
      <use xlink:href="#DejaVuSans-6b" x="509.5625"/>
      <use xlink:href="#DejaVuSans-20" x="567.472656"/>
      <use xlink:href="#DejaVuSans-45" x="599.259766"/>
      <use xlink:href="#DejaVuSans-72" x="662.443359"/>
      <use xlink:href="#DejaVuSans-72" x="701.806641"/>
      <use xlink:href="#DejaVuSans-6f" x="740.669922"/>
      <use xlink:href="#DejaVuSans-72" x="801.851562"/>
      <use xlink:href="#DejaVuSans-20" x="842.964844"/>
      <use xlink:href="#DejaVuSans-28" x="874.751953"/>
      <use xlink:href="#DejaVuSans-6d" x="913.765625"/>
      <use xlink:href="#DejaVuSans-65" x="1011.177734"/>
      <use xlink:href="#DejaVuSans-74" x="1072.701172"/>
      <use xlink:href="#DejaVuSans-65" x="1111.910156"/>
      <use xlink:href="#DejaVuSans-72" x="1173.433594"/>
      <use xlink:href="#DejaVuSans-73" x="1214.546875"/>
      <use xlink:href="#DejaVuSans-29" x="1266.646484"/>
     </g>
    </g>
   </g>
   <g id="line2d_13">
    <path d="M 43.78125 226.035399 
L 44.966647 226.035399 
L 46.152044 222.888803 
L 47.33744 222.888803 
L 48.522837 222.722144 
L 49.708234 222.722144 
L 50.893631 222.972918 
L 56.820615 223.072996 
L 58.006012 223.27359 
L 59.191409 223.27359 
L 60.376806 222.951338 
L 61.562202 222.951338 
L 62.747599 223.256146 
L 63.932996 223.256146 
L 65.118393 223.686612 
L 66.30379 223.686612 
L 67.489187 224.222331 
L 68.674583 224.222331 
L 69.85998 223.464488 
L 73.416171 223.567379 
L 76.972361 223.57716 
L 80.528552 223.515948 
L 81.713948 223.213178 
L 82.899345 223.213178 
L 84.084742 223.570222 
L 85.270139 223.570222 
L 86.455536 223.295525 
L 87.640933 223.295525 
L 88.826329 223.448635 
L 90.011726 223.448635 
L 91.197123 222.864053 
L 92.38252 222.864053 
L 93.567917 221.733022 
L 94.753313 221.733022 
L 95.93871 221.610825 
L 97.124107 221.610825 
L 98.309504 219.847049 
L 99.494901 219.847049 
L 100.680298 216.334333 
L 101.865694 216.334333 
L 103.051091 216.595514 
L 104.236488 216.595514 
L 105.421885 215.44709 
L 106.607282 215.44709 
L 107.792679 212.578006 
L 108.978075 212.578006 
L 110.163472 210.572384 
L 111.348869 210.572384 
L 112.534266 215.522351 
L 113.719663 215.522351 
L 114.90506 213.262923 
L 116.090456 213.262923 
L 117.275853 209.321944 
L 118.46125 209.321944 
L 119.646647 209.205299 
L 123.202837 209.109784 
L 124.388234 204.410529 
L 125.573631 204.410529 
L 126.759028 208.943701 
L 127.944425 208.943701 
L 129.129821 208.660265 
L 130.315218 208.660265 
L 131.500615 210.363823 
L 132.686012 210.363823 
L 133.871409 210.840211 
L 135.056806 210.840211 
L 136.242202 207.521325 
L 137.427599 207.521325 
L 138.612996 207.991945 
L 139.798393 207.991945 
L 140.98379 205.010581 
L 142.169187 205.010581 
L 143.354583 198.442169 
L 144.53998 198.442169 
L 145.725377 200.206257 
L 146.910774 200.206257 
L 148.096171 200.850422 
L 149.281567 200.850422 
L 150.466964 198.375564 
L 151.652361 198.375564 
L 152.837758 197.812092 
L 154.023155 197.812092 
L 155.208552 194.558881 
L 156.393948 194.558881 
L 157.579345 193.084407 
L 158.764742 193.084407 
L 159.950139 197.137362 
L 161.135536 197.137362 
L 162.320933 195.036303 
L 163.506329 195.036303 
L 164.691726 196.854289 
L 165.877123 196.854289 
L 167.06252 188.378403 
L 168.247917 188.378403 
L 169.433313 182.539318 
L 170.61871 182.539318 
L 171.804107 208.054998 
L 172.989504 208.054998 
L 174.174901 205.840905 
L 175.360298 205.840905 
L 176.545694 204.22588 
L 177.731091 204.22588 
L 178.916488 202.209163 
L 180.101885 202.209163 
L 181.287282 188.696046 
L 182.472679 188.696046 
L 183.658075 183.612917 
L 184.843472 183.612917 
L 186.028869 172.09591 
L 187.214266 172.09591 
L 188.399663 161.487959 
L 189.58506 161.487959 
L 190.770456 181.821391 
L 191.955853 181.821391 
L 193.14125 203.760664 
L 194.326647 203.760664 
L 195.512044 174.778566 
L 196.69744 174.778566 
L 197.882837 173.802875 
L 199.068234 173.802875 
L 200.253631 172.277769 
L 201.439028 172.277769 
L 202.624425 171.800888 
L 203.809821 171.800888 
L 204.995218 173.990878 
L 206.180615 173.990878 
L 207.366012 174.139711 
L 208.551409 174.139711 
L 209.736806 168.595455 
L 210.922202 168.595455 
L 212.107599 169.592386 
L 213.292996 169.592386 
L 214.478393 167.912311 
L 215.66379 167.912311 
L 216.849187 169.128081 
L 218.034583 169.128081 
L 219.21998 167.800333 
L 220.405377 167.800333 
L 221.590774 166.607687 
L 222.776171 166.607687 
L 223.961567 165.880037 
L 225.146964 165.880037 
L 226.332361 164.035167 
L 227.517758 164.035167 
L 228.703155 169.438893 
L 229.888552 169.438893 
L 231.073948 168.269482 
L 232.259345 168.269482 
L 233.444742 167.262032 
L 234.630139 167.262032 
L 235.815536 165.939755 
L 237.000933 165.939755 
L 238.186329 170.296605 
L 239.371726 170.296605 
L 240.557123 163.458846 
L 241.74252 163.458846 
L 242.927917 163.746931 
L 244.113313 163.746931 
L 245.29871 161.938003 
L 246.484107 161.938003 
L 247.669504 161.482332 
L 248.854901 161.482332 
L 250.040298 166.35703 
L 251.225694 166.35703 
L 252.411091 159.024382 
L 253.596488 159.024382 
L 254.781885 156.880631 
L 255.967282 156.880631 
L 257.152679 163.031551 
L 258.338075 163.031551 
L 259.523472 162.337835 
L 260.708869 162.337835 
L 261.894266 159.798718 
L 263.079663 159.798718 
L 264.26506 153.959167 
L 265.450456 153.959167 
L 266.635853 156.540116 
L 267.82125 156.540116 
L 269.006647 155.031164 
L 270.192044 155.031164 
L 271.37744 159.672758 
L 272.562837 159.672758 
L 273.748234 157.380779 
L 274.933631 157.380779 
L 276.119028 153.243885 
L 277.304425 153.243885 
L 278.489821 157.172059 
L 279.675218 157.172059 
L 280.860615 153.357286 
L 282.046012 153.357286 
L 283.231409 157.454892 
L 284.416806 157.454892 
L 285.602202 152.117662 
L 286.787599 152.117662 
L 287.972996 146.702271 
L 289.158393 146.702271 
L 290.34379 155.397046 
L 291.529187 155.397046 
L 292.714583 153.343261 
L 293.89998 153.343261 
L 295.085377 160.869253 
L 296.270774 160.869253 
L 297.456171 146.106076 
L 298.641567 146.106076 
L 299.826964 142.207377 
L 301.012361 142.207377 
L 302.197758 156.148264 
L 303.383155 156.148264 
L 304.568552 153.036733 
L 308.124742 153.031693 
L 309.310139 151.442729 
L 310.495536 151.442729 
L 311.680933 140.005541 
L 312.866329 140.005541 
L 314.051726 154.767553 
L 315.237123 154.767553 
L 316.42252 154.512587 
L 317.607917 154.512587 
L 318.793313 161.162769 
L 319.97871 161.162769 
L 321.164107 149.644495 
L 322.349504 149.644495 
L 323.534901 154.768549 
L 324.720298 154.768549 
L 325.905694 153.372026 
L 327.091091 153.372026 
L 328.276488 155.025095 
L 329.461885 155.025095 
L 330.647282 159.438915 
L 331.832679 159.438915 
L 333.018075 149.612164 
L 334.203472 149.612164 
L 335.388869 153.921204 
L 336.574266 153.921204 
L 337.759663 151.90805 
L 338.94506 151.90805 
L 340.130456 157.102321 
L 341.315853 157.102321 
L 342.50125 148.609635 
L 343.686647 148.609635 
L 344.872044 161.037625 
L 346.05744 161.037625 
L 347.242837 153.883722 
L 348.428234 153.883722 
L 349.613631 150.462245 
L 350.799028 150.462245 
L 351.984425 145.266364 
L 353.169821 145.266364 
L 354.355218 127.56691 
L 355.540615 127.56691 
L 356.726012 169.310559 
L 357.911409 169.310559 
L 359.096806 150.467289 
L 360.282202 150.467289 
L 361.467599 127.442866 
L 362.652996 127.442866 
L 363.838393 119.512615 
L 365.02379 119.512615 
L 366.209187 150.474284 
L 367.394583 150.474284 
L 368.57998 144.513262 
L 369.765377 144.513262 
L 370.950774 142.975403 
L 372.136171 142.975403 
L 373.321567 140.07084 
L 374.506964 140.07084 
L 375.692361 135.840022 
L 376.877758 135.840022 
L 378.063155 148.589989 
L 379.248552 148.589989 
L 380.433948 144.855197 
L 381.619345 144.855197 
L 382.804742 146.491939 
L 383.990139 146.491939 
L 385.175536 142.080193 
L 386.360933 142.080193 
L 387.546329 158.160741 
L 388.731726 158.160741 
L 389.917123 150.470916 
L 391.10252 150.470916 
L 392.287917 151.056299 
L 393.473313 151.056299 
L 394.65871 145.703356 
L 395.844107 145.703356 
L 397.029504 142.968704 
L 398.214901 142.968704 
L 399.400298 156.732947 
L 400.585694 156.732947 
L 401.771091 150.287738 
L 402.956488 150.287738 
L 404.141885 147.515114 
L 405.327282 147.515114 
L 406.512679 142.115413 
L 407.698075 142.115413 
L 408.883472 152.592596 
L 410.068869 152.592596 
L 411.254266 146.665289 
L 412.439663 146.665289 
L 413.62506 143.538179 
L 414.810456 143.538179 
L 415.995853 140.626537 
L 417.18125 140.626537 
L 418.366647 128.991397 
L 419.552044 128.991397 
L 420.73744 147.050595 
L 421.922837 147.050595 
L 423.108234 140.929851 
L 424.293631 140.929851 
L 425.38125 144.755895 
L 425.38125 144.755895 
" clip-path="url(#pbc48ecccf3)" style="fill: none; stroke: #1f77b4; stroke-width: 1.5; stroke-linecap: square"/>
   </g>
   <g id="line2d_14">
    <path d="M 43.78125 230.124493 
L 44.966647 230.124493 
L 46.152044 230.832263 
L 47.33744 230.832263 
L 48.522837 230.44738 
L 49.708234 230.44738 
L 50.893631 230.807067 
L 54.449821 230.773558 
L 55.635218 229.974212 
L 56.820615 229.974212 
L 58.006012 230.392601 
L 59.191409 230.392601 
L 60.376806 230.755446 
L 61.562202 230.755446 
L 62.747599 230.162516 
L 63.932996 230.162516 
L 65.118393 229.547918 
L 66.30379 229.547918 
L 67.489187 230.207127 
L 71.045377 230.199746 
L 72.230774 229.221478 
L 73.416171 229.221478 
L 74.601567 229.934127 
L 75.786964 229.934127 
L 76.972361 229.240774 
L 78.157758 229.240774 
L 79.343155 229.543229 
L 80.528552 229.543229 
L 81.713948 229.339443 
L 82.899345 229.339443 
L 84.084742 229.918139 
L 87.640933 229.883584 
L 91.197123 229.690179 
L 94.753313 229.650727 
L 95.93871 229.249772 
L 97.124107 229.249772 
L 98.309504 229.041411 
L 99.494901 229.041411 
L 100.680298 230.124826 
L 101.865694 230.124826 
L 103.051091 231.036014 
L 104.236488 231.036014 
L 105.421885 231.490501 
L 106.607282 231.490501 
L 107.792679 230.03591 
L 108.978075 230.03591 
L 110.163472 231.142155 
L 111.348869 231.142155 
L 112.534266 231.741282 
L 113.719663 231.741282 
L 114.90506 229.433376 
L 116.090456 229.433376 
L 117.275853 231.831109 
L 118.46125 231.831109 
L 119.646647 229.370479 
L 120.832044 229.370479 
L 122.01744 231.284046 
L 123.202837 231.284046 
L 124.388234 231.027106 
L 125.573631 231.027106 
L 126.759028 230.775549 
L 127.944425 230.775549 
L 129.129821 231.867337 
L 130.315218 231.867337 
L 131.500615 230.890721 
L 132.686012 230.890721 
L 133.871409 229.593846 
L 135.056806 229.593846 
L 136.242202 231.024685 
L 137.427599 231.024685 
L 138.612996 230.268745 
L 139.798393 230.268745 
L 140.98379 231.386591 
L 142.169187 231.386591 
L 143.354583 230.463694 
L 144.53998 230.463694 
L 145.725377 228.115907 
L 146.910774 228.115907 
L 148.096171 229.399085 
L 149.281567 229.399085 
L 150.466964 229.037881 
L 151.652361 229.037881 
L 152.837758 228.153073 
L 154.023155 228.153073 
L 155.208552 226.479235 
L 156.393948 226.479235 
L 157.579345 224.755408 
L 158.764742 224.755408 
L 159.950139 226.338283 
L 161.135536 226.338283 
L 162.320933 229.241057 
L 163.506329 229.241057 
L 164.691726 229.972405 
L 165.877123 229.972405 
L 167.06252 228.454032 
L 168.247917 228.454032 
L 169.433313 227.370616 
L 170.61871 227.370616 
L 171.804107 228.92022 
L 172.989504 228.92022 
L 174.174901 230.320954 
L 175.360298 230.320954 
L 176.545694 222.608767 
L 177.731091 222.608767 
L 178.916488 221.444572 
L 180.101885 221.444572 
L 181.287282 222.779337 
L 182.472679 222.779337 
L 183.658075 223.068683 
L 184.843472 223.068683 
L 186.028869 228.691492 
L 187.214266 228.691492 
L 188.399663 230.816381 
L 189.58506 230.816381 
L 190.770456 228.28758 
L 191.955853 228.28758 
L 193.14125 206.543404 
L 194.326647 206.543404 
L 195.512044 188.359486 
L 196.69744 188.359486 
L 197.882837 222.044729 
L 199.068234 222.044729 
L 200.253631 230.997127 
L 201.439028 230.997127 
L 202.624425 231.572169 
L 203.809821 231.572169 
L 204.995218 228.244271 
L 208.551409 228.167197 
L 209.736806 226.923935 
L 210.922202 226.923935 
L 212.107599 227.73005 
L 213.292996 227.73005 
L 214.478393 229.75548 
L 215.66379 229.75548 
L 216.849187 231.78417 
L 220.405377 231.855625 
L 221.590774 229.24472 
L 222.776171 229.24472 
L 223.961567 228.913226 
L 225.146964 228.913226 
L 226.332361 227.854252 
L 227.517758 227.854252 
L 228.703155 223.015645 
L 229.888552 223.015645 
L 231.073948 221.059753 
L 232.259345 221.059753 
L 233.444742 220.777537 
L 234.630139 220.777537 
L 235.815536 218.070641 
L 237.000933 218.070641 
L 238.186329 218.756284 
L 239.371726 218.756284 
L 240.557123 219.115666 
L 241.74252 219.115666 
L 242.927917 219.644585 
L 244.113313 219.644585 
L 245.29871 221.724564 
L 246.484107 221.724564 
L 247.669504 221.160747 
L 248.854901 221.160747 
L 250.040298 223.224774 
L 251.225694 223.224774 
L 252.411091 224.082352 
L 253.596488 224.082352 
L 254.781885 227.741986 
L 255.967282 227.741986 
L 257.152679 226.142105 
L 258.338075 226.142105 
L 259.523472 225.553115 
L 260.708869 225.553115 
L 261.894266 225.924322 
L 263.079663 225.924322 
L 264.26506 222.372834 
L 265.450456 222.372834 
L 266.635853 224.623222 
L 267.82125 224.623222 
L 269.006647 231.882194 
L 270.192044 231.882194 
L 271.37744 229.427 
L 272.562837 229.427 
L 273.748234 226.310366 
L 274.933631 226.310366 
L 276.119028 226.870373 
L 277.304425 226.870373 
L 278.489821 222.369909 
L 279.675218 222.369909 
L 280.860615 227.941057 
L 282.046012 227.941057 
L 283.231409 225.28142 
L 284.416806 225.28142 
L 285.602202 220.174826 
L 286.787599 220.174826 
L 287.972996 217.628899 
L 289.158393 217.628899 
L 290.34379 223.159119 
L 291.529187 223.159119 
L 292.714583 228.647286 
L 293.89998 228.647286 
L 295.085377 224.23233 
L 296.270774 224.23233 
L 297.456171 218.771167 
L 298.641567 218.771167 
L 299.826964 220.836236 
L 301.012361 220.836236 
L 302.197758 226.639213 
L 303.383155 226.639213 
L 304.568552 221.850022 
L 305.753948 221.850022 
L 306.939345 223.230063 
L 308.124742 223.230063 
L 309.310139 222.413723 
L 310.495536 222.413723 
L 311.680933 224.402503 
L 312.866329 224.402503 
L 314.051726 223.726449 
L 317.607917 223.715079 
L 318.793313 222.975102 
L 319.97871 222.975102 
L 321.164107 223.228807 
L 322.349504 223.228807 
L 323.534901 223.680783 
L 324.720298 223.680783 
L 325.905694 221.62421 
L 327.091091 221.62421 
L 328.276488 222.411792 
L 329.461885 222.411792 
L 330.647282 222.869019 
L 331.832679 222.869019 
L 333.018075 221.915266 
L 334.203472 221.915266 
L 335.388869 224.583021 
L 336.574266 224.583021 
L 337.759663 221.044387 
L 338.94506 221.044387 
L 340.130456 219.785881 
L 341.315853 219.785881 
L 342.50125 220.559944 
L 343.686647 220.559944 
L 344.872044 224.934022 
L 346.05744 224.934022 
L 347.242837 222.421613 
L 348.428234 222.421613 
L 349.613631 224.151073 
L 350.799028 224.151073 
L 351.984425 226.671457 
L 353.169821 226.671457 
L 354.355218 222.768443 
L 355.540615 222.768443 
L 356.726012 219.735418 
L 357.911409 219.735418 
L 359.096806 222.680105 
L 360.282202 222.680105 
L 361.467599 224.602384 
L 362.652996 224.602384 
L 363.838393 223.927151 
L 367.394583 223.833573 
L 368.57998 224.257299 
L 369.765377 224.257299 
L 370.950774 223.716975 
L 372.136171 223.716975 
L 373.321567 221.625612 
L 374.506964 221.625612 
L 375.692361 222.72332 
L 376.877758 222.72332 
L 378.063155 224.789024 
L 379.248552 224.789024 
L 380.433948 222.965512 
L 381.619345 222.965512 
L 382.804742 222.353429 
L 383.990139 222.353429 
L 385.175536 222.756036 
L 386.360933 222.756036 
L 387.546329 226.160579 
L 388.731726 226.160579 
L 389.917123 225.622891 
L 391.10252 225.622891 
L 392.287917 223.423978 
L 393.473313 223.423978 
L 394.65871 218.637212 
L 395.844107 218.637212 
L 397.029504 216.558105 
L 398.214901 216.558105 
L 399.400298 220.739397 
L 400.585694 220.739397 
L 401.771091 222.444334 
L 402.956488 222.444334 
L 404.141885 220.990626 
L 405.327282 220.990626 
L 406.512679 219.277363 
L 407.698075 219.277363 
L 408.883472 219.735819 
L 410.068869 219.735819 
L 411.254266 223.299485 
L 412.439663 223.299485 
L 413.62506 221.600592 
L 414.810456 221.600592 
L 415.995853 219.889572 
L 419.552044 219.828252 
L 420.73744 223.180642 
L 421.922837 223.180642 
L 423.108234 226.526826 
L 424.293631 226.526826 
L 425.38125 224.659594 
L 425.38125 224.659594 
" clip-path="url(#pbc48ecccf3)" style="fill: none; stroke: #ff7f0e; stroke-width: 1.5; stroke-linecap: square"/>
   </g>
   <g id="line2d_15">
    <path d="M 43.78125 226.406958 
L 44.966647 226.406958 
L 46.152044 222.908768 
L 47.33744 222.908768 
L 48.522837 222.462938 
L 52.079028 222.44257 
L 53.264425 222.926245 
L 54.449821 222.926245 
L 56.820615 222.814949 
L 58.006012 222.9274 
L 61.562202 222.940208 
L 62.747599 222.768275 
L 63.932996 222.768275 
L 65.118393 223.355998 
L 66.30379 223.355998 
L 67.489187 224.138513 
L 68.674583 224.138513 
L 69.85998 223.236575 
L 73.416171 223.260339 
L 74.601567 223.497378 
L 78.157758 223.404835 
L 79.343155 223.201522 
L 80.528552 223.201522 
L 81.713948 223.010513 
L 82.899345 223.010513 
L 84.084742 223.414524 
L 85.270139 223.414524 
L 86.455536 223.13648 
L 87.640933 223.13648 
L 88.826329 223.249667 
L 90.011726 223.249667 
L 91.197123 222.727717 
L 92.38252 222.727717 
L 93.567917 222.927946 
L 94.753313 222.927946 
L 95.93871 222.745267 
L 97.124107 222.745267 
L 98.309504 218.929341 
L 99.494901 218.929341 
L 100.680298 222.243794 
L 101.865694 222.243794 
L 103.051091 218.298706 
L 104.236488 218.298706 
L 105.421885 218.483339 
L 106.607282 218.483339 
L 107.792679 215.503051 
L 108.978075 215.503051 
L 110.163472 210.945985 
L 111.348869 210.945985 
L 112.534266 213.518087 
L 113.719663 213.518087 
L 114.90506 211.664258 
L 116.090456 211.664258 
L 117.275853 213.955752 
L 118.46125 213.955752 
L 119.646647 206.32679 
L 120.832044 206.32679 
L 122.01744 212.176504 
L 123.202837 212.176504 
L 124.388234 206.177217 
L 125.573631 206.177217 
L 126.759028 207.169423 
L 127.944425 207.169423 
L 129.129821 208.433237 
L 130.315218 208.433237 
L 131.500615 207.853569 
L 132.686012 207.853569 
L 133.871409 210.656737 
L 135.056806 210.656737 
L 136.242202 210.520786 
L 137.427599 210.520786 
L 138.612996 208.798727 
L 139.798393 208.798727 
L 140.98379 207.389487 
L 142.169187 207.389487 
L 143.354583 204.579724 
L 144.53998 204.579724 
L 145.725377 200.085191 
L 146.910774 200.085191 
L 148.096171 199.817469 
L 149.281567 199.817469 
L 150.466964 198.649878 
L 151.652361 198.649878 
L 152.837758 200.875719 
L 154.023155 200.875719 
L 155.208552 194.693015 
L 156.393948 194.693015 
L 157.579345 193.670819 
L 161.135536 193.621334 
L 162.320933 196.868137 
L 163.506329 196.868137 
L 164.691726 197.936974 
L 165.877123 197.936974 
L 167.06252 199.781099 
L 168.247917 199.781099 
L 169.433313 203.197485 
L 170.61871 203.197485 
L 171.804107 226.465225 
L 172.989504 226.465225 
L 174.174901 220.621723 
L 175.360298 220.621723 
L 176.545694 225.33193 
L 177.731091 225.33193 
L 178.916488 227.814922 
L 180.101885 227.814922 
L 181.287282 230.724152 
L 182.472679 230.724152 
L 183.658075 229.967053 
L 184.843472 229.967053 
L 186.028869 227.796155 
L 187.214266 227.796155 
L 188.399663 223.601768 
L 189.58506 223.601768 
L 190.770456 217.814541 
L 191.955853 217.814541 
L 193.14125 205.125414 
L 194.326647 205.125414 
L 195.512044 223.728282 
L 196.69744 223.728282 
L 197.882837 226.798187 
L 201.439028 226.775264 
L 202.624425 227.329142 
L 203.809821 227.329142 
L 204.995218 231.427857 
L 206.180615 231.427857 
L 207.366012 229.551319 
L 208.551409 229.551319 
L 209.736806 223.703551 
L 213.292996 223.799959 
L 214.478393 225.614165 
L 215.66379 225.614165 
L 216.849187 222.708894 
L 220.405377 222.771775 
L 221.590774 225.042722 
L 222.776171 225.042722 
L 223.961567 225.448264 
L 225.146964 225.448264 
L 226.332361 228.115761 
L 227.517758 228.115761 
L 228.703155 229.607256 
L 229.888552 229.607256 
L 231.073948 225.664285 
L 232.259345 225.664285 
L 233.444742 231.06819 
L 234.630139 231.06819 
L 235.815536 228.104015 
L 237.000933 228.104015 
L 238.186329 224.62373 
L 241.74252 224.712563 
L 242.927917 228.404342 
L 244.113313 228.404342 
L 245.29871 227.39274 
L 246.484107 227.39274 
L 247.669504 228.648434 
L 248.854901 228.648434 
L 250.040298 227.666932 
L 251.225694 227.666932 
L 252.411091 231.9 
L 253.596488 231.9 
L 254.781885 228.481535 
L 255.967282 228.481535 
L 257.152679 231.806586 
L 258.338075 231.806586 
L 259.523472 229.313955 
L 260.708869 229.313955 
L 261.894266 231.368699 
L 263.079663 231.368699 
L 264.26506 230.637174 
L 265.450456 230.637174 
L 266.635853 231.504896 
L 267.82125 231.504896 
L 269.006647 228.334862 
L 270.192044 228.334862 
L 271.37744 227.210103 
L 272.562837 227.210103 
L 273.748234 225.316885 
L 274.933631 225.316885 
L 276.119028 227.368655 
L 277.304425 227.368655 
L 278.489821 231.234094 
L 279.675218 231.234094 
L 280.860615 229.441214 
L 282.046012 229.441214 
L 283.231409 228.170963 
L 284.416806 228.170963 
L 285.602202 226.814447 
L 286.787599 226.814447 
L 287.972996 231.8879 
L 289.158393 231.8879 
L 290.34379 228.234954 
L 291.529187 228.234954 
L 292.714583 231.667142 
L 293.89998 231.667142 
L 295.085377 225.18321 
L 296.270774 225.18321 
L 297.456171 220.795817 
L 298.641567 220.795817 
L 299.826964 220.560321 
L 301.012361 220.560321 
L 302.197758 217.466542 
L 303.383155 217.466542 
L 304.568552 219.762396 
L 305.753948 219.762396 
L 306.939345 226.344191 
L 308.124742 226.344191 
L 309.310139 220.250016 
L 310.495536 220.250016 
L 311.680933 214.65327 
L 312.866329 214.65327 
L 314.051726 213.612479 
L 315.237123 213.612479 
L 316.42252 211.922164 
L 317.607917 211.922164 
L 318.793313 210.135089 
L 319.97871 210.135089 
L 321.164107 210.949073 
L 322.349504 210.949073 
L 323.534901 214.938304 
L 324.720298 214.938304 
L 325.905694 213.185818 
L 327.091091 213.185818 
L 328.276488 211.666426 
L 329.461885 211.666426 
L 330.647282 212.109787 
L 331.832679 212.109787 
L 333.018075 211.752492 
L 334.203472 211.752492 
L 335.388869 214.345788 
L 336.574266 214.345788 
L 337.759663 218.108118 
L 338.94506 218.108118 
L 340.130456 216.533807 
L 341.315853 216.533807 
L 342.50125 217.633831 
L 346.05744 217.597759 
L 347.242837 218.189938 
L 348.428234 218.189938 
L 349.613631 220.085923 
L 350.799028 220.085923 
L 351.984425 221.653567 
L 353.169821 221.653567 
L 354.355218 220.100732 
L 355.540615 220.100732 
L 356.726012 218.52623 
L 357.911409 218.52623 
L 359.096806 220.314333 
L 360.282202 220.314333 
L 361.467599 222.774569 
L 362.652996 222.774569 
L 363.838393 218.343556 
L 365.02379 218.343556 
L 366.209187 216.449407 
L 367.394583 216.449407 
L 368.57998 217.279634 
L 372.136171 217.179779 
L 373.321567 215.565898 
L 374.506964 215.565898 
L 375.692361 212.984588 
L 376.877758 212.984588 
L 378.063155 213.488666 
L 381.619345 213.399687 
L 382.804742 208.945415 
L 383.990139 208.945415 
L 385.175536 210.596316 
L 386.360933 210.596316 
L 387.546329 211.372707 
L 388.731726 211.372707 
L 389.917123 213.615177 
L 391.10252 213.615177 
L 392.287917 212.91193 
L 393.473313 212.91193 
L 394.65871 208.743674 
L 395.844107 208.743674 
L 397.029504 210.978447 
L 398.214901 210.978447 
L 399.400298 212.398478 
L 400.585694 212.398478 
L 401.771091 213.457887 
L 402.956488 213.457887 
L 404.141885 213.844702 
L 405.327282 213.844702 
L 406.512679 209.165536 
L 407.698075 209.165536 
L 408.883472 214.609003 
L 410.068869 214.609003 
L 411.254266 214.74514 
L 412.439663 214.74514 
L 413.62506 218.020778 
L 414.810456 218.020778 
L 415.995853 215.079118 
L 417.18125 215.079118 
L 418.366647 218.085694 
L 419.552044 218.085694 
L 420.73744 222.286285 
L 421.922837 222.286285 
L 423.108234 225.183355 
L 424.293631 225.183355 
L 425.38125 224.102231 
L 425.38125 224.102231 
" clip-path="url(#pbc48ecccf3)" style="fill: none; stroke: #2ca02c; stroke-width: 1.5; stroke-linecap: square"/>
   </g>
   <g id="patch_3">
    <path d="M 43.78125 242.6 
L 43.78125 7.2 
" style="fill: none; stroke: #000000; stroke-width: 0.8; stroke-linejoin: miter; stroke-linecap: square"/>
   </g>
   <g id="patch_4">
    <path d="M 417.18125 242.6 
L 417.18125 7.2 
" style="fill: none; stroke: #000000; stroke-width: 0.8; stroke-linejoin: miter; stroke-linecap: square"/>
   </g>
   <g id="patch_5">
    <path d="M 43.78125 242.6 
L 417.18125 242.6 
" style="fill: none; stroke: #000000; stroke-width: 0.8; stroke-linejoin: miter; stroke-linecap: square"/>
   </g>
   <g id="patch_6">
    <path d="M 43.78125 7.2 
L 417.18125 7.2 
" style="fill: none; stroke: #000000; stroke-width: 0.8; stroke-linejoin: miter; stroke-linecap: square"/>
   </g>
   <g id="legend_1">
    <g id="patch_7">
     <path d="M 312.589062 59.234375 
L 410.18125 59.234375 
Q 412.18125 59.234375 412.18125 57.234375 
L 412.18125 14.2 
Q 412.18125 12.2 410.18125 12.2 
L 312.589062 12.2 
Q 310.589062 12.2 310.589062 14.2 
L 310.589062 57.234375 
Q 310.589062 59.234375 312.589062 59.234375 
z
" style="fill: #ffffff; opacity: 0.8; stroke: #cccccc; stroke-linejoin: miter"/>
    </g>
    <g id="line2d_16">
     <path d="M 314.589062 20.298437 
L 324.589062 20.298437 
L 334.589062 20.298437 
" style="fill: none; stroke: #1f77b4; stroke-width: 1.5; stroke-linecap: square"/>
    </g>
    <g id="text_15">
     <!-- no calib. -->
     <g transform="translate(342.589062 23.798437)scale(0.1 -0.1)">
      <defs>
       <path id="DejaVuSans-6c" d="M 603 4863 
L 1178 4863 
L 1178 0 
L 603 0 
L 603 4863 
z
" transform="scale(0.015625)"/>
       <path id="DejaVuSans-62" d="M 3116 1747 
Q 3116 2381 2855 2742 
Q 2594 3103 2138 3103 
Q 1681 3103 1420 2742 
Q 1159 2381 1159 1747 
Q 1159 1113 1420 752 
Q 1681 391 2138 391 
Q 2594 391 2855 752 
Q 3116 1113 3116 1747 
z
M 1159 2969 
Q 1341 3281 1617 3432 
Q 1894 3584 2278 3584 
Q 2916 3584 3314 3078 
Q 3713 2572 3713 1747 
Q 3713 922 3314 415 
Q 2916 -91 2278 -91 
Q 1894 -91 1617 61 
Q 1341 213 1159 525 
L 1159 0 
L 581 0 
L 581 4863 
L 1159 4863 
L 1159 2969 
z
" transform="scale(0.015625)"/>
      </defs>
      <use xlink:href="#DejaVuSans-6e"/>
      <use xlink:href="#DejaVuSans-6f" x="63.378906"/>
      <use xlink:href="#DejaVuSans-20" x="124.560547"/>
      <use xlink:href="#DejaVuSans-63" x="156.347656"/>
      <use xlink:href="#DejaVuSans-61" x="211.328125"/>
      <use xlink:href="#DejaVuSans-6c" x="272.607422"/>
      <use xlink:href="#DejaVuSans-69" x="300.390625"/>
      <use xlink:href="#DejaVuSans-62" x="328.173828"/>
      <use xlink:href="#DejaVuSans-2e" x="391.650391"/>
     </g>
    </g>
    <g id="line2d_17">
     <path d="M 314.589062 34.976562 
L 324.589062 34.976562 
L 334.589062 34.976562 
" style="fill: none; stroke: #ff7f0e; stroke-width: 1.5; stroke-linecap: square"/>
    </g>
    <g id="text_16">
     <!-- perfect calib. -->
     <g transform="translate(342.589062 38.476562)scale(0.1 -0.1)">
      <defs>
       <path id="DejaVuSans-70" d="M 1159 525 
L 1159 -1331 
L 581 -1331 
L 581 3500 
L 1159 3500 
L 1159 2969 
Q 1341 3281 1617 3432 
Q 1894 3584 2278 3584 
Q 2916 3584 3314 3078 
Q 3713 2572 3713 1747 
Q 3713 922 3314 415 
Q 2916 -91 2278 -91 
Q 1894 -91 1617 61 
Q 1341 213 1159 525 
z
M 3116 1747 
Q 3116 2381 2855 2742 
Q 2594 3103 2138 3103 
Q 1681 3103 1420 2742 
Q 1159 2381 1159 1747 
Q 1159 1113 1420 752 
Q 1681 391 2138 391 
Q 2594 391 2855 752 
Q 3116 1113 3116 1747 
z
" transform="scale(0.015625)"/>
       <path id="DejaVuSans-66" d="M 2375 4863 
L 2375 4384 
L 1825 4384 
Q 1516 4384 1395 4259 
Q 1275 4134 1275 3809 
L 1275 3500 
L 2222 3500 
L 2222 3053 
L 1275 3053 
L 1275 0 
L 697 0 
L 697 3053 
L 147 3053 
L 147 3500 
L 697 3500 
L 697 3744 
Q 697 4328 969 4595 
Q 1241 4863 1831 4863 
L 2375 4863 
z
" transform="scale(0.015625)"/>
      </defs>
      <use xlink:href="#DejaVuSans-70"/>
      <use xlink:href="#DejaVuSans-65" x="63.476562"/>
      <use xlink:href="#DejaVuSans-72" x="125"/>
      <use xlink:href="#DejaVuSans-66" x="166.113281"/>
      <use xlink:href="#DejaVuSans-65" x="201.318359"/>
      <use xlink:href="#DejaVuSans-63" x="262.841797"/>
      <use xlink:href="#DejaVuSans-74" x="317.822266"/>
      <use xlink:href="#DejaVuSans-20" x="357.03125"/>
      <use xlink:href="#DejaVuSans-63" x="388.818359"/>
      <use xlink:href="#DejaVuSans-61" x="443.798828"/>
      <use xlink:href="#DejaVuSans-6c" x="505.078125"/>
      <use xlink:href="#DejaVuSans-69" x="532.861328"/>
      <use xlink:href="#DejaVuSans-62" x="560.644531"/>
      <use xlink:href="#DejaVuSans-2e" x="624.121094"/>
     </g>
    </g>
    <g id="line2d_18">
     <path d="M 314.589062 49.654687 
L 324.589062 49.654687 
L 334.589062 49.654687 
" style="fill: none; stroke: #2ca02c; stroke-width: 1.5; stroke-linecap: square"/>
    </g>
    <g id="text_17">
     <!-- VP calib. -->
     <g transform="translate(342.589062 53.154687)scale(0.1 -0.1)">
      <defs>
       <path id="DejaVuSans-56" d="M 1831 0 
L 50 4666 
L 709 4666 
L 2188 738 
L 3669 4666 
L 4325 4666 
L 2547 0 
L 1831 0 
z
" transform="scale(0.015625)"/>
       <path id="DejaVuSans-50" d="M 1259 4147 
L 1259 2394 
L 2053 2394 
Q 2494 2394 2734 2622 
Q 2975 2850 2975 3272 
Q 2975 3691 2734 3919 
Q 2494 4147 2053 4147 
L 1259 4147 
z
M 628 4666 
L 2053 4666 
Q 2838 4666 3239 4311 
Q 3641 3956 3641 3272 
Q 3641 2581 3239 2228 
Q 2838 1875 2053 1875 
L 1259 1875 
L 1259 0 
L 628 0 
L 628 4666 
z
" transform="scale(0.015625)"/>
      </defs>
      <use xlink:href="#DejaVuSans-56"/>
      <use xlink:href="#DejaVuSans-50" x="68.408203"/>
      <use xlink:href="#DejaVuSans-20" x="128.710938"/>
      <use xlink:href="#DejaVuSans-63" x="160.498047"/>
      <use xlink:href="#DejaVuSans-61" x="215.478516"/>
      <use xlink:href="#DejaVuSans-6c" x="276.757812"/>
      <use xlink:href="#DejaVuSans-69" x="304.541016"/>
      <use xlink:href="#DejaVuSans-62" x="332.324219"/>
      <use xlink:href="#DejaVuSans-2e" x="395.800781"/>
     </g>
    </g>
   </g>
  </g>
 </g>
 <defs>
  <clipPath id="pbc48ecccf3">
   <rect x="43.78125" y="7.2" width="373.4" height="235.4"/>
  </clipPath>
 </defs>
</svg>
